<?xml version="1.0" encoding="UTF-8" standalone="no"?>
<!-- Created with Inkscape (http://www.inkscape.org/) -->

<svg
   xmlns:dc="http://purl.org/dc/elements/1.1/"
   xmlns:cc="http://creativecommons.org/ns#"
   xmlns:rdf="http://www.w3.org/1999/02/22-rdf-syntax-ns#"
   xmlns:svg="http://www.w3.org/2000/svg"
   xmlns="http://www.w3.org/2000/svg"
   xmlns:sodipodi="http://sodipodi.sourceforge.net/DTD/sodipodi-0.dtd"
   xmlns:inkscape="http://www.inkscape.org/namespaces/inkscape"
   sodipodi:docname="convex1.svg"
   inkscape:version="0.48.4 r9939"
   version="1.1"
   id="svg2"
   height="1052.3622047"
   width="744.09448819">
  <sodipodi:namedview
     id="base"
     pagecolor="#ffffff"
     bordercolor="#666666"
     borderopacity="1.0"
     inkscape:pageopacity="0.0"
     inkscape:pageshadow="2"
     inkscape:zoom="2.8"
     inkscape:cx="208.07849"
     inkscape:cy="911.81447"
     inkscape:document-units="px"
     inkscape:current-layer="layer1"
     showgrid="false"
     inkscape:window-width="1543"
     inkscape:window-height="876"
     inkscape:window-x="57"
     inkscape:window-y="24"
     inkscape:window-maximized="1"
     inkscape:snap-bbox="true" />
  <defs
     id="defs4">
    <marker
       style="overflow:visible;"
       id="Arrow1Lend"
       refX="0.0"
       refY="0.0"
       orient="auto"
       inkscape:stockid="Arrow1Lend">
      <path
         transform="scale(0.8) rotate(180) translate(12.5,0)"
         style="fill-rule:evenodd;stroke:#000000;stroke-width:1.0pt;"
         d="M 0.0,0.0 L 5.0,-5.0 L -12.5,0.0 L 5.0,5.0 L 0.0,0.0 z "
         id="path3762" />
    </marker>
    <marker
       style="overflow:visible"
       id="Arrow1Lstart"
       refX="0.0"
       refY="0.0"
       orient="auto"
       inkscape:stockid="Arrow1Lstart">
      <path
         transform="scale(0.8) translate(12.5,0)"
         style="fill-rule:evenodd;stroke:#000000;stroke-width:1.0pt"
         d="M 0.0,0.0 L 5.0,-5.0 L -12.5,0.0 L 5.0,5.0 L 0.0,0.0 z "
         id="path3759" />
    </marker>
  </defs>
  <metadata
     id="metadata7">
    <rdf:RDF>
      <cc:Work
         rdf:about="">
        <dc:format>image/svg+xml</dc:format>
        <dc:type
           rdf:resource="http://purl.org/dc/dcmitype/StillImage" />
        <dc:title />
      </cc:Work>
    </rdf:RDF>
  </metadata>
  <g
     id="layer1"
     inkscape:groupmode="layer"
     inkscape:label="Layer 1">
    <text
       sodipodi:linespacing="125%"
       id="text4774-2-2"
       y="235.94504"
       x="119.72311"
       style="font-size:12px;font-style:normal;font-variant:normal;font-weight:normal;font-stretch:normal;line-height:125%;letter-spacing:0px;word-spacing:0px;fill:#000000;fill-opacity:1;stroke:none;font-family:TeX Gyre Schola;-inkscape-font-specification:TeX Gyre Schola"
       xml:space="preserve"><tspan
         style="font-size:16px;font-style:italic;font-variant:normal;font-weight:normal;font-stretch:normal;font-family:TeX Gyre Schola;-inkscape-font-specification:TeX Gyre Schola Italic"
         y="235.94504"
         x="119.72311"
         id="tspan4776-6-2"
         sodipodi:role="line">x<tspan
   id="tspan3904"
   style="font-size:65.00091553%;baseline-shift:sub">1</tspan></tspan></text>
    <text
       sodipodi:linespacing="125%"
       id="text4774-2-2-8"
       y="235.94504"
       x="211.37717"
       style="font-size:12px;font-style:normal;font-variant:normal;font-weight:normal;font-stretch:normal;line-height:125%;letter-spacing:0px;word-spacing:0px;fill:#000000;fill-opacity:1;stroke:none;font-family:TeX Gyre Schola;-inkscape-font-specification:TeX Gyre Schola"
       xml:space="preserve"><tspan
         style="font-size:16px;font-style:italic;font-variant:normal;font-weight:normal;font-stretch:normal;font-family:TeX Gyre Schola;-inkscape-font-specification:TeX Gyre Schola Italic"
         y="235.94504"
         x="211.37717"
         id="tspan4776-6-2-4"
         sodipodi:role="line">x<tspan
   id="tspan3930"
   style="font-size:65.00091553%;baseline-shift:sub">2</tspan></tspan></text>
    <path
       inkscape:connector-curvature="0"
       id="path2985"
       d="m 100.58272,57.791558 0,167.074242 233.27469,0"
       style="fill:none;stroke:#000000;stroke-width:0.43017656px;stroke-linecap:butt;stroke-linejoin:miter;stroke-opacity:1;marker-start:url(#Arrow1Lstart);marker-mid:none;marker-end:url(#Arrow1Lend)" />
    <path
       sodipodi:nodetypes="cc"
       inkscape:connector-curvature="0"
       id="path4753"
       d="M 109.22145,95.161226 C 207.64405,59.648565 251.92829,259.82916 317.29482,180.98997"
       style="fill:none;stroke:#000000;stroke-width:0.82942885px;stroke-linecap:butt;stroke-linejoin:miter;stroke-opacity:1" />
    <text
       sodipodi:linespacing="125%"
       id="text4774-9"
       y="228.83142"
       x="341.36053"
       style="font-size:18px;font-style:normal;font-variant:normal;font-weight:normal;font-stretch:normal;line-height:125%;letter-spacing:0px;word-spacing:0px;fill:#000000;fill-opacity:1;stroke:none;font-family:TeX Gyre Schola;-inkscape-font-specification:TeX Gyre Schola"
       xml:space="preserve"><tspan
         style="font-size:18px;font-style:italic;-inkscape-font-specification:TeX Gyre Schola Italic"
         y="228.83142"
         x="341.36053"
         id="tspan4776-7"
         sodipodi:role="line">x</tspan></text>
    <path
       inkscape:connector-curvature="0"
       id="path4911"
       d="m 131.82491,72.009137 0,-20.708127 208.5965,0 0,107.07617"
       style="fill:#000000;stroke:#000000;stroke-width:1px;stroke-linecap:butt;stroke-linejoin:miter;stroke-opacity:1;opacity:0;fill-opacity:1" />
    <text
       sodipodi:linespacing="125%"
       id="text4774-2"
       y="52.0578"
       x="92.748505"
       style="font-size:12px;font-style:normal;font-variant:normal;font-weight:normal;font-stretch:normal;line-height:125%;letter-spacing:0px;word-spacing:0px;fill:#000000;fill-opacity:1;stroke:none;font-family:TeX Gyre Schola;-inkscape-font-specification:TeX Gyre Schola"
       xml:space="preserve"><tspan
         style="font-size:16px;font-style:italic;font-variant:normal;font-weight:normal;font-stretch:normal;font-family:TeX Gyre Schola;-inkscape-font-specification:TeX Gyre Schola Italic"
         y="52.0578"
         x="92.748505"
         id="tspan4776-6"
         sodipodi:role="line">f(x)</tspan></text>
    <path
       inkscape:connector-curvature="0"
       id="path3099"
       d="m 124.64286,90.933617 0,133.928573"
       style="fill:none;stroke:#000000;stroke-width:1;stroke-linecap:butt;stroke-linejoin:miter;stroke-opacity:1;stroke-miterlimit:4;stroke-dasharray:1,1;stroke-dashoffset:0" />
    <path
       inkscape:connector-curvature="0"
       id="path3881"
       d="m 216.07143,143.07647 0,81.07143"
       style="fill:none;stroke:#000000;stroke-width:1;stroke-linecap:butt;stroke-linejoin:miter;stroke-opacity:1;stroke-miterlimit:4;stroke-dasharray:1,1;stroke-dashoffset:0" />
    <path
       inkscape:connector-curvature="0"
       id="path3932"
       d="m 124.28276,90.930662 91.26488,52.736788"
       style="fill:none;stroke:#ff0000;stroke-width:0.99409068px;stroke-linecap:butt;stroke-linejoin:miter;stroke-opacity:1" />
    <path
       transform="matrix(0.83367479,0,0,0.91704229,-25.965644,-92.809117)"
       d="m 182.50001,200.93361 a 1.9642857,1.7857143 0 1 1 -3.92857,0 1.9642857,1.7857143 0 1 1 3.92857,0 z"
       sodipodi:ry="1.7857143"
       sodipodi:rx="1.9642857"
       sodipodi:cy="200.93361"
       sodipodi:cx="180.53572"
       id="path3009"
       style="fill:#000000;fill-opacity:1;fill-rule:nonzero;stroke:#000000;stroke-width:0.829;stroke-linecap:butt;stroke-miterlimit:4;stroke-opacity:1;stroke-dasharray:none;stroke-dashoffset:0"
       sodipodi:type="arc" />
    <path
       inkscape:connector-curvature="0"
       id="path3955"
       d="m 284.1054,199.5409 0,25.00128"
       style="fill:none;stroke:#000000;stroke-width:1;stroke-linecap:butt;stroke-linejoin:miter;stroke-opacity:1;stroke-miterlimit:4;stroke-dasharray:1,1;stroke-dashoffset:0" />
    <text
       sodipodi:linespacing="125%"
       id="text4774-2-2-8-3"
       y="235.78903"
       x="279.74808"
       style="font-size:12px;font-style:normal;font-variant:normal;font-weight:normal;font-stretch:normal;line-height:125%;letter-spacing:0px;word-spacing:0px;fill:#000000;fill-opacity:1;stroke:none;font-family:TeX Gyre Schola;-inkscape-font-specification:TeX Gyre Schola"
       xml:space="preserve"><tspan
         style="font-size:16px;font-style:italic;font-variant:normal;font-weight:normal;font-stretch:normal;font-family:TeX Gyre Schola;-inkscape-font-specification:TeX Gyre Schola Italic"
         y="235.78903"
         x="279.74808"
         id="tspan4776-6-2-4-4"
         sodipodi:role="line">x<tspan
   id="tspan3999"
   style="font-size:65.00091553%;baseline-shift:sub">3</tspan></tspan></text>
    <path
       inkscape:connector-curvature="0"
       id="path4001"
       d="m 216.25,143.96933 67.85714,55.71429"
       style="fill:none;stroke:#00b900;stroke-width:1px;stroke-linecap:butt;stroke-linejoin:miter;stroke-opacity:1" />
    <path
       transform="matrix(0.83367479,0,0,0.91704229,65.664564,-40.534643)"
       d="m 182.50001,200.93361 a 1.9642857,1.7857143 0 1 1 -3.92857,0 1.9642857,1.7857143 0 1 1 3.92857,0 z"
       sodipodi:ry="1.7857143"
       sodipodi:rx="1.9642857"
       sodipodi:cy="200.93361"
       sodipodi:cx="180.53572"
       id="path3009-0"
       style="fill:#000000;fill-opacity:1;fill-rule:nonzero;stroke:#000000;stroke-width:0.829;stroke-linecap:butt;stroke-miterlimit:4;stroke-opacity:1;stroke-dasharray:none;stroke-dashoffset:0"
       sodipodi:type="arc" />
    <path
       transform="matrix(0.83367479,0,0,0.91704229,133.84986,15.023747)"
       d="m 182.50001,200.93361 a 1.9642857,1.7857143 0 1 1 -3.92857,0 1.9642857,1.7857143 0 1 1 3.92857,0 z"
       sodipodi:ry="1.7857143"
       sodipodi:rx="1.9642857"
       sodipodi:cy="200.93361"
       sodipodi:cx="180.53572"
       id="path3009-0-0"
       style="fill:#000000;fill-opacity:1;fill-rule:nonzero;stroke:#000000;stroke-width:0.829;stroke-linecap:butt;stroke-miterlimit:4;stroke-opacity:1;stroke-dasharray:none;stroke-dashoffset:0"
       sodipodi:type="arc" />
    <text
       sodipodi:linespacing="125%"
       id="text4774-2-3"
       y="82.34848"
       x="103.36596"
       style="font-size:12px;font-style:normal;font-variant:normal;font-weight:normal;font-stretch:normal;line-height:125%;letter-spacing:0px;word-spacing:0px;fill:#ff0000;fill-opacity:1;stroke:none;font-family:TeX Gyre Schola;-inkscape-font-specification:TeX Gyre Schola"
       xml:space="preserve"><tspan
         style="font-size:10px;font-style:italic;font-variant:normal;font-weight:normal;font-stretch:normal;fill:#ff0000;font-family:TeX Gyre Schola;-inkscape-font-specification:TeX Gyre Schola Italic"
         y="82.34848"
         x="103.36596"
         sodipodi:role="line"
         id="tspan4786">f(αx<tspan
   style="font-size:65%;baseline-shift:sub"
   id="tspan5819">1</tspan>+βx<tspan
   style="font-size:65%;baseline-shift:sub"
   id="tspan5823">2</tspan>) &gt; αf(x<tspan
   style="font-size:65%;baseline-shift:sub"
   id="tspan5827">1</tspan>)+βf(x<tspan
   style="font-size:65%;baseline-shift:sub"
   id="tspan5831">2</tspan>)  </tspan></text>
    <g
       id="g3048">
      <g
         text-anchor="start"
         word-spacing="normal"
         letter-spacing="normal"
         font-size-adjust="none"
         font-stretch="normal"
         font-weight="normal"
         font-variant="normal"
         font-style="normal"
         fill-opacity="1"
         fill-rule="evenodd"
         fill="none"
         stroke-opacity="1"
         stroke-dashoffset="0"
         stroke-dasharray="none"
         stroke-miterlimit="10.433"
         stroke-linejoin="miter"
         stroke-linecap="butt"
         stroke="black"
         xml:space="preserve"
         transform="matrix(1.06299212599,0,0,-1.06299212599,-186.023622047,789.271653525)"
         id="content"><path
           id="path3051"
           fill="black"
           stroke-width="0"
           d="M474.72,425.98 H480.35 C478.71,418.6,478.25,416.46,478.25,413.13 C478.25,412.38,478.25,411.04,478.66,409.34 C479.16,407.15,479.71,406.85,480.46,406.85 C481.44,406.85,482.49,407.74,482.49,408.74 C482.49,409.04,482.49,409.15,482.19,409.84 C480.75,413.43,480.75,416.66,480.75,418.05 C480.75,420.7,481.1,423.4,481.64,425.98 H487.33 C487.97,425.98,489.77,425.98,489.77,427.68 C489.77,428.87,488.72,428.87,487.77,428.87 H471.08 C469.99,428.87,468.1,428.87,465.91,426.52 C464.16,424.59,462.86,422.29,462.86,422.04 C462.86,421.99,462.86,421.55,463.46,421.55 C463.86,421.55,463.96,421.74,464.25,422.15 C466.71,425.98,469.6,425.98,470.58,425.98 H473.43 C471.83,419.96,469.14,413.93,467.05,409.4 C466.64,408.65,466.64,408.54,466.64,408.2 C466.64,407.24,467.44,406.85,468.1,406.85 C469.6,406.85,469.99,408.24,470.58,410.09 C471.29,412.38,471.29,412.48,471.93,414.98 Z " /><path
           id="path3053"
           fill="black"
           stroke-width="0"
           d="M509.36,431.86 H508.17 C508.07,431.1,507.71,429.04,507.26,428.69 C507,428.49,504.31,428.49,503.82,428.49 H497.4 C501.06,431.72,502.28,432.69,504.37,434.33 C506.95,436.39,509.36,438.55,509.36,441.86 C509.36,446.08,505.67,448.66,501.2,448.66 C496.89,448.66,493.95,445.63,493.95,442.43 C493.95,440.64,495.45,440.47,495.81,440.47 C496.64,440.47,497.65,441.07,497.65,442.32 C497.65,442.94,497.4,444.16,495.59,444.16 C496.67,446.63,499.04,447.39,500.68,447.39 C504.17,447.39,505.98,444.69,505.98,441.86 C505.98,438.83,503.82,436.43,502.7,435.18 L494.31,426.88 C493.95,426.57,493.95,426.49,493.95,425.52 H508.31 Z " /><polyline
           id="polyline3055"
           fill-rule="nonzero"
           fill="black"
           stroke-width="0"
           points="462,385 514.56,385 514.56,387.04 462,387.04 " /><path
           id="path3057"
           fill="black"
           stroke-width="0"
           d="M481.9,355.95 V357.13 C481.9,369.74,488.07,371.54,490.62,371.54 C491.8,371.54,493.9,371.24,494.99,369.54 C494.26,369.54,492.26,369.54,492.26,367.3 C492.26,365.76,493.46,365.01,494.55,365.01 C495.35,365.01,496.84,365.46,496.84,367.4 C496.84,370.4,494.65,372.79,490.52,372.79 C484.13,372.79,477.41,366.35,477.41,355.35 C477.41,342.04,483.2,338.51,487.82,338.51 C493.35,338.51,498.09,343.2,498.09,349.76 C498.09,356.09,493.65,360.88,488.12,360.88 L488.07,359.73 C488.87,359.73,491.16,359.73,492.71,356.63 C493.6,354.8,493.6,352.26,493.6,349.82 C493.6,347.43,493.6,344.93,492.76,343.13 C491.26,340.15,488.98,339.9,487.82,339.9 H487.82 C484.68,339.9,483.2,342.88,482.9,343.63 C481.99,345.98,481.99,349.96,481.99,350.87 C481.99,354.74,483.59,359.73,488.07,359.73 L488.12,360.88 C484.74,360.88,482.9,358.34,481.9,355.95 Z " /><path
           id="path3059"
           fill="black"
           stroke-width="0"
           d="M568.11,389.98 L568.25,389.98 L568.4,389.98 L568.54,389.98 L568.61,389.99 L568.69,389.99 L568.76,390 L568.83,390.01 L568.9,390.02 L568.97,390.03 L569.04,390.04 L569.1,390.06 L569.17,390.08 L569.23,390.1 L569.29,390.12 L569.35,390.15 L569.41,390.18 L569.46,390.22 L569.51,390.26 L569.56,390.3 L569.6,390.34 L569.64,390.39 L569.66,390.42 L569.68,390.45 L569.69,390.47 L569.71,390.5 L569.72,390.54 L569.74,390.57 L569.75,390.6 L569.76,390.64 L569.77,390.67 L569.78,390.71 L569.78,390.75 L569.79,390.79 L569.79,390.83 L569.8,390.87 L569.8,390.92 L569.8,390.96 C569.8,391.96,568.85,391.96,568.16,391.96 H538.32 C537.61,391.96,536.68,391.96,536.68,390.96 C536.68,389.98,537.61,389.98,538.36,389.98 Z " /><path
           id="path3061"
           fill="black"
           stroke-width="0"
           d="M568.16,380.3 L568.23,380.31 L568.29,380.31 L568.43,380.31 L568.57,380.31 L568.64,380.32 L568.71,380.32 L568.78,380.33 L568.85,380.34 L568.91,380.35 L568.98,380.36 L569.05,380.37 L569.11,380.39 L569.18,380.41 L569.24,380.43 L569.3,380.45 L569.36,380.48 L569.41,380.51 L569.46,380.55 L569.51,380.59 L569.56,380.63 L569.6,380.68 L569.62,380.7 L569.64,380.73 L569.66,380.75 L569.68,380.78 L569.69,380.81 L569.71,380.84 L569.72,380.87 L569.74,380.91 L569.75,380.94 L569.76,380.97 L569.77,381.01 L569.78,381.05 L569.78,381.09 L569.79,381.13 L569.79,381.17 L569.8,381.21 L569.8,381.26 L569.8,381.3 C569.8,382.3,568.85,382.3,568.11,382.3 H538.36 C537.61,382.3,536.68,382.3,536.68,381.3 C536.68,380.3,537.61,380.3,538.32,380.3 Z " /><path
           id="path3063"
           fill="black"
           stroke-width="0"
           d="M612.65,408.26 L605.48,407.71 V406.16 C608.96,406.16,609.37,405.82,609.37,403.37 V377.46 C609.37,375.23,608.82,375.23,605.48,375.23 V373.68 C607.12,373.73,609.76,373.84,611.01,373.84 C612.26,373.84,614.7,373.73,616.54,373.68 V375.23 C613.2,375.23,612.65,375.23,612.65,377.46 Z " /><path
           id="path3065"
           fill="black"
           stroke-width="0"
           d="M626.45,395.7 L619.48,395.15 V393.6 C622.71,393.6,623.16,393.3,623.16,390.87 V377.46 C623.16,375.23,622.62,375.23,619.27,375.23 V373.68 C620.87,373.73,623.55,373.84,624.76,373.84 C626.51,373.84,628.24,373.73,629.95,373.68 V375.23 C626.65,375.23,626.45,375.48,626.45,377.41 Z " /><path
           id="path3067"
           fill="black"
           stroke-width="0"
           d="M626.65,404.37 L626.64,404.51 L626.63,404.66 L626.62,404.8 L626.59,404.94 L626.56,405.07 L626.52,405.2 L626.48,405.33 L626.43,405.45 L626.38,405.57 L626.32,405.69 L626.25,405.8 L626.18,405.9 L626.1,406.01 L626.02,406.1 L625.94,406.2 L625.85,406.29 L625.76,406.37 L625.66,406.45 L625.56,406.52 L625.45,406.59 L625.35,406.66 L625.24,406.72 L625.12,406.77 L625.01,406.82 L624.89,406.86 L624.77,406.9 L624.65,406.93 L624.52,406.96 L624.39,406.98 L624.27,407 L624.14,407 L624.01,407.01 C622.46,407.01,621.37,405.66,621.37,404.37 C621.37,403.02,622.46,401.73,624.01,401.73 C625.4,401.73,626.65,402.77,626.65,404.37 Z " /><path
           id="path3069"
           fill="black"
           stroke-width="0"
           d="M636.91,390.82 V377.46 C636.91,375.23,636.37,375.23,633.02,375.23 V373.68 C634.77,373.73,637.3,373.84,638.65,373.84 C639.95,373.84,642.54,373.73,644.23,373.68 V375.23 C640.9,375.23,640.35,375.23,640.35,377.46 V386.63 C640.35,391.82,643.88,394.6,647.07,394.6 C650.21,394.6,650.76,391.91,650.76,389.07 V377.46 C650.76,375.23,650.21,375.23,646.87,375.23 V373.68 C648.62,373.73,651.16,373.84,652.51,373.84 C653.8,373.84,656.38,373.73,658.09,373.68 V375.23 C654.74,375.23,654.2,375.23,654.2,377.46 V386.63 C654.2,391.82,657.74,394.6,660.93,394.6 C664.07,394.6,664.62,391.91,664.62,389.07 V377.46 C664.62,375.23,664.07,375.23,660.73,375.23 V373.68 C662.46,373.73,665.01,373.84,666.35,373.84 C667.65,373.84,670.24,373.73,671.93,373.68 V375.23 C669.35,375.23,668.1,375.23,668.05,376.73 V386.24 C668.05,390.52,668.05,392.07,666.51,393.85 C665.8,394.71,664.16,395.7,661.27,395.7 C657.09,395.7,654.9,392.71,654.05,390.82 C653.35,395.15,649.66,395.7,647.43,395.7 C643.79,395.7,641.45,393.55,640.05,390.48 V395.7 L633.02,395.15 V393.6 C636.51,393.6,636.91,393.26,636.91,390.82 Z " /><path
           id="path3071"
           fill="black"
           stroke-width="0"
           d="M590.69,345.99 L590.68,345.95 L590.66,345.9 L590.65,345.85 L590.64,345.81 L590.62,345.76 L590.61,345.7 L590.59,345.65 L590.58,345.6 L590.55,345.49 L590.52,345.38 L590.49,345.26 L590.47,345.15 L590.45,345.1 L590.44,345.05 L590.43,345 L590.42,344.95 L590.41,344.9 L590.4,344.86 L590.39,344.81 L590.38,344.77 L590.37,344.74 L590.37,344.7 L590.36,344.67 L590.36,344.64 L590.35,344.62 L590.35,344.6 L590.35,344.59 L590.35,344.58 L590.35,344.57 L590.35,344.57 C590.35,343.8,590.97,343.46,591.53,343.46 C592.16,343.46,592.71,343.91,592.9,344.22 C593.07,344.54,593.35,345.64,593.52,346.38 C593.69,347.04,594.07,348.64,594.28,349.52 C594.49,350.29,594.71,351.05,594.88,351.85 C595.25,353.29,595.33,353.55,596.33,354.99 C597.32,356.38,598.96,358.19,601.57,358.19 C603.58,358.19,603.61,356.41,603.61,355.75 C603.61,353.66,602.13,349.8,601.57,348.33 C601.18,347.35,601.03,347.04,601.03,346.44 C601.03,344.6,602.58,343.46,604.35,343.46 C607.83,343.46,609.36,348.25,609.36,348.79 C609.36,349.24,608.91,349.24,608.82,349.24 C608.32,349.24,608.28,349.04,608.15,348.64 C607.35,345.86,605.85,344.43,604.46,344.43 C603.72,344.43,603.58,344.91,603.58,345.64 C603.58,346.44,603.75,346.89,604.38,348.47 C604.8,349.55,606.24,353.24,606.24,355.19 C606.24,358.58,603.55,359.16,601.71,359.16 C598.82,359.16,596.86,357.39,595.82,356 C595.57,358.39,593.52,359.16,592.08,359.16 C590.58,359.16,589.78,358.08,589.33,357.29 C588.57,356,588.08,354,588.08,353.83 C588.08,353.38,588.57,353.38,588.68,353.38 C589.16,353.38,589.19,353.49,589.44,354.43 C589.96,356.49,590.63,358.19,591.99,358.19 C592.9,358.19,593.13,357.43,593.13,356.49 C593.13,355.82,592.82,354.54,592.57,353.6 C592.33,352.64,591.99,351.22,591.8,350.46 Z " /><path
           id="path3073"
           fill="black"
           stroke-width="0"
           d="M643.1,351.68 L642.7,351.37 L642.32,351.06 L641.96,350.74 L641.63,350.42 L641.31,350.1 L641.01,349.77 L640.73,349.44 L640.47,349.11 L640.23,348.78 L640,348.45 L639.79,348.13 L639.6,347.81 L639.42,347.49 L639.25,347.18 L639.1,346.88 L638.96,346.59 L638.84,346.3 L638.73,346.03 L638.63,345.76 L638.54,345.51 L638.46,345.27 L638.39,345.05 L638.33,344.84 L638.28,344.65 L638.24,344.48 L638.2,344.33 L638.17,344.19 L638.15,344.08 L638.14,343.99 L638.12,343.92 L638.12,343.88 L638.12,343.86 C638.12,343.35,638.46,343.35,638.95,343.35 C639.57,343.35,639.68,343.35,639.85,343.94 C640.07,344.82,640.62,347.04,642.43,348.96 C644.46,351.08,646.2,351.61,647.66,352.07 C647.87,352.13,648.01,352.33,648.01,352.52 C648.01,352.86,647.8,352.93,647.35,353.07 C642.34,354.68,640.55,358.22,639.82,361.29 C639.68,361.71,639.43,361.71,638.95,361.71 C638.46,361.71,638.12,361.71,638.12,361.19 C638.12,361.11,638.46,358.79,640.16,356.38 C640.98,355.19,641.95,354.22,643.1,353.38 H615.12 C614.55,353.38,613.73,353.38,613.73,352.55 C613.73,351.68,614.52,351.68,615.12,351.68 Z " /><path
           id="path3075"
           fill="black"
           stroke-width="0"
           d="M670.9,353.35 L670.73,353.55 L670.57,353.73 L670.41,353.91 L670.26,354.09 L670.12,354.25 L669.98,354.41 L669.85,354.56 L669.72,354.7 L669.6,354.84 L669.48,354.97 L669.37,355.1 L669.26,355.21 L669.15,355.33 L669.04,355.44 L668.94,355.55 L668.84,355.65 L668.64,355.84 L668.44,356.03 L668.25,356.2 L668.05,356.37 L667.84,356.53 L667.63,356.7 L667.52,356.78 L667.4,356.86 L667.29,356.95 L667.16,357.04 C665.04,358.58,662.82,359.16,660.9,359.16 C656.57,359.16,653.45,355.47,653.45,351.29 H654.41 C654.41,354.64,657.13,357.25,660.34,357.25 C663.59,357.25,665.8,354.6,669.15,350.57 H669.15 C667.76,348.3,664.73,344.77,660.48,344.77 C656.88,344.77,654.41,347.94,654.41,351.29 H653.45 C653.45,347.22,656.43,343.46,660.79,343.46 C665.63,343.46,669.02,347.43,670.27,349.27 C672.12,347.11,672.68,346.52,673.99,345.58 C676.12,344.05,678.35,343.46,680.27,343.46 C684.59,343.46,687.73,347.14,687.73,351.33 H686.76 C686.76,347.99,684.04,345.36,680.84,345.36 C677.59,345.36,675.35,348.02,672.01,352.07 H672.01 C673.41,354.32,676.45,357.85,680.7,357.85 C684.27,357.85,686.76,354.68,686.76,351.33 H687.73 C687.73,355.41,684.73,359.16,680.38,359.16 C675.54,359.16,672.15,355.19,670.9,353.35 Z " /><path
           id="path3077"
           fill="black"
           stroke-width="0"
           d="M727.01,438.15 L727,438.11 L726.98,438.06 L726.97,438.01 L726.96,437.97 L726.94,437.92 L726.93,437.86 L726.91,437.81 L726.9,437.76 L726.87,437.65 L726.84,437.54 L726.81,437.42 L726.79,437.31 L726.77,437.26 L726.76,437.21 L726.75,437.16 L726.74,437.11 L726.73,437.06 L726.72,437.02 L726.71,436.97 L726.7,436.93 L726.69,436.9 L726.69,436.86 L726.68,436.83 L726.68,436.8 L726.67,436.78 L726.67,436.76 L726.67,436.75 L726.67,436.74 L726.67,436.73 L726.67,436.73 C726.67,435.96,727.29,435.62,727.85,435.62 C728.48,435.62,729.03,436.07,729.22,436.38 C729.39,436.7,729.67,437.8,729.84,438.54 C730.01,439.2,730.39,440.8,730.6,441.68 C730.81,442.45,731.03,443.21,731.2,444.01 C731.57,445.45,731.65,445.71,732.65,447.15 C733.64,448.54,735.28,450.35,737.89,450.35 C739.9,450.35,739.93,448.57,739.93,447.91 C739.93,445.82,738.45,441.96,737.89,440.49 C737.5,439.51,737.35,439.2,737.35,438.6 C737.35,436.76,738.9,435.62,740.67,435.62 C744.15,435.62,745.68,440.41,745.68,440.95 C745.68,441.4,745.23,441.4,745.14,441.4 C744.64,441.4,744.6,441.2,744.47,440.8 C743.67,438.02,742.17,436.59,740.78,436.59 C740.04,436.59,739.9,437.07,739.9,437.8 C739.9,438.6,740.07,439.05,740.7,440.63 C741.12,441.71,742.56,445.4,742.56,447.35 C742.56,450.74,739.87,451.32,738.03,451.32 C735.14,451.32,733.18,449.55,732.14,448.16 C731.89,450.55,729.84,451.32,728.4,451.32 C726.9,451.32,726.1,450.24,725.65,449.45 C724.89,448.16,724.4,446.16,724.4,445.99 C724.4,445.54,724.89,445.54,725,445.54 C725.48,445.54,725.51,445.65,725.76,446.59 C726.28,448.65,726.95,450.35,728.31,450.35 C729.22,450.35,729.45,449.59,729.45,448.65 C729.45,447.98,729.14,446.7,728.89,445.76 C728.65,444.8,728.31,443.38,728.12,442.62 Z " /><path
           id="path3079"
           fill="black"
           stroke-width="0"
           d="M762.2,351.33 L768.23,367.27 H766.98 C765.03,362.09,759.75,358.7,754.03,357.2 C752.98,356.95,748.09,355.66,738.53,355.66 H708.48 L733.84,385.41 C734.2,385.8,734.29,385.95,734.29,386.2 C734.29,386.3,734.29,386.45,733.95,386.95 L710.73,418.69 H738.03 C744.72,418.69,749.25,417.98,749.68,417.89 C752.39,417.48,756.72,416.64,760.65,414.16 C761.9,413.36,765.28,411.11,766.98,407.08 H768.23 L762.2,421.08 H703.31 C702.17,421.08,702.1,421.03,701.97,420.73 C701.92,420.58,701.92,419.64,701.92,419.08 L728.26,383.02 L702.47,352.77 C701.97,352.17,701.97,351.92,701.97,351.88 C701.97,351.33,702.4,351.33,703.31,351.33 Z " /><path
           id="path3081"
           fill="black"
           stroke-width="0"
           d="M709.67,336.94 L709.67,336.94 L709.67,336.95 L709.67,336.95 L709.67,336.96 L709.68,336.96 L709.68,336.97 L709.68,336.97 L709.68,336.98 L709.69,336.99 L709.69,337 L709.69,337.01 L709.7,337.03 L709.7,337.05 L709.71,337.07 L709.71,337.09 L709.72,337.11 L709.73,337.13 L709.73,337.16 L709.74,337.18 L709.75,337.23 L709.76,337.27 L709.77,337.3 L709.77,337.32 L709.78,337.34 L709.78,337.36 L709.79,337.38 L709.79,337.4 L709.8,337.42 L709.8,337.43 L709.8,337.44 L709.8,337.45 L709.8,337.45 L709.8,337.46 L709.81,337.46 L709.81,337.47 L709.81,337.47 L709.81,337.48 L709.81,337.48 L709.81,337.48 L709.81,337.49 L709.81,337.49 C709.81,337.68,709.67,337.99,709.25,337.99 C708.56,337.99,705.67,337.71,704.79,337.63 C704.51,337.6,704.03,337.57,704.03,336.83 C704.03,336.35,704.51,336.35,704.93,336.35 C706.6,336.35,706.6,336.1,706.6,335.82 C706.6,335.58,706.53,335.36,706.47,335.05 L701.54,315.33 C701.37,314.71,701.37,314.64,701.37,314.57 C701.37,314.05,701.79,313.46,702.56,313.46 C703.5,313.46,703.95,314.14,704.17,314.91 C704.23,315.05,705.73,321.19,705.87,321.68 C708.34,321.43,710.32,320.63,710.32,318.82 C710.32,318.64,710.32,318.47,710.26,318.13 C710.12,317.6,710.12,317.43,710.12,317.04 C710.12,314.57,712.14,313.46,713.81,313.46 C717.2,313.46,718.25,318.75,718.25,318.79 C718.25,319.24,717.79,319.24,717.68,319.24 C717.2,319.24,717.15,319.07,716.98,318.39 C716.57,316.89,715.62,314.43,713.92,314.43 C712.98,314.43,712.7,315.3,712.7,316.24 C712.7,316.83,712.7,316.89,712.9,317.8 C712.95,317.91,713.09,318.5,713.09,318.89 C713.09,321.99,708.9,322.47,707.43,322.58 C708.45,323.21,709.73,324.36,710.32,324.88 C712.1,326.55,713.85,328.19,715.79,328.19 C716.22,328.19,716.67,328.08,716.95,327.74 C715.45,327.49,715.14,326.32,715.14,325.79 C715.14,325.02,715.73,324.5,716.53,324.5 C717.48,324.5,718.51,325.27,718.51,326.72 C718.51,327.88,717.68,329.16,715.84,329.16 C713.85,329.16,712.04,327.74,710.26,326.1 C708.79,324.71,707.65,323.63,706.22,323.04 Z " /><path
           id="path3083"
           fill="black"
           stroke-width="0"
           d="M747.48,325.5 L747.53,325.5 L747.58,325.5 L747.64,325.5 L747.69,325.51 L747.8,325.51 L747.85,325.51 L747.91,325.52 L747.96,325.52 L748.02,325.53 L748.07,325.54 L748.13,325.55 L748.18,325.56 L748.23,325.58 L748.28,325.59 L748.33,325.61 L748.38,325.64 L748.43,325.66 L748.47,325.69 L748.52,325.72 L748.56,325.75 L748.6,325.79 L748.63,325.83 L748.65,325.85 L748.66,325.87 L748.68,325.9 L748.69,325.92 L748.71,325.95 L748.72,325.97 L748.73,326 L748.74,326.03 L748.75,326.06 L748.76,326.09 L748.77,326.12 L748.78,326.16 L748.78,326.19 L748.79,326.22 L748.79,326.26 L748.79,326.3 L748.8,326.34 L748.8,326.38 C748.8,327.22,747.97,327.22,747.52,327.22 H724.45 C724,327.22,723.16,327.22,723.16,326.38 C723.16,325.5,723.95,325.5,724.48,325.5 Z " /><path
           id="path3085"
           fill="black"
           stroke-width="0"
           d="M747.52,317.85 L747.56,317.85 L747.61,317.85 L747.65,317.85 L747.7,317.85 L747.75,317.85 L747.8,317.85 L747.85,317.86 L747.91,317.86 L747.96,317.87 L748.01,317.87 L748.07,317.88 L748.12,317.89 L748.17,317.9 L748.23,317.92 L748.28,317.93 L748.33,317.95 L748.38,317.97 L748.42,318 L748.47,318.02 L748.51,318.05 L748.55,318.08 L748.59,318.12 L748.63,318.16 L748.64,318.18 L748.66,318.2 L748.68,318.22 L748.69,318.24 L748.7,318.27 L748.72,318.29 L748.73,318.32 L748.74,318.35 L748.75,318.37 L748.76,318.4 L748.77,318.43 L748.78,318.46 L748.78,318.5 L748.79,318.53 L748.79,318.56 L748.79,318.6 L748.8,318.64 L748.8,318.68 C748.8,319.55,748,319.55,747.48,319.55 H724.48 C723.95,319.55,723.16,319.55,723.16,318.68 C723.16,317.85,724,317.85,724.45,317.85 Z " /><path
           id="path3087"
           fill="black"
           stroke-width="0"
           d="M762.99,335.96 L762.99,336 L762.99,336.04 L762.99,336.09 L762.99,336.13 L762.99,336.16 L762.99,336.2 L762.98,336.24 L762.98,336.27 L762.98,336.31 L762.98,336.34 L762.98,336.37 L762.98,336.4 L762.97,336.43 L762.97,336.46 L762.97,336.49 L762.96,336.51 L762.96,336.54 L762.95,336.56 L762.95,336.59 L762.94,336.61 L762.93,336.65 L762.92,336.69 L762.9,336.72 L762.88,336.75 L762.86,336.78 L762.83,336.81 L762.81,336.83 L762.78,336.85 L762.74,336.87 L762.71,336.88 L762.66,336.89 L762.62,336.9 L762.6,336.91 L762.57,336.91 L762.55,336.92 L762.52,336.92 L762.49,336.92 L762.46,336.93 L762.43,336.93 L762.4,336.93 L762.37,336.93 L762.34,336.94 L762.3,336.94 L762.27,336.94 L762.23,336.94 L762.19,336.94 L762.16,336.94 L762.12,336.94 L762.07,336.94 L762.03,336.94 L761.99,336.94 L761.94,336.94 C759.71,334.74,756.55,334.71,755.11,334.71 V333.46 C755.96,333.46,758.25,333.46,760.16,334.43 V316.66 C760.16,315.5,760.16,315.05,756.68,315.05 H755.36 V313.8 C755.99,313.83,760.27,313.94,761.57,313.94 C762.65,313.94,767.03,313.83,767.8,313.8 V315.05 H766.47 C762.99,315.05,762.99,315.5,762.99,316.66 Z " /><path
           id="path3089"
           fill="black"
           stroke-width="0"
           d="M812.64,439.29 L812.64,439.34 L812.64,439.4 L812.64,439.45 L812.64,439.5 L812.64,439.55 L812.64,439.6 L812.64,439.64 L812.64,439.69 L812.64,439.73 L812.64,439.77 L812.64,439.81 L812.63,439.85 L812.63,439.89 L812.63,439.92 L812.63,439.96 L812.62,439.99 L812.62,440.06 L812.61,440.12 L812.59,440.17 L812.58,440.22 L812.56,440.27 L812.55,440.31 L812.52,440.35 L812.5,440.38 L812.47,440.41 L812.44,440.44 L812.4,440.47 L812.36,440.49 L812.32,440.51 L812.29,440.52 L812.27,440.52 L812.24,440.53 L812.22,440.54 L812.19,440.54 L812.16,440.55 L812.13,440.56 L812.1,440.56 L812.06,440.56 L812.03,440.57 L811.99,440.57 L811.96,440.57 L811.92,440.58 L811.88,440.58 L811.83,440.58 L811.79,440.58 L811.75,440.58 L811.7,440.58 L811.65,440.59 L811.6,440.59 L811.55,440.59 L811.5,440.59 C808.41,437.4,804.03,437.4,802.44,437.4 V435.85 C803.44,435.85,806.38,435.85,808.95,437.15 V411.34 C808.95,409.54,808.81,408.95,804.33,408.95 H802.73 V407.4 C804.48,407.55,808.81,407.55,810.8,407.55 C812.8,407.55,817.12,407.55,818.88,407.4 V408.95 H817.28 C812.8,408.95,812.64,409.49,812.64,411.34 Z " /><polyline
           id="polyline3091"
           fill-rule="nonzero"
           fill="black"
           stroke-width="0"
           points="786,385 835.92,385 835.92,387.04 786,387.04 " /><path
           id="path3093"
           fill="black"
           stroke-width="0"
           d="M799.82,373.63 L799.82,373.64 L799.82,373.64 L799.82,373.65 L799.82,373.66 L799.81,373.67 L799.81,373.68 L799.81,373.7 L799.81,373.72 L799.81,373.74 L799.8,373.76 L799.8,373.78 L799.79,373.8 L799.78,373.83 L799.77,373.85 L799.76,373.87 L799.75,373.9 L799.74,373.92 L799.72,373.95 L799.7,373.97 L799.68,374 L799.66,374.02 L799.65,374.03 L799.64,374.04 L799.62,374.05 L799.61,374.06 L799.59,374.07 L799.58,374.08 L799.56,374.09 L799.55,374.1 L799.53,374.11 L799.51,374.12 L799.49,374.13 L799.47,374.13 L799.45,374.14 L799.43,374.15 L799.41,374.15 L799.39,374.16 L799.36,374.16 L799.34,374.17 L799.31,374.17 L799.29,374.17 L799.26,374.18 L799.23,374.18 L799.21,374.18 L799.18,374.18 C798.02,374.18,794.4,373.77,793.1,373.68 C792.69,373.63,792.15,373.59,792.15,372.68 C792.15,372.09,792.6,372.09,793.35,372.09 C795.74,372.09,795.83,371.74,795.83,371.24 L795.68,370.24 L788.46,341.54 C788.25,340.85,788.25,340.74,788.25,340.45 C788.25,339.3,789.25,339.05,789.71,339.05 C790.35,339.05,791.1,339.51,791.4,340.1 C791.65,340.55,793.9,349.76,794.19,351.01 C795.88,350.87,799.97,350.07,799.97,346.77 C799.97,346.43,799.97,346.23,799.82,345.73 C799.72,345.13,799.61,344.54,799.61,343.99 C799.61,341.04,801.61,339.05,804.21,339.05 C805.69,339.05,807.03,339.85,808.15,341.7 C809.38,343.88,809.93,346.63,809.93,346.73 C809.93,347.23,809.49,347.23,809.33,347.23 C808.83,347.23,808.78,347.02,808.63,346.32 C807.65,342.7,806.49,340.15,804.3,340.15 C803.36,340.15,802.71,340.7,802.71,342.49 C802.71,343.34,802.91,344.48,803.11,345.27 C803.3,346.13,803.3,346.32,803.3,346.82 C803.3,350.07,800.16,351.51,795.93,352.05 C797.47,352.96,799.07,354.55,800.22,355.74 C802.61,358.38,804.9,360.52,807.35,360.52 C807.65,360.52,807.69,360.52,807.78,360.48 C808.4,360.38,808.44,360.38,808.83,360.09 C808.94,360.02,808.94,359.98,809.03,359.88 C806.65,359.73,806.19,357.79,806.19,357.2 C806.19,356.4,806.74,355.45,808.08,355.45 C809.38,355.45,810.83,356.54,810.83,358.48 C810.83,359.98,809.68,361.62,807.44,361.62 C806.05,361.62,803.75,361.23,800.16,357.24 C798.47,355.35,796.53,353.35,794.65,352.6 Z " /><path
           id="path3095"
           fill="black"
           stroke-width="0"
           d="M830.59,360.34 H829.41 C829.31,359.58,828.95,357.52,828.5,357.17 C828.23,356.97,825.55,356.97,825.06,356.97 H818.64 C822.3,360.2,823.52,361.17,825.61,362.81 C828.19,364.88,830.59,367.03,830.59,370.34 C830.59,374.56,826.91,377.14,822.44,377.14 C818.12,377.14,815.19,374.11,815.19,370.91 C815.19,369.12,816.69,368.95,817.05,368.95 C817.88,368.95,818.89,369.55,818.89,370.8 C818.89,371.42,818.64,372.64,816.83,372.64 C817.91,375.11,820.28,375.88,821.92,375.88 C825.41,375.88,827.22,373.17,827.22,370.34 C827.22,367.31,825.06,364.91,823.94,363.66 L815.55,355.36 C815.19,355.05,815.19,354.97,815.19,354 H829.55 Z " /></g>    </g>
    <g
       id="g3217">
      <g
         id="g3219"
         transform="matrix(1.06299212599,0,0,-1.06299212599,-186.023622047,789.271653525)"
         xml:space="preserve"
         stroke="black"
         stroke-linecap="butt"
         stroke-linejoin="miter"
         stroke-miterlimit="10.433"
         stroke-dasharray="none"
         stroke-dashoffset="0"
         stroke-opacity="1"
         fill="none"
         fill-rule="evenodd"
         fill-opacity="1"
         font-style="normal"
         font-variant="normal"
         font-weight="normal"
         font-stretch="normal"
         font-size-adjust="none"
         letter-spacing="normal"
         word-spacing="normal"
         text-anchor="start"><path
           d="M473.8,426.12 H478.08 C479.08,426.12,479.58,426.12,479.58,427.12 C479.58,427.67,479.08,427.67,478.24,427.67 H474.1 L475.14,433.36 C475.35,434.4,476.05,437.93,476.35,438.53 C476.8,439.48,477.64,440.23,478.69,440.23 C478.88,440.23,480.18,440.23,481.13,439.32 C478.94,439.14,478.44,437.39,478.44,436.64 C478.44,435.5,479.33,434.9,480.29,434.9 C481.58,434.9,483.02,436,483.02,437.89 C483.02,440.18,480.72,441.32,478.69,441.32 C476.99,441.32,473.85,440.43,472.36,435.5 C472.07,434.45,471.91,433.95,470.72,427.67 H467.29 C466.33,427.67,465.79,427.67,465.79,426.73 C465.79,426.12,466.24,426.12,467.18,426.12 H470.47 L466.72,406.45 C465.83,401.62,464.99,397.07,462.39,397.07 C462.19,397.07,460.96,397.07,460,397.98 C462.3,398.12,462.74,399.92,462.74,400.67 C462.74,401.81,461.85,402.42,460.89,402.42 C459.6,402.42,458.16,401.32,458.16,399.42 C458.16,397.18,460.35,395.98,462.39,395.98 C465.13,395.98,467.13,398.92,468.02,400.82 C469.61,403.96,470.77,409.98,470.82,410.34 Z "
           stroke-width="0"
           fill="black"
           id="path3221" /><path
           d="M501.77,394.25 L501.77,394.27 L501.76,394.3 L501.76,394.31 L501.76,394.33 L501.76,394.34 L501.75,394.36 L501.75,394.37 L501.74,394.39 L501.73,394.41 L501.72,394.43 L501.71,394.45 L501.7,394.48 L501.68,394.5 L501.66,394.53 L501.64,394.56 L501.62,394.59 L501.59,394.62 L501.56,394.66 L501.54,394.68 L501.53,394.7 L501.51,394.72 L501.49,394.74 L501.47,394.76 L501.45,394.79 L501.43,394.81 L501.41,394.83 L501.39,394.86 L501.36,394.88 L501.34,394.91 L501.31,394.94 L501.29,394.97 L501.26,395 L501.23,395.03 L501.2,395.06 L501.17,395.09 L501.14,395.12 L501.1,395.16 L501.07,395.19 L501.04,395.23 L501,395.26 L500.96,395.3 L500.92,395.34 C494.7,401.62,493.11,411.03,493.11,418.65 C493.11,427.32,495,436,501.12,442.21 C501.77,442.82,501.77,442.92,501.77,443.07 C501.77,443.42,501.58,443.56,501.28,443.56 C500.78,443.56,496.3,440.18,493.36,433.86 C490.81,428.37,490.22,422.84,490.22,418.65 C490.22,414.76,490.77,408.75,493.5,403.11 C496.48,396.98,500.78,393.75,501.28,393.75 C501.58,393.75,501.77,393.89,501.77,394.25 Z "
           stroke-width="0"
           fill="black"
           id="path3223" /><path
           d="M528.36,417.96 L528.36,418.33 L528.35,418.68 L528.33,419.03 L528.31,419.37 L528.25,420.02 L528.16,420.65 L528.04,421.24 L527.91,421.81 L527.76,422.35 L527.58,422.86 L527.39,423.35 L527.17,423.8 L526.95,424.24 L526.7,424.64 L526.44,425.02 L526.17,425.38 L525.88,425.71 L525.58,426.02 L525.27,426.31 L524.95,426.57 L524.63,426.81 L524.29,427.03 L523.95,427.23 L523.6,427.41 L523.25,427.57 L522.89,427.71 L522.53,427.83 L522.17,427.94 L521.81,428.03 L521.45,428.09 L521.09,428.15 L520.74,428.19 L520.38,428.21 L520.03,428.21 L519.99,427.12 C524.93,427.12,524.93,420.59,524.93,416.71 C524.93,414.87,524.93,411.98,525.02,411.14 H525.02 C520.65,407.29,516.8,406.75,514.82,406.75 C511.82,406.75,510.33,409,510.33,412.18 C510.33,414.62,511.63,420,513.22,422.54 C515.55,426.18,518.25,427.12,519.99,427.12 L520.03,428.21 C513.22,428.21,506.64,421.09,506.64,414.07 C506.64,409.43,509.63,405.65,514.71,405.65 C517.85,405.65,521.44,406.79,525.22,409.84 C525.88,407.2,527.52,405.65,529.75,405.65 C532.4,405.65,533.94,408.39,533.94,409.18 C533.94,409.54,533.65,409.68,533.35,409.68 C532.99,409.68,532.85,409.54,532.69,409.18 C531.8,406.75,530,406.75,529.91,406.75 C528.36,406.75,528.36,410.64,528.36,411.82 C528.36,412.87,528.36,412.98,528.86,413.57 C533.55,419.45,534.6,425.23,534.6,425.28 C534.6,425.39,534.53,425.78,533.99,425.78 C533.49,425.78,533.49,425.64,533.24,424.73 C532.35,421.59,530.71,417.81,528.36,414.87 Z "
           stroke-width="0"
           fill="black"
           id="path3225" /><path
           d="M553.4,421.25 L553.43,421.38 L553.46,421.53 L553.5,421.69 L553.55,421.87 L553.6,422.06 L553.66,422.27 L553.73,422.49 L553.8,422.71 L553.88,422.94 L553.97,423.18 L554.06,423.43 L554.16,423.67 L554.28,423.92 L554.4,424.17 L554.52,424.42 L554.66,424.67 L554.81,424.91 L554.97,425.15 L555.13,425.38 L555.31,425.6 L555.5,425.82 L555.7,426.02 L555.9,426.21 L556.13,426.39 L556.36,426.55 L556.6,426.69 L556.73,426.76 L556.86,426.82 L556.99,426.87 L557.13,426.92 L557.27,426.97 L557.41,427.01 L557.55,427.04 L557.7,427.07 L557.86,427.09 L558.01,427.11 L558.17,427.12 L558.33,427.12 C558.58,427.12,559.77,427.12,560.82,426.48 C559.43,426.23,558.43,424.98,558.43,423.79 C558.43,423,558.97,422.04,560.32,422.04 C561.41,422.04,563,422.93,563,424.93 C563,427.53,560.07,428.21,558.38,428.21 C555.49,428.21,553.74,425.57,553.15,424.43 C551.9,427.71,549.21,428.21,547.77,428.21 C542.58,428.21,539.74,421.79,539.74,420.54 C539.74,420.04,540.24,420.04,540.35,420.04 C540.74,420.04,540.9,420.15,540.99,420.59 C542.68,425.87,545.97,427.12,547.66,427.12 C548.61,427.12,550.35,426.68,550.35,423.79 C550.35,422.25,549.5,418.9,547.66,411.93 C546.86,408.84,545.13,406.75,542.93,406.75 C542.63,406.75,541.49,406.75,540.44,407.4 C541.69,407.64,542.78,408.68,542.78,410.09 C542.78,411.43,541.69,411.82,540.94,411.82 C539.44,411.82,538.19,410.53,538.19,408.93 C538.19,406.65,540.69,405.65,542.88,405.65 C546.18,405.65,547.96,409.14,548.11,409.43 C548.71,407.59,550.5,405.65,553.49,405.65 C558.63,405.65,561.47,412.07,561.47,413.32 C561.47,413.82,561.02,413.82,560.86,413.82 C560.43,413.82,560.32,413.62,560.22,413.28 C558.58,407.95,555.19,406.75,553.6,406.75 C551.65,406.75,550.85,408.34,550.85,410.04 C550.85,411.14,551.15,412.23,551.71,414.42 Z "
           stroke-width="0"
           fill="black"
           id="path3227" /><path
           d="M576.87,420.92 L576.87,420.96 L576.87,421 L576.87,421.05 L576.87,421.09 L576.87,421.12 L576.87,421.16 L576.87,421.2 L576.87,421.23 L576.86,421.27 L576.86,421.3 L576.86,421.33 L576.86,421.36 L576.86,421.39 L576.85,421.42 L576.85,421.45 L576.85,421.47 L576.84,421.5 L576.84,421.52 L576.83,421.55 L576.83,421.57 L576.81,421.61 L576.8,421.65 L576.78,421.68 L576.76,421.71 L576.74,421.74 L576.72,421.77 L576.69,421.79 L576.66,421.81 L576.63,421.83 L576.59,421.84 L576.55,421.85 L576.5,421.87 L576.48,421.87 L576.46,421.87 L576.43,421.88 L576.4,421.88 L576.38,421.89 L576.35,421.89 L576.32,421.89 L576.29,421.89 L576.25,421.89 L576.22,421.9 L576.19,421.9 L576.15,421.9 L576.12,421.9 L576.08,421.9 L576.04,421.9 L576,421.9 L575.96,421.9 L575.91,421.9 L575.87,421.9 L575.82,421.9 C573.59,419.7,570.43,419.67,569,419.67 V418.42 C569.84,418.42,572.14,418.42,574.04,419.39 V401.62 C574.04,400.46,574.04,400.01,570.56,400.01 H569.25 V398.76 C569.87,398.79,574.15,398.9,575.45,398.9 C576.53,398.9,580.92,398.79,581.68,398.76 V400.01 H580.35 C576.87,400.01,576.87,400.46,576.87,401.62 Z "
           stroke-width="0"
           fill="black"
           id="path3229" /><path
           d="M618.93,417.65 H632.84 C633.53,417.65,634.48,417.65,634.48,418.65 C634.48,419.65,633.53,419.65,632.84,419.65 H618.93 V433.61 C618.93,434.29,618.93,435.25,617.93,435.25 C616.95,435.25,616.95,434.29,616.95,433.61 V419.65 H603 C602.29,419.65,601.35,419.65,601.35,418.65 C601.35,417.65,602.29,417.65,603,417.65 H616.95 V403.71 C616.95,403.01,616.95,402.06,617.93,402.06 C618.93,402.06,618.93,403.01,618.93,403.71 Z "
           stroke-width="0"
           fill="black"
           id="path3231" /><path
           d="M677.12,434.54 L677.11,434.89 L677.09,435.24 L677.05,435.57 L676.99,435.91 L676.92,436.24 L676.84,436.56 L676.74,436.88 L676.63,437.19 L676.5,437.49 L676.36,437.78 L676.21,438.07 L676.04,438.34 L675.86,438.61 L675.67,438.87 L675.46,439.12 L675.25,439.36 L675.02,439.58 L674.78,439.8 L674.53,440 L674.26,440.2 L673.99,440.37 L673.71,440.54 L673.41,440.69 L673.11,440.83 L672.8,440.95 L672.47,441.06 L672.14,441.15 L671.8,441.23 L671.45,441.29 L671.09,441.34 L670.73,441.36 L670.35,441.37 C667.46,441.37,666.07,440.57,664.32,439.28 C661.59,437.29,658.84,432.45,657.9,428.67 L649.98,397.03 C649.91,396.84,650.16,396.53,650.57,396.53 C650.96,396.53,651.12,396.64,651.16,396.78 L654.65,410.53 C655.6,407.54,657.79,405.7,661.43,405.7 L661.27,406.79 C657.49,406.79,655.6,409.68,655.6,413.23 C655.6,413.71,655.6,414.46,655.85,415.42 L659.04,428.03 C660.13,432.31,663.73,440.23,669.7,440.23 C672.59,440.23,674.34,438.68,674.34,435.7 H674.34 C674.34,432.2,672.45,428.62,669.85,427.07 C668.51,427.57,667.51,427.67,666.01,427.67 C664.96,427.67,662.18,427.71,662.18,426.07 C662.13,424.68,664.71,424.84,665.62,424.84 L665.76,425.93 C665.07,425.93,664.07,425.87,663.57,426.12 C663.68,426.62,665.46,426.53,666.01,426.53 C667.05,426.53,667.51,426.53,668.15,426.28 H668.15 C667.51,426.03,666.96,425.93,665.76,425.93 L665.62,424.84 C667.46,424.84,668.21,424.89,669.7,425.48 C671.59,423.68,671.84,422.14,671.9,419.86 C671.99,416.96,670.79,413.23,669.4,411.28 C667.46,408.59,664.12,406.79,661.27,406.79 L661.43,405.7 C665.07,405.7,668.8,407.45,671.04,409.64 C673.43,411.93,675.04,415.12,675.04,418.81 C675.04,422.39,673.2,424.98,671.4,426.23 C674.29,427.87,677.12,430.96,677.12,434.54 Z "
           stroke-width="0"
           fill="black"
           id="path3233" /><path
           d="M695.96,421.25 L695.99,421.38 L696.02,421.53 L696.06,421.69 L696.11,421.87 L696.16,422.06 L696.22,422.27 L696.29,422.49 L696.36,422.71 L696.44,422.94 L696.53,423.18 L696.62,423.43 L696.73,423.67 L696.84,423.92 L696.96,424.17 L697.09,424.42 L697.22,424.67 L697.37,424.91 L697.53,425.15 L697.7,425.38 L697.87,425.6 L698.06,425.82 L698.26,426.02 L698.47,426.21 L698.69,426.39 L698.92,426.55 L699.17,426.69 L699.29,426.76 L699.42,426.82 L699.55,426.87 L699.69,426.92 L699.83,426.97 L699.97,427.01 L700.12,427.04 L700.27,427.07 L700.42,427.09 L700.57,427.11 L700.73,427.12 L700.9,427.12 C701.15,427.12,702.33,427.12,703.38,426.48 C701.99,426.23,700.99,424.98,700.99,423.79 C700.99,423,701.53,422.04,702.88,422.04 C703.97,422.04,705.57,422.93,705.57,424.93 C705.57,427.53,702.63,428.21,700.94,428.21 C698.05,428.21,696.3,425.57,695.71,424.43 C694.46,427.71,691.77,428.21,690.33,428.21 C685.15,428.21,682.3,421.79,682.3,420.54 C682.3,420.04,682.8,420.04,682.91,420.04 C683.3,420.04,683.46,420.15,683.55,420.59 C685.24,425.87,688.53,427.12,690.22,427.12 C691.18,427.12,692.91,426.68,692.91,423.79 C692.91,422.25,692.07,418.9,690.22,411.93 C689.43,408.84,687.69,406.75,685.49,406.75 C685.19,406.75,684.05,406.75,683,407.4 C684.25,407.64,685.35,408.68,685.35,410.09 C685.35,411.43,684.25,411.82,683.5,411.82 C682,411.82,680.75,410.53,680.75,408.93 C680.75,406.65,683.25,405.65,685.44,405.65 C688.74,405.65,690.52,409.14,690.68,409.43 C691.27,407.59,693.07,405.65,696.05,405.65 C701.19,405.65,704.03,412.07,704.03,413.32 C704.03,413.82,703.58,413.82,703.43,413.82 C702.99,413.82,702.88,413.62,702.78,413.28 C701.15,407.95,697.75,406.75,696.16,406.75 C694.21,406.75,693.41,408.34,693.41,410.04 C693.41,411.14,693.71,412.23,694.27,414.42 Z "
           stroke-width="0"
           fill="black"
           id="path3235" /><path
           d="M725.35,405.11 H724.17 C724.07,404.34,723.72,402.28,723.26,401.93 C723,401.73,720.31,401.73,719.82,401.73 H713.4 C717.06,404.96,718.28,405.93,720.37,407.57 C722.95,409.64,725.35,411.79,725.35,415.11 C725.35,419.32,721.67,421.9,717.2,421.9 C712.89,421.9,709.95,418.87,709.95,415.67 C709.95,413.89,711.45,413.71,711.81,413.71 C712.64,413.71,713.65,414.31,713.65,415.56 C713.65,416.18,713.4,417.4,711.59,417.4 C712.67,419.87,715.04,420.64,716.68,420.64 C720.17,420.64,721.98,417.93,721.98,415.11 C721.98,412.07,719.82,409.67,718.7,408.42 L710.31,400.12 C709.95,399.81,709.95,399.73,709.95,398.76 H724.31 Z "
           stroke-width="0"
           fill="black"
           id="path3237" /><path
           d="M744.47,418.65 L744.47,419.02 L744.46,419.41 L744.45,419.8 L744.44,420.21 L744.4,421.05 L744.34,421.93 L744.26,422.85 L744.15,423.8 L744.02,424.77 L743.85,425.78 L743.66,426.8 L743.43,427.83 L743.16,428.88 L742.85,429.94 L742.51,431.01 L742.11,432.08 L741.9,432.61 L741.68,433.14 L741.44,433.67 L741.19,434.2 C738.2,440.32,733.92,443.56,733.42,443.56 C733.12,443.56,732.92,443.37,732.92,443.07 C732.92,442.92,732.92,442.82,733.86,441.92 C738.75,437,741.59,429.07,741.59,418.65 C741.59,410.14,739.75,401.37,733.56,395.09 C732.92,394.5,732.92,394.39,732.92,394.25 C732.92,393.95,733.12,393.75,733.42,393.75 C733.92,393.75,738.39,397.14,741.34,403.46 C743.88,408.93,744.47,414.46,744.47,418.65 Z "
           stroke-width="0"
           fill="black"
           id="path3239" /></g>    </g>
    <g
       id="g3385">
      <g
         text-anchor="start"
         word-spacing="normal"
         letter-spacing="normal"
         font-size-adjust="none"
         font-stretch="normal"
         font-weight="normal"
         font-variant="normal"
         font-style="normal"
         fill-opacity="1"
         fill-rule="evenodd"
         fill="none"
         stroke-opacity="1"
         stroke-dashoffset="0"
         stroke-dasharray="none"
         stroke-miterlimit="10.433"
         stroke-linejoin="miter"
         stroke-linecap="butt"
         stroke="black"
         xml:space="preserve"
         transform="matrix(1.06299212599,0,0,-1.06299212599,-186.023622047,789.271653525)"
         id="g3387"><path
           id="path3389"
           fill="black"
           stroke-width="0"
           d="M473.8,426.12 H478.08 C479.08,426.12,479.58,426.12,479.58,427.12 C479.58,427.67,479.08,427.67,478.24,427.67 H474.1 L475.14,433.36 C475.35,434.4,476.05,437.93,476.35,438.53 C476.8,439.48,477.64,440.23,478.69,440.23 C478.88,440.23,480.18,440.23,481.13,439.32 C478.94,439.14,478.44,437.39,478.44,436.64 C478.44,435.5,479.33,434.9,480.29,434.9 C481.58,434.9,483.02,436,483.02,437.89 C483.02,440.18,480.72,441.32,478.69,441.32 C476.99,441.32,473.85,440.43,472.36,435.5 C472.07,434.45,471.91,433.95,470.72,427.67 H467.29 C466.33,427.67,465.79,427.67,465.79,426.73 C465.79,426.12,466.24,426.12,467.18,426.12 H470.47 L466.72,406.45 C465.83,401.62,464.99,397.07,462.39,397.07 C462.19,397.07,460.96,397.07,460,397.98 C462.3,398.12,462.74,399.92,462.74,400.67 C462.74,401.81,461.85,402.42,460.89,402.42 C459.6,402.42,458.16,401.32,458.16,399.42 C458.16,397.18,460.35,395.98,462.39,395.98 C465.13,395.98,467.13,398.92,468.02,400.82 C469.61,403.96,470.77,409.98,470.82,410.34 Z " /><path
           id="path3391"
           fill="black"
           stroke-width="0"
           d="M501.77,394.25 L501.77,394.27 L501.76,394.3 L501.76,394.31 L501.76,394.33 L501.76,394.34 L501.75,394.36 L501.75,394.37 L501.74,394.39 L501.73,394.41 L501.72,394.43 L501.71,394.45 L501.7,394.48 L501.68,394.5 L501.66,394.53 L501.64,394.56 L501.62,394.59 L501.59,394.62 L501.56,394.66 L501.54,394.68 L501.53,394.7 L501.51,394.72 L501.49,394.74 L501.47,394.76 L501.45,394.79 L501.43,394.81 L501.41,394.83 L501.39,394.86 L501.36,394.88 L501.34,394.91 L501.31,394.94 L501.29,394.97 L501.26,395 L501.23,395.03 L501.2,395.06 L501.17,395.09 L501.14,395.12 L501.1,395.16 L501.07,395.19 L501.04,395.23 L501,395.26 L500.96,395.3 L500.92,395.34 C494.7,401.62,493.11,411.03,493.11,418.65 C493.11,427.32,495,436,501.12,442.21 C501.77,442.82,501.77,442.92,501.77,443.07 C501.77,443.42,501.58,443.56,501.28,443.56 C500.78,443.56,496.3,440.18,493.36,433.86 C490.81,428.37,490.22,422.84,490.22,418.65 C490.22,414.76,490.77,408.75,493.5,403.11 C496.48,396.98,500.78,393.75,501.28,393.75 C501.58,393.75,501.77,393.89,501.77,394.25 Z " /><path
           id="path3393"
           fill="black"
           stroke-width="0"
           d="M528.36,417.96 L528.36,418.33 L528.35,418.68 L528.33,419.03 L528.31,419.37 L528.25,420.02 L528.16,420.65 L528.04,421.24 L527.91,421.81 L527.76,422.35 L527.58,422.86 L527.39,423.35 L527.17,423.8 L526.95,424.24 L526.7,424.64 L526.44,425.02 L526.17,425.38 L525.88,425.71 L525.58,426.02 L525.27,426.31 L524.95,426.57 L524.63,426.81 L524.29,427.03 L523.95,427.23 L523.6,427.41 L523.25,427.57 L522.89,427.71 L522.53,427.83 L522.17,427.94 L521.81,428.03 L521.45,428.09 L521.09,428.15 L520.74,428.19 L520.38,428.21 L520.03,428.21 L519.99,427.12 C524.93,427.12,524.93,420.59,524.93,416.71 C524.93,414.87,524.93,411.98,525.02,411.14 H525.02 C520.65,407.29,516.8,406.75,514.82,406.75 C511.82,406.75,510.33,409,510.33,412.18 C510.33,414.62,511.63,420,513.22,422.54 C515.55,426.18,518.25,427.12,519.99,427.12 L520.03,428.21 C513.22,428.21,506.64,421.09,506.64,414.07 C506.64,409.43,509.63,405.65,514.71,405.65 C517.85,405.65,521.44,406.79,525.22,409.84 C525.88,407.2,527.52,405.65,529.75,405.65 C532.4,405.65,533.94,408.39,533.94,409.18 C533.94,409.54,533.65,409.68,533.35,409.68 C532.99,409.68,532.85,409.54,532.69,409.18 C531.8,406.75,530,406.75,529.91,406.75 C528.36,406.75,528.36,410.64,528.36,411.82 C528.36,412.87,528.36,412.98,528.86,413.57 C533.55,419.45,534.6,425.23,534.6,425.28 C534.6,425.39,534.53,425.78,533.99,425.78 C533.49,425.78,533.49,425.64,533.24,424.73 C532.35,421.59,530.71,417.81,528.36,414.87 Z " /><path
           id="path3395"
           fill="black"
           stroke-width="0"
           d="M553.4,421.25 L553.43,421.38 L553.46,421.53 L553.5,421.69 L553.55,421.87 L553.6,422.06 L553.66,422.27 L553.73,422.49 L553.8,422.71 L553.88,422.94 L553.97,423.18 L554.06,423.43 L554.16,423.67 L554.28,423.92 L554.4,424.17 L554.52,424.42 L554.66,424.67 L554.81,424.91 L554.97,425.15 L555.13,425.38 L555.31,425.6 L555.5,425.82 L555.7,426.02 L555.9,426.21 L556.13,426.39 L556.36,426.55 L556.6,426.69 L556.73,426.76 L556.86,426.82 L556.99,426.87 L557.13,426.92 L557.27,426.97 L557.41,427.01 L557.55,427.04 L557.7,427.07 L557.86,427.09 L558.01,427.11 L558.17,427.12 L558.33,427.12 C558.58,427.12,559.77,427.12,560.82,426.48 C559.43,426.23,558.43,424.98,558.43,423.79 C558.43,423,558.97,422.04,560.32,422.04 C561.41,422.04,563,422.93,563,424.93 C563,427.53,560.07,428.21,558.38,428.21 C555.49,428.21,553.74,425.57,553.15,424.43 C551.9,427.71,549.21,428.21,547.77,428.21 C542.58,428.21,539.74,421.79,539.74,420.54 C539.74,420.04,540.24,420.04,540.35,420.04 C540.74,420.04,540.9,420.15,540.99,420.59 C542.68,425.87,545.97,427.12,547.66,427.12 C548.61,427.12,550.35,426.68,550.35,423.79 C550.35,422.25,549.5,418.9,547.66,411.93 C546.86,408.84,545.13,406.75,542.93,406.75 C542.63,406.75,541.49,406.75,540.44,407.4 C541.69,407.64,542.78,408.68,542.78,410.09 C542.78,411.43,541.69,411.82,540.94,411.82 C539.44,411.82,538.19,410.53,538.19,408.93 C538.19,406.65,540.69,405.65,542.88,405.65 C546.18,405.65,547.96,409.14,548.11,409.43 C548.71,407.59,550.5,405.65,553.49,405.65 C558.63,405.65,561.47,412.07,561.47,413.32 C561.47,413.82,561.02,413.82,560.86,413.82 C560.43,413.82,560.32,413.62,560.22,413.28 C558.58,407.95,555.19,406.75,553.6,406.75 C551.65,406.75,550.85,408.34,550.85,410.04 C550.85,411.14,551.15,412.23,551.71,414.42 Z " /><path
           id="path3397"
           fill="black"
           stroke-width="0"
           d="M576.87,420.92 L576.87,420.96 L576.87,421 L576.87,421.05 L576.87,421.09 L576.87,421.12 L576.87,421.16 L576.87,421.2 L576.87,421.23 L576.86,421.27 L576.86,421.3 L576.86,421.33 L576.86,421.36 L576.86,421.39 L576.85,421.42 L576.85,421.45 L576.85,421.47 L576.84,421.5 L576.84,421.52 L576.83,421.55 L576.83,421.57 L576.81,421.61 L576.8,421.65 L576.78,421.68 L576.76,421.71 L576.74,421.74 L576.72,421.77 L576.69,421.79 L576.66,421.81 L576.63,421.83 L576.59,421.84 L576.55,421.85 L576.5,421.87 L576.48,421.87 L576.46,421.87 L576.43,421.88 L576.4,421.88 L576.38,421.89 L576.35,421.89 L576.32,421.89 L576.29,421.89 L576.25,421.89 L576.22,421.9 L576.19,421.9 L576.15,421.9 L576.12,421.9 L576.08,421.9 L576.04,421.9 L576,421.9 L575.96,421.9 L575.91,421.9 L575.87,421.9 L575.82,421.9 C573.59,419.7,570.43,419.67,569,419.67 V418.42 C569.84,418.42,572.14,418.42,574.04,419.39 V401.62 C574.04,400.46,574.04,400.01,570.56,400.01 H569.25 V398.76 C569.87,398.79,574.15,398.9,575.45,398.9 C576.53,398.9,580.92,398.79,581.68,398.76 V400.01 H580.35 C576.87,400.01,576.87,400.46,576.87,401.62 Z " /><path
           id="path3399"
           fill="black"
           stroke-width="0"
           d="M618.93,417.65 H632.84 C633.53,417.65,634.48,417.65,634.48,418.65 C634.48,419.65,633.53,419.65,632.84,419.65 H618.93 V433.61 C618.93,434.29,618.93,435.25,617.93,435.25 C616.95,435.25,616.95,434.29,616.95,433.61 V419.65 H603 C602.29,419.65,601.35,419.65,601.35,418.65 C601.35,417.65,602.29,417.65,603,417.65 H616.95 V403.71 C616.95,403.01,616.95,402.06,617.93,402.06 C618.93,402.06,618.93,403.01,618.93,403.71 Z " /><path
           id="path3401"
           fill="black"
           stroke-width="0"
           d="M677.12,434.54 L677.11,434.89 L677.09,435.24 L677.05,435.57 L676.99,435.91 L676.92,436.24 L676.84,436.56 L676.74,436.88 L676.63,437.19 L676.5,437.49 L676.36,437.78 L676.21,438.07 L676.04,438.34 L675.86,438.61 L675.67,438.87 L675.46,439.12 L675.25,439.36 L675.02,439.58 L674.78,439.8 L674.53,440 L674.26,440.2 L673.99,440.37 L673.71,440.54 L673.41,440.69 L673.11,440.83 L672.8,440.95 L672.47,441.06 L672.14,441.15 L671.8,441.23 L671.45,441.29 L671.09,441.34 L670.73,441.36 L670.35,441.37 C667.46,441.37,666.07,440.57,664.32,439.28 C661.59,437.29,658.84,432.45,657.9,428.67 L649.98,397.03 C649.91,396.84,650.16,396.53,650.57,396.53 C650.96,396.53,651.12,396.64,651.16,396.78 L654.65,410.53 C655.6,407.54,657.79,405.7,661.43,405.7 L661.27,406.79 C657.49,406.79,655.6,409.68,655.6,413.23 C655.6,413.71,655.6,414.46,655.85,415.42 L659.04,428.03 C660.13,432.31,663.73,440.23,669.7,440.23 C672.59,440.23,674.34,438.68,674.34,435.7 H674.34 C674.34,432.2,672.45,428.62,669.85,427.07 C668.51,427.57,667.51,427.67,666.01,427.67 C664.96,427.67,662.18,427.71,662.18,426.07 C662.13,424.68,664.71,424.84,665.62,424.84 L665.76,425.93 C665.07,425.93,664.07,425.87,663.57,426.12 C663.68,426.62,665.46,426.53,666.01,426.53 C667.05,426.53,667.51,426.53,668.15,426.28 H668.15 C667.51,426.03,666.96,425.93,665.76,425.93 L665.62,424.84 C667.46,424.84,668.21,424.89,669.7,425.48 C671.59,423.68,671.84,422.14,671.9,419.86 C671.99,416.96,670.79,413.23,669.4,411.28 C667.46,408.59,664.12,406.79,661.27,406.79 L661.43,405.7 C665.07,405.7,668.8,407.45,671.04,409.64 C673.43,411.93,675.04,415.12,675.04,418.81 C675.04,422.39,673.2,424.98,671.4,426.23 C674.29,427.87,677.12,430.96,677.12,434.54 Z " /><path
           id="path3403"
           fill="black"
           stroke-width="0"
           d="M695.96,421.25 L695.99,421.38 L696.02,421.53 L696.06,421.69 L696.11,421.87 L696.16,422.06 L696.22,422.27 L696.29,422.49 L696.36,422.71 L696.44,422.94 L696.53,423.18 L696.62,423.43 L696.73,423.67 L696.84,423.92 L696.96,424.17 L697.09,424.42 L697.22,424.67 L697.37,424.91 L697.53,425.15 L697.7,425.38 L697.87,425.6 L698.06,425.82 L698.26,426.02 L698.47,426.21 L698.69,426.39 L698.92,426.55 L699.17,426.69 L699.29,426.76 L699.42,426.82 L699.55,426.87 L699.69,426.92 L699.83,426.97 L699.97,427.01 L700.12,427.04 L700.27,427.07 L700.42,427.09 L700.57,427.11 L700.73,427.12 L700.9,427.12 C701.15,427.12,702.33,427.12,703.38,426.48 C701.99,426.23,700.99,424.98,700.99,423.79 C700.99,423,701.53,422.04,702.88,422.04 C703.97,422.04,705.57,422.93,705.57,424.93 C705.57,427.53,702.63,428.21,700.94,428.21 C698.05,428.21,696.3,425.57,695.71,424.43 C694.46,427.71,691.77,428.21,690.33,428.21 C685.15,428.21,682.3,421.79,682.3,420.54 C682.3,420.04,682.8,420.04,682.91,420.04 C683.3,420.04,683.46,420.15,683.55,420.59 C685.24,425.87,688.53,427.12,690.22,427.12 C691.18,427.12,692.91,426.68,692.91,423.79 C692.91,422.25,692.07,418.9,690.22,411.93 C689.43,408.84,687.69,406.75,685.49,406.75 C685.19,406.75,684.05,406.75,683,407.4 C684.25,407.64,685.35,408.68,685.35,410.09 C685.35,411.43,684.25,411.82,683.5,411.82 C682,411.82,680.75,410.53,680.75,408.93 C680.75,406.65,683.25,405.65,685.44,405.65 C688.74,405.65,690.52,409.14,690.68,409.43 C691.27,407.59,693.07,405.65,696.05,405.65 C701.19,405.65,704.03,412.07,704.03,413.32 C704.03,413.82,703.58,413.82,703.43,413.82 C702.99,413.82,702.88,413.62,702.78,413.28 C701.15,407.95,697.75,406.75,696.16,406.75 C694.21,406.75,693.41,408.34,693.41,410.04 C693.41,411.14,693.71,412.23,694.27,414.42 Z " /><path
           id="path3405"
           fill="black"
           stroke-width="0"
           d="M725.35,405.11 H724.17 C724.07,404.34,723.72,402.28,723.26,401.93 C723,401.73,720.31,401.73,719.82,401.73 H713.4 C717.06,404.96,718.28,405.93,720.37,407.57 C722.95,409.64,725.35,411.79,725.35,415.11 C725.35,419.32,721.67,421.9,717.2,421.9 C712.89,421.9,709.95,418.87,709.95,415.67 C709.95,413.89,711.45,413.71,711.81,413.71 C712.64,413.71,713.65,414.31,713.65,415.56 C713.65,416.18,713.4,417.4,711.59,417.4 C712.67,419.87,715.04,420.64,716.68,420.64 C720.17,420.64,721.98,417.93,721.98,415.11 C721.98,412.07,719.82,409.67,718.7,408.42 L710.31,400.12 C709.95,399.81,709.95,399.73,709.95,398.76 H724.31 Z " /><path
           id="path3407"
           fill="black"
           stroke-width="0"
           d="M744.47,418.65 L744.47,419.02 L744.46,419.41 L744.45,419.8 L744.44,420.21 L744.4,421.05 L744.34,421.93 L744.26,422.85 L744.15,423.8 L744.02,424.77 L743.85,425.78 L743.66,426.8 L743.43,427.83 L743.16,428.88 L742.85,429.94 L742.51,431.01 L742.11,432.08 L741.9,432.61 L741.68,433.14 L741.44,433.67 L741.19,434.2 C738.2,440.32,733.92,443.56,733.42,443.56 C733.12,443.56,732.92,443.37,732.92,443.07 C732.92,442.92,732.92,442.82,733.86,441.92 C738.75,437,741.59,429.07,741.59,418.65 C741.59,410.14,739.75,401.37,733.56,395.09 C732.92,394.5,732.92,394.39,732.92,394.25 C732.92,393.95,733.12,393.75,733.42,393.75 C733.92,393.75,738.39,397.14,741.34,403.46 C743.88,408.93,744.47,414.46,744.47,418.65 Z " /></g>    </g>
    <g
       id="g4438">
      <g
         id="g4440"
         transform="matrix(1.06299212599,0,0,-1.06299212599,-186.023622047,789.271653525)"
         xml:space="preserve"
         stroke="black"
         stroke-linecap="butt"
         stroke-linejoin="miter"
         stroke-miterlimit="10.433"
         stroke-dasharray="none"
         stroke-dashoffset="0"
         stroke-opacity="1"
         fill="none"
         fill-rule="evenodd"
         fill-opacity="1"
         font-style="normal"
         font-variant="normal"
         font-weight="normal"
         font-stretch="normal"
         font-size-adjust="none"
         letter-spacing="normal"
         word-spacing="normal"
         text-anchor="start"><path
           d="M473.8,426.12 H478.08 C479.08,426.12,479.58,426.12,479.58,427.12 C479.58,427.67,479.08,427.67,478.24,427.67 H474.1 L475.14,433.36 C475.35,434.4,476.05,437.93,476.35,438.53 C476.8,439.48,477.64,440.23,478.69,440.23 C478.88,440.23,480.18,440.23,481.13,439.32 C478.94,439.14,478.44,437.39,478.44,436.64 C478.44,435.5,479.33,434.9,480.29,434.9 C481.58,434.9,483.02,436,483.02,437.89 C483.02,440.18,480.72,441.32,478.69,441.32 C476.99,441.32,473.85,440.43,472.36,435.5 C472.07,434.45,471.91,433.95,470.72,427.67 H467.29 C466.33,427.67,465.79,427.67,465.79,426.73 C465.79,426.12,466.24,426.12,467.18,426.12 H470.47 L466.72,406.45 C465.83,401.62,464.99,397.07,462.39,397.07 C462.19,397.07,460.96,397.07,460,397.98 C462.3,398.12,462.74,399.92,462.74,400.67 C462.74,401.81,461.85,402.42,460.89,402.42 C459.6,402.42,458.16,401.32,458.16,399.42 C458.16,397.18,460.35,395.98,462.39,395.98 C465.13,395.98,467.13,398.92,468.02,400.82 C469.61,403.96,470.77,409.98,470.82,410.34 Z "
           stroke-width="0"
           fill="black"
           id="path4442" /><path
           d="M501.77,394.25 L501.77,394.27 L501.76,394.3 L501.76,394.31 L501.76,394.33 L501.76,394.34 L501.75,394.36 L501.75,394.37 L501.74,394.39 L501.73,394.41 L501.72,394.43 L501.71,394.45 L501.7,394.48 L501.68,394.5 L501.66,394.53 L501.64,394.56 L501.62,394.59 L501.59,394.62 L501.56,394.66 L501.54,394.68 L501.53,394.7 L501.51,394.72 L501.49,394.74 L501.47,394.76 L501.45,394.79 L501.43,394.81 L501.41,394.83 L501.39,394.86 L501.36,394.88 L501.34,394.91 L501.31,394.94 L501.29,394.97 L501.26,395 L501.23,395.03 L501.2,395.06 L501.17,395.09 L501.14,395.12 L501.1,395.16 L501.07,395.19 L501.04,395.23 L501,395.26 L500.96,395.3 L500.92,395.34 C494.7,401.62,493.11,411.03,493.11,418.65 C493.11,427.32,495,436,501.12,442.21 C501.77,442.82,501.77,442.92,501.77,443.07 C501.77,443.42,501.58,443.56,501.28,443.56 C500.78,443.56,496.3,440.18,493.36,433.86 C490.81,428.37,490.22,422.84,490.22,418.65 C490.22,414.76,490.77,408.75,493.5,403.11 C496.48,396.98,500.78,393.75,501.28,393.75 C501.58,393.75,501.77,393.89,501.77,394.25 Z "
           stroke-width="0"
           fill="black"
           id="path4444" /><path
           d="M528.36,417.96 L528.36,418.33 L528.35,418.68 L528.33,419.03 L528.31,419.37 L528.25,420.02 L528.16,420.65 L528.04,421.24 L527.91,421.81 L527.76,422.35 L527.58,422.86 L527.39,423.35 L527.17,423.8 L526.95,424.24 L526.7,424.64 L526.44,425.02 L526.17,425.38 L525.88,425.71 L525.58,426.02 L525.27,426.31 L524.95,426.57 L524.63,426.81 L524.29,427.03 L523.95,427.23 L523.6,427.41 L523.25,427.57 L522.89,427.71 L522.53,427.83 L522.17,427.94 L521.81,428.03 L521.45,428.09 L521.09,428.15 L520.74,428.19 L520.38,428.21 L520.03,428.21 L519.99,427.12 C524.93,427.12,524.93,420.59,524.93,416.71 C524.93,414.87,524.93,411.98,525.02,411.14 H525.02 C520.65,407.29,516.8,406.75,514.82,406.75 C511.82,406.75,510.33,409,510.33,412.18 C510.33,414.62,511.63,420,513.22,422.54 C515.55,426.18,518.25,427.12,519.99,427.12 L520.03,428.21 C513.22,428.21,506.64,421.09,506.64,414.07 C506.64,409.43,509.63,405.65,514.71,405.65 C517.85,405.65,521.44,406.79,525.22,409.84 C525.88,407.2,527.52,405.65,529.75,405.65 C532.4,405.65,533.94,408.39,533.94,409.18 C533.94,409.54,533.65,409.68,533.35,409.68 C532.99,409.68,532.85,409.54,532.69,409.18 C531.8,406.75,530,406.75,529.91,406.75 C528.36,406.75,528.36,410.64,528.36,411.82 C528.36,412.87,528.36,412.98,528.86,413.57 C533.55,419.45,534.6,425.23,534.6,425.28 C534.6,425.39,534.53,425.78,533.99,425.78 C533.49,425.78,533.49,425.64,533.24,424.73 C532.35,421.59,530.71,417.81,528.36,414.87 Z "
           stroke-width="0"
           fill="black"
           id="path4446" /><path
           d="M553.4,421.25 L553.43,421.38 L553.46,421.53 L553.5,421.69 L553.55,421.87 L553.6,422.06 L553.66,422.27 L553.73,422.49 L553.8,422.71 L553.88,422.94 L553.97,423.18 L554.06,423.43 L554.16,423.67 L554.28,423.92 L554.4,424.17 L554.52,424.42 L554.66,424.67 L554.81,424.91 L554.97,425.15 L555.13,425.38 L555.31,425.6 L555.5,425.82 L555.7,426.02 L555.9,426.21 L556.13,426.39 L556.36,426.55 L556.6,426.69 L556.73,426.76 L556.86,426.82 L556.99,426.87 L557.13,426.92 L557.27,426.97 L557.41,427.01 L557.55,427.04 L557.7,427.07 L557.86,427.09 L558.01,427.11 L558.17,427.12 L558.33,427.12 C558.58,427.12,559.77,427.12,560.82,426.48 C559.43,426.23,558.43,424.98,558.43,423.79 C558.43,423,558.97,422.04,560.32,422.04 C561.41,422.04,563,422.93,563,424.93 C563,427.53,560.07,428.21,558.38,428.21 C555.49,428.21,553.74,425.57,553.15,424.43 C551.9,427.71,549.21,428.21,547.77,428.21 C542.58,428.21,539.74,421.79,539.74,420.54 C539.74,420.04,540.24,420.04,540.35,420.04 C540.74,420.04,540.9,420.15,540.99,420.59 C542.68,425.87,545.97,427.12,547.66,427.12 C548.61,427.12,550.35,426.68,550.35,423.79 C550.35,422.25,549.5,418.9,547.66,411.93 C546.86,408.84,545.13,406.75,542.93,406.75 C542.63,406.75,541.49,406.75,540.44,407.4 C541.69,407.64,542.78,408.68,542.78,410.09 C542.78,411.43,541.69,411.82,540.94,411.82 C539.44,411.82,538.19,410.53,538.19,408.93 C538.19,406.65,540.69,405.65,542.88,405.65 C546.18,405.65,547.96,409.14,548.11,409.43 C548.71,407.59,550.5,405.65,553.49,405.65 C558.63,405.65,561.47,412.07,561.47,413.32 C561.47,413.82,561.02,413.82,560.86,413.82 C560.43,413.82,560.32,413.62,560.22,413.28 C558.58,407.95,555.19,406.75,553.6,406.75 C551.65,406.75,550.85,408.34,550.85,410.04 C550.85,411.14,551.15,412.23,551.71,414.42 Z "
           stroke-width="0"
           fill="black"
           id="path4448" /><path
           d="M576.87,420.92 L576.87,420.96 L576.87,421 L576.87,421.05 L576.87,421.09 L576.87,421.12 L576.87,421.16 L576.87,421.2 L576.87,421.23 L576.86,421.27 L576.86,421.3 L576.86,421.33 L576.86,421.36 L576.86,421.39 L576.85,421.42 L576.85,421.45 L576.85,421.47 L576.84,421.5 L576.84,421.52 L576.83,421.55 L576.83,421.57 L576.81,421.61 L576.8,421.65 L576.78,421.68 L576.76,421.71 L576.74,421.74 L576.72,421.77 L576.69,421.79 L576.66,421.81 L576.63,421.83 L576.59,421.84 L576.55,421.85 L576.5,421.87 L576.48,421.87 L576.46,421.87 L576.43,421.88 L576.4,421.88 L576.38,421.89 L576.35,421.89 L576.32,421.89 L576.29,421.89 L576.25,421.89 L576.22,421.9 L576.19,421.9 L576.15,421.9 L576.12,421.9 L576.08,421.9 L576.04,421.9 L576,421.9 L575.96,421.9 L575.91,421.9 L575.87,421.9 L575.82,421.9 C573.59,419.7,570.43,419.67,569,419.67 V418.42 C569.84,418.42,572.14,418.42,574.04,419.39 V401.62 C574.04,400.46,574.04,400.01,570.56,400.01 H569.25 V398.76 C569.87,398.79,574.15,398.9,575.45,398.9 C576.53,398.9,580.92,398.79,581.68,398.76 V400.01 H580.35 C576.87,400.01,576.87,400.46,576.87,401.62 Z "
           stroke-width="0"
           fill="black"
           id="path4450" /><path
           d="M618.93,417.65 H632.84 C633.53,417.65,634.48,417.65,634.48,418.65 C634.48,419.65,633.53,419.65,632.84,419.65 H618.93 V433.61 C618.93,434.29,618.93,435.25,617.93,435.25 C616.95,435.25,616.95,434.29,616.95,433.61 V419.65 H603 C602.29,419.65,601.35,419.65,601.35,418.65 C601.35,417.65,602.29,417.65,603,417.65 H616.95 V403.71 C616.95,403.01,616.95,402.06,617.93,402.06 C618.93,402.06,618.93,403.01,618.93,403.71 Z "
           stroke-width="0"
           fill="black"
           id="path4452" /><path
           d="M677.12,434.54 L677.11,434.89 L677.09,435.24 L677.05,435.57 L676.99,435.91 L676.92,436.24 L676.84,436.56 L676.74,436.88 L676.63,437.19 L676.5,437.49 L676.36,437.78 L676.21,438.07 L676.04,438.34 L675.86,438.61 L675.67,438.87 L675.46,439.12 L675.25,439.36 L675.02,439.58 L674.78,439.8 L674.53,440 L674.26,440.2 L673.99,440.37 L673.71,440.54 L673.41,440.69 L673.11,440.83 L672.8,440.95 L672.47,441.06 L672.14,441.15 L671.8,441.23 L671.45,441.29 L671.09,441.34 L670.73,441.36 L670.35,441.37 C667.46,441.37,666.07,440.57,664.32,439.28 C661.59,437.29,658.84,432.45,657.9,428.67 L649.98,397.03 C649.91,396.84,650.16,396.53,650.57,396.53 C650.96,396.53,651.12,396.64,651.16,396.78 L654.65,410.53 C655.6,407.54,657.79,405.7,661.43,405.7 L661.27,406.79 C657.49,406.79,655.6,409.68,655.6,413.23 C655.6,413.71,655.6,414.46,655.85,415.42 L659.04,428.03 C660.13,432.31,663.73,440.23,669.7,440.23 C672.59,440.23,674.34,438.68,674.34,435.7 H674.34 C674.34,432.2,672.45,428.62,669.85,427.07 C668.51,427.57,667.51,427.67,666.01,427.67 C664.96,427.67,662.18,427.71,662.18,426.07 C662.13,424.68,664.71,424.84,665.62,424.84 L665.76,425.93 C665.07,425.93,664.07,425.87,663.57,426.12 C663.68,426.62,665.46,426.53,666.01,426.53 C667.05,426.53,667.51,426.53,668.15,426.28 H668.15 C667.51,426.03,666.96,425.93,665.76,425.93 L665.62,424.84 C667.46,424.84,668.21,424.89,669.7,425.48 C671.59,423.68,671.84,422.14,671.9,419.86 C671.99,416.96,670.79,413.23,669.4,411.28 C667.46,408.59,664.12,406.79,661.27,406.79 L661.43,405.7 C665.07,405.7,668.8,407.45,671.04,409.64 C673.43,411.93,675.04,415.12,675.04,418.81 C675.04,422.39,673.2,424.98,671.4,426.23 C674.29,427.87,677.12,430.96,677.12,434.54 Z "
           stroke-width="0"
           fill="black"
           id="path4454" /><path
           d="M695.96,421.25 L695.99,421.38 L696.02,421.53 L696.06,421.69 L696.11,421.87 L696.16,422.06 L696.22,422.27 L696.29,422.49 L696.36,422.71 L696.44,422.94 L696.53,423.18 L696.62,423.43 L696.73,423.67 L696.84,423.92 L696.96,424.17 L697.09,424.42 L697.22,424.67 L697.37,424.91 L697.53,425.15 L697.7,425.38 L697.87,425.6 L698.06,425.82 L698.26,426.02 L698.47,426.21 L698.69,426.39 L698.92,426.55 L699.17,426.69 L699.29,426.76 L699.42,426.82 L699.55,426.87 L699.69,426.92 L699.83,426.97 L699.97,427.01 L700.12,427.04 L700.27,427.07 L700.42,427.09 L700.57,427.11 L700.73,427.12 L700.9,427.12 C701.15,427.12,702.33,427.12,703.38,426.48 C701.99,426.23,700.99,424.98,700.99,423.79 C700.99,423,701.53,422.04,702.88,422.04 C703.97,422.04,705.57,422.93,705.57,424.93 C705.57,427.53,702.63,428.21,700.94,428.21 C698.05,428.21,696.3,425.57,695.71,424.43 C694.46,427.71,691.77,428.21,690.33,428.21 C685.15,428.21,682.3,421.79,682.3,420.54 C682.3,420.04,682.8,420.04,682.91,420.04 C683.3,420.04,683.46,420.15,683.55,420.59 C685.24,425.87,688.53,427.12,690.22,427.12 C691.18,427.12,692.91,426.68,692.91,423.79 C692.91,422.25,692.07,418.9,690.22,411.93 C689.43,408.84,687.69,406.75,685.49,406.75 C685.19,406.75,684.05,406.75,683,407.4 C684.25,407.64,685.35,408.68,685.35,410.09 C685.35,411.43,684.25,411.82,683.5,411.82 C682,411.82,680.75,410.53,680.75,408.93 C680.75,406.65,683.25,405.65,685.44,405.65 C688.74,405.65,690.52,409.14,690.68,409.43 C691.27,407.59,693.07,405.65,696.05,405.65 C701.19,405.65,704.03,412.07,704.03,413.32 C704.03,413.82,703.58,413.82,703.43,413.82 C702.99,413.82,702.88,413.62,702.78,413.28 C701.15,407.95,697.75,406.75,696.16,406.75 C694.21,406.75,693.41,408.34,693.41,410.04 C693.41,411.14,693.71,412.23,694.27,414.42 Z "
           stroke-width="0"
           fill="black"
           id="path4456" /><path
           d="M725.35,405.11 H724.17 C724.07,404.34,723.72,402.28,723.26,401.93 C723,401.73,720.31,401.73,719.82,401.73 H713.4 C717.06,404.96,718.28,405.93,720.37,407.57 C722.95,409.64,725.35,411.79,725.35,415.11 C725.35,419.32,721.67,421.9,717.2,421.9 C712.89,421.9,709.95,418.87,709.95,415.67 C709.95,413.89,711.45,413.71,711.81,413.71 C712.64,413.71,713.65,414.31,713.65,415.56 C713.65,416.18,713.4,417.4,711.59,417.4 C712.67,419.87,715.04,420.64,716.68,420.64 C720.17,420.64,721.98,417.93,721.98,415.11 C721.98,412.07,719.82,409.67,718.7,408.42 L710.31,400.12 C709.95,399.81,709.95,399.73,709.95,398.76 H724.31 Z "
           stroke-width="0"
           fill="black"
           id="path4458" /><path
           d="M744.47,418.65 L744.47,419.02 L744.46,419.41 L744.45,419.8 L744.44,420.21 L744.4,421.05 L744.34,421.93 L744.26,422.85 L744.15,423.8 L744.02,424.77 L743.85,425.78 L743.66,426.8 L743.43,427.83 L743.16,428.88 L742.85,429.94 L742.51,431.01 L742.11,432.08 L741.9,432.61 L741.68,433.14 L741.44,433.67 L741.19,434.2 C738.2,440.32,733.92,443.56,733.42,443.56 C733.12,443.56,732.92,443.37,732.92,443.07 C732.92,442.92,732.92,442.82,733.86,441.92 C738.75,437,741.59,429.07,741.59,418.65 C741.59,410.14,739.75,401.37,733.56,395.09 C732.92,394.5,732.92,394.39,732.92,394.25 C732.92,393.95,733.12,393.75,733.42,393.75 C733.92,393.75,738.39,397.14,741.34,403.46 C743.88,408.93,744.47,414.46,744.47,418.65 Z "
           stroke-width="0"
           fill="black"
           id="path4460" /></g>    </g>
    <g
       id="g4654">
      <g
         text-anchor="start"
         word-spacing="normal"
         letter-spacing="normal"
         font-size-adjust="none"
         font-stretch="normal"
         font-weight="normal"
         font-variant="normal"
         font-style="normal"
         fill-opacity="1"
         fill-rule="evenodd"
         fill="none"
         stroke-opacity="1"
         stroke-dashoffset="0"
         stroke-dasharray="none"
         stroke-miterlimit="10.433"
         stroke-linejoin="miter"
         stroke-linecap="butt"
         stroke="black"
         xml:space="preserve"
         transform="matrix(1.06299212599,0,0,-1.06299212599,-186.023622047,789.271653525)"
         id="g4656"><path
           id="path4658"
           fill="black"
           stroke-width="0"
           d="M473.8,426.12 H478.08 C479.08,426.12,479.58,426.12,479.58,427.12 C479.58,427.67,479.08,427.67,478.24,427.67 H474.1 L475.14,433.36 C475.35,434.4,476.05,437.93,476.35,438.53 C476.8,439.48,477.64,440.23,478.69,440.23 C478.88,440.23,480.18,440.23,481.13,439.32 C478.94,439.14,478.44,437.39,478.44,436.64 C478.44,435.5,479.33,434.9,480.29,434.9 C481.58,434.9,483.02,436,483.02,437.89 C483.02,440.18,480.72,441.32,478.69,441.32 C476.99,441.32,473.85,440.43,472.36,435.5 C472.07,434.45,471.91,433.95,470.72,427.67 H467.29 C466.33,427.67,465.79,427.67,465.79,426.73 C465.79,426.12,466.24,426.12,467.18,426.12 H470.47 L466.72,406.45 C465.83,401.62,464.99,397.07,462.39,397.07 C462.19,397.07,460.96,397.07,460,397.98 C462.3,398.12,462.74,399.92,462.74,400.67 C462.74,401.81,461.85,402.42,460.89,402.42 C459.6,402.42,458.16,401.32,458.16,399.42 C458.16,397.18,460.35,395.98,462.39,395.98 C465.13,395.98,467.13,398.92,468.02,400.82 C469.61,403.96,470.77,409.98,470.82,410.34 Z " /><path
           id="path4660"
           fill="black"
           stroke-width="0"
           d="M501.77,394.25 L501.77,394.27 L501.76,394.3 L501.76,394.31 L501.76,394.33 L501.76,394.34 L501.75,394.36 L501.75,394.37 L501.74,394.39 L501.73,394.41 L501.72,394.43 L501.71,394.45 L501.7,394.48 L501.68,394.5 L501.66,394.53 L501.64,394.56 L501.62,394.59 L501.59,394.62 L501.56,394.66 L501.54,394.68 L501.53,394.7 L501.51,394.72 L501.49,394.74 L501.47,394.76 L501.45,394.79 L501.43,394.81 L501.41,394.83 L501.39,394.86 L501.36,394.88 L501.34,394.91 L501.31,394.94 L501.29,394.97 L501.26,395 L501.23,395.03 L501.2,395.06 L501.17,395.09 L501.14,395.12 L501.1,395.16 L501.07,395.19 L501.04,395.23 L501,395.26 L500.96,395.3 L500.92,395.34 C494.7,401.62,493.11,411.03,493.11,418.65 C493.11,427.32,495,436,501.12,442.21 C501.77,442.82,501.77,442.92,501.77,443.07 C501.77,443.42,501.58,443.56,501.28,443.56 C500.78,443.56,496.3,440.18,493.36,433.86 C490.81,428.37,490.22,422.84,490.22,418.65 C490.22,414.76,490.77,408.75,493.5,403.11 C496.48,396.98,500.78,393.75,501.28,393.75 C501.58,393.75,501.77,393.89,501.77,394.25 Z " /><path
           id="path4662"
           fill="black"
           stroke-width="0"
           d="M528.36,417.96 L528.36,418.33 L528.35,418.68 L528.33,419.03 L528.31,419.37 L528.25,420.02 L528.16,420.65 L528.04,421.24 L527.91,421.81 L527.76,422.35 L527.58,422.86 L527.39,423.35 L527.17,423.8 L526.95,424.24 L526.7,424.64 L526.44,425.02 L526.17,425.38 L525.88,425.71 L525.58,426.02 L525.27,426.31 L524.95,426.57 L524.63,426.81 L524.29,427.03 L523.95,427.23 L523.6,427.41 L523.25,427.57 L522.89,427.71 L522.53,427.83 L522.17,427.94 L521.81,428.03 L521.45,428.09 L521.09,428.15 L520.74,428.19 L520.38,428.21 L520.03,428.21 L519.99,427.12 C524.93,427.12,524.93,420.59,524.93,416.71 C524.93,414.87,524.93,411.98,525.02,411.14 H525.02 C520.65,407.29,516.8,406.75,514.82,406.75 C511.82,406.75,510.33,409,510.33,412.18 C510.33,414.62,511.63,420,513.22,422.54 C515.55,426.18,518.25,427.12,519.99,427.12 L520.03,428.21 C513.22,428.21,506.64,421.09,506.64,414.07 C506.64,409.43,509.63,405.65,514.71,405.65 C517.85,405.65,521.44,406.79,525.22,409.84 C525.88,407.2,527.52,405.65,529.75,405.65 C532.4,405.65,533.94,408.39,533.94,409.18 C533.94,409.54,533.65,409.68,533.35,409.68 C532.99,409.68,532.85,409.54,532.69,409.18 C531.8,406.75,530,406.75,529.91,406.75 C528.36,406.75,528.36,410.64,528.36,411.82 C528.36,412.87,528.36,412.98,528.86,413.57 C533.55,419.45,534.6,425.23,534.6,425.28 C534.6,425.39,534.53,425.78,533.99,425.78 C533.49,425.78,533.49,425.64,533.24,424.73 C532.35,421.59,530.71,417.81,528.36,414.87 Z " /><path
           id="path4664"
           fill="black"
           stroke-width="0"
           d="M553.4,421.25 L553.43,421.38 L553.46,421.53 L553.5,421.69 L553.55,421.87 L553.6,422.06 L553.66,422.27 L553.73,422.49 L553.8,422.71 L553.88,422.94 L553.97,423.18 L554.06,423.43 L554.16,423.67 L554.28,423.92 L554.4,424.17 L554.52,424.42 L554.66,424.67 L554.81,424.91 L554.97,425.15 L555.13,425.38 L555.31,425.6 L555.5,425.82 L555.7,426.02 L555.9,426.21 L556.13,426.39 L556.36,426.55 L556.6,426.69 L556.73,426.76 L556.86,426.82 L556.99,426.87 L557.13,426.92 L557.27,426.97 L557.41,427.01 L557.55,427.04 L557.7,427.07 L557.86,427.09 L558.01,427.11 L558.17,427.12 L558.33,427.12 C558.58,427.12,559.77,427.12,560.82,426.48 C559.43,426.23,558.43,424.98,558.43,423.79 C558.43,423,558.97,422.04,560.32,422.04 C561.41,422.04,563,422.93,563,424.93 C563,427.53,560.07,428.21,558.38,428.21 C555.49,428.21,553.74,425.57,553.15,424.43 C551.9,427.71,549.21,428.21,547.77,428.21 C542.58,428.21,539.74,421.79,539.74,420.54 C539.74,420.04,540.24,420.04,540.35,420.04 C540.74,420.04,540.9,420.15,540.99,420.59 C542.68,425.87,545.97,427.12,547.66,427.12 C548.61,427.12,550.35,426.68,550.35,423.79 C550.35,422.25,549.5,418.9,547.66,411.93 C546.86,408.84,545.13,406.75,542.93,406.75 C542.63,406.75,541.49,406.75,540.44,407.4 C541.69,407.64,542.78,408.68,542.78,410.09 C542.78,411.43,541.69,411.82,540.94,411.82 C539.44,411.82,538.19,410.53,538.19,408.93 C538.19,406.65,540.69,405.65,542.88,405.65 C546.18,405.65,547.96,409.14,548.11,409.43 C548.71,407.59,550.5,405.65,553.49,405.65 C558.63,405.65,561.47,412.07,561.47,413.32 C561.47,413.82,561.02,413.82,560.86,413.82 C560.43,413.82,560.32,413.62,560.22,413.28 C558.58,407.95,555.19,406.75,553.6,406.75 C551.65,406.75,550.85,408.34,550.85,410.04 C550.85,411.14,551.15,412.23,551.71,414.42 Z " /><path
           id="path4666"
           fill="black"
           stroke-width="0"
           d="M576.87,420.92 L576.87,420.96 L576.87,421 L576.87,421.05 L576.87,421.09 L576.87,421.12 L576.87,421.16 L576.87,421.2 L576.87,421.23 L576.86,421.27 L576.86,421.3 L576.86,421.33 L576.86,421.36 L576.86,421.39 L576.85,421.42 L576.85,421.45 L576.85,421.47 L576.84,421.5 L576.84,421.52 L576.83,421.55 L576.83,421.57 L576.81,421.61 L576.8,421.65 L576.78,421.68 L576.76,421.71 L576.74,421.74 L576.72,421.77 L576.69,421.79 L576.66,421.81 L576.63,421.83 L576.59,421.84 L576.55,421.85 L576.5,421.87 L576.48,421.87 L576.46,421.87 L576.43,421.88 L576.4,421.88 L576.38,421.89 L576.35,421.89 L576.32,421.89 L576.29,421.89 L576.25,421.89 L576.22,421.9 L576.19,421.9 L576.15,421.9 L576.12,421.9 L576.08,421.9 L576.04,421.9 L576,421.9 L575.96,421.9 L575.91,421.9 L575.87,421.9 L575.82,421.9 C573.59,419.7,570.43,419.67,569,419.67 V418.42 C569.84,418.42,572.14,418.42,574.04,419.39 V401.62 C574.04,400.46,574.04,400.01,570.56,400.01 H569.25 V398.76 C569.87,398.79,574.15,398.9,575.45,398.9 C576.53,398.9,580.92,398.79,581.68,398.76 V400.01 H580.35 C576.87,400.01,576.87,400.46,576.87,401.62 Z " /><path
           id="path4668"
           fill="black"
           stroke-width="0"
           d="M618.93,417.65 H632.84 C633.53,417.65,634.48,417.65,634.48,418.65 C634.48,419.65,633.53,419.65,632.84,419.65 H618.93 V433.61 C618.93,434.29,618.93,435.25,617.93,435.25 C616.95,435.25,616.95,434.29,616.95,433.61 V419.65 H603 C602.29,419.65,601.35,419.65,601.35,418.65 C601.35,417.65,602.29,417.65,603,417.65 H616.95 V403.71 C616.95,403.01,616.95,402.06,617.93,402.06 C618.93,402.06,618.93,403.01,618.93,403.71 Z " /><path
           id="path4670"
           fill="black"
           stroke-width="0"
           d="M677.12,434.54 L677.11,434.89 L677.09,435.24 L677.05,435.57 L676.99,435.91 L676.92,436.24 L676.84,436.56 L676.74,436.88 L676.63,437.19 L676.5,437.49 L676.36,437.78 L676.21,438.07 L676.04,438.34 L675.86,438.61 L675.67,438.87 L675.46,439.12 L675.25,439.36 L675.02,439.58 L674.78,439.8 L674.53,440 L674.26,440.2 L673.99,440.37 L673.71,440.54 L673.41,440.69 L673.11,440.83 L672.8,440.95 L672.47,441.06 L672.14,441.15 L671.8,441.23 L671.45,441.29 L671.09,441.34 L670.73,441.36 L670.35,441.37 C667.46,441.37,666.07,440.57,664.32,439.28 C661.59,437.29,658.84,432.45,657.9,428.67 L649.98,397.03 C649.91,396.84,650.16,396.53,650.57,396.53 C650.96,396.53,651.12,396.64,651.16,396.78 L654.65,410.53 C655.6,407.54,657.79,405.7,661.43,405.7 L661.27,406.79 C657.49,406.79,655.6,409.68,655.6,413.23 C655.6,413.71,655.6,414.46,655.85,415.42 L659.04,428.03 C660.13,432.31,663.73,440.23,669.7,440.23 C672.59,440.23,674.34,438.68,674.34,435.7 H674.34 C674.34,432.2,672.45,428.62,669.85,427.07 C668.51,427.57,667.51,427.67,666.01,427.67 C664.96,427.67,662.18,427.71,662.18,426.07 C662.13,424.68,664.71,424.84,665.62,424.84 L665.76,425.93 C665.07,425.93,664.07,425.87,663.57,426.12 C663.68,426.62,665.46,426.53,666.01,426.53 C667.05,426.53,667.51,426.53,668.15,426.28 H668.15 C667.51,426.03,666.96,425.93,665.76,425.93 L665.62,424.84 C667.46,424.84,668.21,424.89,669.7,425.48 C671.59,423.68,671.84,422.14,671.9,419.86 C671.99,416.96,670.79,413.23,669.4,411.28 C667.46,408.59,664.12,406.79,661.27,406.79 L661.43,405.7 C665.07,405.7,668.8,407.45,671.04,409.64 C673.43,411.93,675.04,415.12,675.04,418.81 C675.04,422.39,673.2,424.98,671.4,426.23 C674.29,427.87,677.12,430.96,677.12,434.54 Z " /><path
           id="path4672"
           fill="black"
           stroke-width="0"
           d="M695.96,421.25 L695.99,421.38 L696.02,421.53 L696.06,421.69 L696.11,421.87 L696.16,422.06 L696.22,422.27 L696.29,422.49 L696.36,422.71 L696.44,422.94 L696.53,423.18 L696.62,423.43 L696.73,423.67 L696.84,423.92 L696.96,424.17 L697.09,424.42 L697.22,424.67 L697.37,424.91 L697.53,425.15 L697.7,425.38 L697.87,425.6 L698.06,425.82 L698.26,426.02 L698.47,426.21 L698.69,426.39 L698.92,426.55 L699.17,426.69 L699.29,426.76 L699.42,426.82 L699.55,426.87 L699.69,426.92 L699.83,426.97 L699.97,427.01 L700.12,427.04 L700.27,427.07 L700.42,427.09 L700.57,427.11 L700.73,427.12 L700.9,427.12 C701.15,427.12,702.33,427.12,703.38,426.48 C701.99,426.23,700.99,424.98,700.99,423.79 C700.99,423,701.53,422.04,702.88,422.04 C703.97,422.04,705.57,422.93,705.57,424.93 C705.57,427.53,702.63,428.21,700.94,428.21 C698.05,428.21,696.3,425.57,695.71,424.43 C694.46,427.71,691.77,428.21,690.33,428.21 C685.15,428.21,682.3,421.79,682.3,420.54 C682.3,420.04,682.8,420.04,682.91,420.04 C683.3,420.04,683.46,420.15,683.55,420.59 C685.24,425.87,688.53,427.12,690.22,427.12 C691.18,427.12,692.91,426.68,692.91,423.79 C692.91,422.25,692.07,418.9,690.22,411.93 C689.43,408.84,687.69,406.75,685.49,406.75 C685.19,406.75,684.05,406.75,683,407.4 C684.25,407.64,685.35,408.68,685.35,410.09 C685.35,411.43,684.25,411.82,683.5,411.82 C682,411.82,680.75,410.53,680.75,408.93 C680.75,406.65,683.25,405.65,685.44,405.65 C688.74,405.65,690.52,409.14,690.68,409.43 C691.27,407.59,693.07,405.65,696.05,405.65 C701.19,405.65,704.03,412.07,704.03,413.32 C704.03,413.82,703.58,413.82,703.43,413.82 C702.99,413.82,702.88,413.62,702.78,413.28 C701.15,407.95,697.75,406.75,696.16,406.75 C694.21,406.75,693.41,408.34,693.41,410.04 C693.41,411.14,693.71,412.23,694.27,414.42 Z " /><path
           id="path4674"
           fill="black"
           stroke-width="0"
           d="M725.35,405.11 H724.17 C724.07,404.34,723.72,402.28,723.26,401.93 C723,401.73,720.31,401.73,719.82,401.73 H713.4 C717.06,404.96,718.28,405.93,720.37,407.57 C722.95,409.64,725.35,411.79,725.35,415.11 C725.35,419.32,721.67,421.9,717.2,421.9 C712.89,421.9,709.95,418.87,709.95,415.67 C709.95,413.89,711.45,413.71,711.81,413.71 C712.64,413.71,713.65,414.31,713.65,415.56 C713.65,416.18,713.4,417.4,711.59,417.4 C712.67,419.87,715.04,420.64,716.68,420.64 C720.17,420.64,721.98,417.93,721.98,415.11 C721.98,412.07,719.82,409.67,718.7,408.42 L710.31,400.12 C709.95,399.81,709.95,399.73,709.95,398.76 H724.31 Z " /><path
           id="path4676"
           fill="black"
           stroke-width="0"
           d="M744.47,418.65 L744.47,419.02 L744.46,419.41 L744.45,419.8 L744.44,420.21 L744.4,421.05 L744.34,421.93 L744.26,422.85 L744.15,423.8 L744.02,424.77 L743.85,425.78 L743.66,426.8 L743.43,427.83 L743.16,428.88 L742.85,429.94 L742.51,431.01 L742.11,432.08 L741.9,432.61 L741.68,433.14 L741.44,433.67 L741.19,434.2 C738.2,440.32,733.92,443.56,733.42,443.56 C733.12,443.56,732.92,443.37,732.92,443.07 C732.92,442.92,732.92,442.82,733.86,441.92 C738.75,437,741.59,429.07,741.59,418.65 C741.59,410.14,739.75,401.37,733.56,395.09 C732.92,394.5,732.92,394.39,732.92,394.25 C732.92,393.95,733.12,393.75,733.42,393.75 C733.92,393.75,738.39,397.14,741.34,403.46 C743.88,408.93,744.47,414.46,744.47,418.65 Z " /></g>    </g>
    <text
       sodipodi:linespacing="125%"
       id="text4774-2-3-8"
       y="151.33075"
       x="239.30904"
       style="font-size:12px;font-style:normal;font-variant:normal;font-weight:normal;font-stretch:normal;line-height:125%;letter-spacing:0px;word-spacing:0px;fill:#008000;fill-opacity:1;stroke:none;font-family:TeX Gyre Schola;-inkscape-font-specification:TeX Gyre Schola"
       xml:space="preserve"><tspan
         style="font-size:10px;font-style:italic;font-variant:normal;font-weight:normal;font-stretch:normal;fill:#008000;font-family:TeX Gyre Schola;-inkscape-font-specification:TeX Gyre Schola Italic"
         y="151.33075"
         x="239.30904"
         sodipodi:role="line"
         id="tspan4786-0">f(αx<tspan
   style="font-size:65%;baseline-shift:sub"
   id="tspan5835">1</tspan>+βx<tspan
   style="font-size:65%;baseline-shift:sub"
   id="tspan5839">2</tspan>) &lt; αf(x<tspan
   style="font-size:65%;baseline-shift:sub"
   id="tspan5843">1</tspan>)+βf(x<tspan
   style="font-size:65%;baseline-shift:sub"
   id="tspan5847">2</tspan>)  </tspan></text>
  </g>
  <g
     inkscape:label="Layer2"
     id="layer2"
     inkscape:groupmode="layer" />
</svg>
