<?xml version="1.0" encoding="UTF-8" standalone="no"?>
<!-- Created with Inkscape (http://www.inkscape.org/) -->

<svg
   xmlns:dc="http://purl.org/dc/elements/1.1/"
   xmlns:cc="http://creativecommons.org/ns#"
   xmlns:rdf="http://www.w3.org/1999/02/22-rdf-syntax-ns#"
   xmlns:svg="http://www.w3.org/2000/svg"
   xmlns="http://www.w3.org/2000/svg"
   xmlns:sodipodi="http://sodipodi.sourceforge.net/DTD/sodipodi-0.dtd"
   xmlns:inkscape="http://www.inkscape.org/namespaces/inkscape"
   sodipodi:docname="convex2.svg"
   inkscape:version="0.48.4 r9939"
   version="1.1"
   id="svg2"
   height="1052.3622047"
   width="744.09448819">
  <sodipodi:namedview
     id="base"
     pagecolor="#ffffff"
     bordercolor="#666666"
     borderopacity="1.0"
     inkscape:pageopacity="0.0"
     inkscape:pageshadow="2"
     inkscape:zoom="1.979899"
     inkscape:cx="212.38698"
     inkscape:cy="896.25603"
     inkscape:document-units="px"
     inkscape:current-layer="layer1"
     showgrid="false"
     inkscape:window-width="1543"
     inkscape:window-height="876"
     inkscape:window-x="57"
     inkscape:window-y="24"
     inkscape:window-maximized="1"
     inkscape:snap-bbox="true" />
  <defs
     id="defs4">
    <marker
       style="overflow:visible;"
       id="Arrow1Lend"
       refX="0.0"
       refY="0.0"
       orient="auto"
       inkscape:stockid="Arrow1Lend">
      <path
         transform="scale(0.8) rotate(180) translate(12.5,0)"
         style="fill-rule:evenodd;stroke:#000000;stroke-width:1.0pt;"
         d="M 0.0,0.0 L 5.0,-5.0 L -12.5,0.0 L 5.0,5.0 L 0.0,0.0 z "
         id="path3762" />
    </marker>
    <marker
       style="overflow:visible"
       id="Arrow1Lstart"
       refX="0.0"
       refY="0.0"
       orient="auto"
       inkscape:stockid="Arrow1Lstart">
      <path
         transform="scale(0.8) translate(12.5,0)"
         style="fill-rule:evenodd;stroke:#000000;stroke-width:1.0pt"
         d="M 0.0,0.0 L 5.0,-5.0 L -12.5,0.0 L 5.0,5.0 L 0.0,0.0 z "
         id="path3759" />
    </marker>
  </defs>
  <metadata
     id="metadata7">
    <rdf:RDF>
      <cc:Work
         rdf:about="">
        <dc:format>image/svg+xml</dc:format>
        <dc:type
           rdf:resource="http://purl.org/dc/dcmitype/StillImage" />
        <dc:title />
      </cc:Work>
    </rdf:RDF>
  </metadata>
  <g
     id="layer1"
     inkscape:groupmode="layer"
     inkscape:label="Layer 1">
    <path
       inkscape:connector-curvature="0"
       id="path2985"
       d="m 100.58272,57.791558 0,167.074242 233.27469,0"
       style="fill:none;stroke:#000000;stroke-width:0.43017656px;stroke-linecap:butt;stroke-linejoin:miter;stroke-opacity:1;marker-start:url(#Arrow1Lstart);marker-mid:none;marker-end:url(#Arrow1Lend)" />
    <path
       sodipodi:nodetypes="cc"
       inkscape:connector-curvature="0"
       id="path4753"
       d="m 109.22145,95.161226 c 0.43588,61.149054 45.90031,224.553984 213.43051,-2.028399"
       style="fill:none;stroke:#000000;stroke-width:0.82942885px;stroke-linecap:butt;stroke-linejoin:miter;stroke-opacity:1" />
    <path
       inkscape:connector-curvature="0"
       id="path4911"
       d="m 131.82491,72.009137 0,-20.708127 208.5965,0 0,107.07617"
       style="fill:#000000;stroke:#000000;stroke-width:1px;stroke-linecap:butt;stroke-linejoin:miter;stroke-opacity:1;opacity:0;fill-opacity:1" />
    <path
       inkscape:connector-curvature="0"
       id="path4001"
       d="m 219.00798,197.61047 73.60016,-66.85643"
       style="fill:none;stroke:#00b900;stroke-width:1.14085352px;stroke-linecap:butt;stroke-linejoin:miter;stroke-opacity:1" />
    <path
       transform="matrix(0.83367479,0,0,0.91704229,142.77843,-53.547682)"
       d="m 182.50001,200.93361 a 1.9642857,1.7857143 0 1 1 -3.92857,0 1.9642857,1.7857143 0 1 1 3.92857,0 z"
       sodipodi:ry="1.7857143"
       sodipodi:rx="1.9642857"
       sodipodi:cy="200.93361"
       sodipodi:cx="180.53572"
       id="path3009-0-0"
       style="fill:#000000;fill-opacity:1;fill-rule:nonzero;stroke:#000000;stroke-width:0.829;stroke-linecap:butt;stroke-miterlimit:4;stroke-opacity:1;stroke-dasharray:none;stroke-dashoffset:0"
       sodipodi:type="arc" />
    <path
       inkscape:connector-curvature="0"
       id="path4001-1"
       d="M 220.25147,196.57578 111.56411,123.53312"
       style="fill:none;stroke:#00b900;stroke-width:1.44909453px;stroke-linecap:butt;stroke-linejoin:miter;stroke-opacity:1" />
    <path
       transform="matrix(0.83367479,0,0,0.91704229,-38.822787,-60.309117)"
       d="m 182.50001,200.93361 a 1.9642857,1.7857143 0 1 1 -3.92857,0 1.9642857,1.7857143 0 1 1 3.92857,0 z"
       sodipodi:ry="1.7857143"
       sodipodi:rx="1.9642857"
       sodipodi:cy="200.93361"
       sodipodi:cx="180.53572"
       id="path3009"
       style="fill:#000000;fill-opacity:1;fill-rule:nonzero;stroke:#000000;stroke-width:0.829;stroke-linecap:butt;stroke-miterlimit:4;stroke-opacity:1;stroke-dasharray:none;stroke-dashoffset:0"
       sodipodi:type="arc" />
    <path
       transform="matrix(0.83367479,0,0,0.91704229,69.235993,12.3225)"
       d="m 182.50001,200.93361 a 1.9642857,1.7857143 0 1 1 -3.92857,0 1.9642857,1.7857143 0 1 1 3.92857,0 z"
       sodipodi:ry="1.7857143"
       sodipodi:rx="1.9642857"
       sodipodi:cy="200.93361"
       sodipodi:cx="180.53572"
       id="path3009-0"
       style="fill:#000000;fill-opacity:1;fill-rule:nonzero;stroke:#000000;stroke-width:0.829;stroke-linecap:butt;stroke-miterlimit:4;stroke-opacity:1;stroke-dasharray:none;stroke-dashoffset:0"
       sodipodi:type="arc" />
    <path
       style="fill:none;stroke:#000000;stroke-width:1;stroke-linecap:butt;stroke-linejoin:miter;stroke-opacity:1;stroke-miterlimit:4;stroke-dasharray:1,1;stroke-dashoffset:0"
       d="m 111.60714,123.79075 0,100.53572"
       id="path5676"
       inkscape:connector-curvature="0" />
    <path
       style="fill:none;stroke:#000000;stroke-width:1;stroke-linecap:butt;stroke-linejoin:miter;stroke-opacity:1;stroke-miterlimit:4;stroke-dasharray:1,1;stroke-dashoffset:0"
       d="m 219.64286,196.6479 0,28.21428"
       id="path5678"
       inkscape:connector-curvature="0" />
    <path
       style="fill:none;stroke:#000000;stroke-width:1;stroke-linecap:butt;stroke-linejoin:miter;stroke-opacity:1;stroke-miterlimit:4;stroke-dasharray:1,1;stroke-dashoffset:0"
       d="m 293.39286,130.75504 0,93.92857"
       id="path5680"
       inkscape:connector-curvature="0" />
    <g
       id="g5933"
       transform="matrix(0.28329876,0,0,0.28329876,0.78641614,-49.758617)">
      <g
         word-spacing="normal"
         letter-spacing="normal"
         font-size-adjust="none"
         font-stretch="normal"
         font-weight="normal"
         font-variant="normal"
         font-style="normal"
         stroke-miterlimit="10.433"
         xml:space="preserve"
         transform="matrix(1.0629921,0,0,-1.0629921,-186.02362,789.27165)"
         id="content"
         style="font-style:normal;font-variant:normal;font-weight:normal;font-stretch:normal;letter-spacing:normal;word-spacing:normal;text-anchor:start;fill:none;stroke:#000000;stroke-linecap:butt;stroke-linejoin:miter;stroke-miterlimit:10.43299961;stroke-opacity:1;stroke-dasharray:none;stroke-dashoffset:0"><path
           id="path5936"
           d="m 473.8,426.12 h 4.28 c 1,0 1.5,0 1.5,1 0,0.55 -0.5,0.55 -1.34,0.55 h -4.14 l 1.04,5.69 c 0.21,1.04 0.91,4.57 1.21,5.17 0.45,0.95 1.29,1.7 2.34,1.7 0.19,0 1.49,0 2.44,-0.91 -2.19,-0.18 -2.69,-1.93 -2.69,-2.68 0,-1.14 0.89,-1.74 1.85,-1.74 1.29,0 2.73,1.1 2.73,2.99 0,2.29 -2.3,3.43 -4.33,3.43 -1.7,0 -4.84,-0.89 -6.33,-5.82 -0.29,-1.05 -0.45,-1.55 -1.64,-7.83 h -3.43 c -0.96,0 -1.5,0 -1.5,-0.94 0,-0.61 0.45,-0.61 1.39,-0.61 h 3.29 l -3.75,-19.67 c -0.89,-4.83 -1.73,-9.38 -4.33,-9.38 -0.2,0 -1.43,0 -2.39,0.91 2.3,0.14 2.74,1.94 2.74,2.69 0,1.14 -0.89,1.75 -1.85,1.75 -1.29,0 -2.73,-1.1 -2.73,-3 0,-2.24 2.19,-3.44 4.23,-3.44 2.74,0 4.74,2.94 5.63,4.84 1.59,3.14 2.75,9.16 2.8,9.52 z"
           inkscape:connector-curvature="0"
           style="fill:#000000;stroke-width:0" /><path
           id="path5938"
           d="m 501.77,394.25 0,0.02 -0.01,0.03 0,0.01 0,0.02 0,0.01 -0.01,0.02 0,0.01 -0.01,0.02 -0.01,0.02 -0.01,0.02 -0.01,0.02 -0.01,0.03 -0.02,0.02 -0.02,0.03 -0.02,0.03 -0.02,0.03 -0.03,0.03 -0.03,0.04 -0.02,0.02 -0.01,0.02 -0.02,0.02 -0.02,0.02 -0.02,0.02 -0.02,0.03 -0.02,0.02 -0.02,0.02 -0.02,0.03 -0.03,0.02 -0.02,0.03 -0.03,0.03 -0.02,0.03 -0.03,0.03 -0.03,0.03 -0.03,0.03 -0.03,0.03 -0.03,0.03 -0.04,0.04 -0.03,0.03 -0.03,0.04 -0.04,0.03 -0.04,0.04 -0.04,0.04 c -6.22,6.28 -7.81,15.69 -7.81,23.31 0,8.67 1.89,17.35 8.01,23.56 0.65,0.61 0.65,0.71 0.65,0.86 0,0.35 -0.19,0.49 -0.49,0.49 -0.5,0 -4.98,-3.38 -7.92,-9.7 -2.55,-5.49 -3.14,-11.02 -3.14,-15.21 0,-3.89 0.55,-9.9 3.28,-15.54 2.98,-6.13 7.28,-9.36 7.78,-9.36 0.3,0 0.49,0.14 0.49,0.5 z"
           inkscape:connector-curvature="0"
           style="fill:#000000;stroke-width:0" /><path
           id="path5940"
           d="m 521.24,421.25 0.03,0.13 0.03,0.15 0.05,0.16 0.04,0.18 0.05,0.19 0.06,0.21 0.07,0.22 0.07,0.22 0.08,0.23 0.09,0.24 0.09,0.25 0.11,0.24 0.11,0.25 0.12,0.25 0.13,0.25 0.14,0.25 0.14,0.24 0.16,0.24 0.17,0.23 0.17,0.22 0.19,0.22 0.2,0.2 0.21,0.19 0.22,0.18 0.23,0.16 0.25,0.14 0.12,0.07 0.13,0.06 0.14,0.05 0.13,0.05 0.14,0.05 0.14,0.04 0.15,0.03 0.15,0.03 0.15,0.02 0.15,0.02 0.16,0.01 0.17,0 c 0.25,0 1.43,0 2.48,-0.64 -1.39,-0.25 -2.39,-1.5 -2.39,-2.69 0,-0.79 0.55,-1.75 1.89,-1.75 1.09,0 2.69,0.89 2.69,2.89 0,2.6 -2.94,3.28 -4.63,3.28 -2.89,0 -4.64,-2.64 -5.23,-3.78 -1.25,3.28 -3.94,3.78 -5.38,3.78 -5.18,0 -8.03,-6.42 -8.03,-7.67 0,-0.5 0.5,-0.5 0.61,-0.5 0.39,0 0.55,0.11 0.64,0.55 1.69,5.28 4.99,6.53 6.67,6.53 0.96,0 2.69,-0.44 2.69,-3.33 0,-1.54 -0.84,-4.89 -2.69,-11.86 -0.79,-3.09 -2.53,-5.18 -4.73,-5.18 -0.3,0 -1.44,0 -2.48,0.65 1.25,0.24 2.34,1.28 2.34,2.69 0,1.34 -1.09,1.73 -1.84,1.73 -1.5,0 -2.75,-1.29 -2.75,-2.89 0,-2.28 2.5,-3.28 4.68,-3.28 3.3,0 5.08,3.49 5.24,3.78 0.59,-1.84 2.39,-3.78 5.37,-3.78 5.14,0 7.99,6.42 7.99,7.67 0,0.5 -0.46,0.5 -0.61,0.5 -0.44,0 -0.55,-0.2 -0.64,-0.54 -1.64,-5.33 -5.04,-6.53 -6.63,-6.53 -1.95,0 -2.75,1.59 -2.75,3.29 0,1.1 0.3,2.19 0.86,4.38 z"
           inkscape:connector-curvature="0"
           style="fill:#000000;stroke-width:0" /><path
           id="path5942"
           d="m 547.43,418.65 -0.01,0.37 0,0.39 -0.01,0.39 -0.01,0.41 -0.04,0.84 -0.06,0.88 -0.08,0.92 -0.11,0.95 -0.14,0.97 -0.16,1.01 -0.2,1.02 -0.23,1.03 -0.26,1.05 -0.31,1.06 -0.35,1.07 -0.39,1.07 -0.21,0.53 -0.23,0.53 -0.24,0.53 -0.24,0.53 c -2.99,6.12 -7.27,9.36 -7.77,9.36 -0.3,0 -0.5,-0.19 -0.5,-0.49 0,-0.15 0,-0.25 0.94,-1.15 4.89,-4.92 7.73,-12.85 7.73,-23.27 0,-8.51 -1.84,-17.28 -8.03,-23.56 -0.64,-0.59 -0.64,-0.7 -0.64,-0.84 0,-0.3 0.2,-0.5 0.5,-0.5 0.5,0 4.97,3.39 7.92,9.71 2.53,5.47 3.13,11 3.13,15.19 z"
           inkscape:connector-curvature="0"
           style="fill:#000000;stroke-width:0" /></g>    </g>
    <g
       transform="matrix(0.29189651,0,0,0.29189651,249.58983,124.53326)"
       id="g6046">
      <g
         style="font-style:normal;font-variant:normal;font-weight:normal;font-stretch:normal;letter-spacing:normal;word-spacing:normal;text-anchor:start;fill:none;stroke:#000000;stroke-linecap:butt;stroke-linejoin:miter;stroke-miterlimit:10.43299961;stroke-opacity:1;stroke-dasharray:none;stroke-dashoffset:0"
         id="g6048"
         transform="matrix(1.0629921,0,0,-1.0629921,-186.02362,789.27165)"
         xml:space="preserve"
         stroke-miterlimit="10.433"
         font-style="normal"
         font-variant="normal"
         font-weight="normal"
         font-stretch="normal"
         font-size-adjust="none"
         letter-spacing="normal"
         word-spacing="normal"><path
           style="fill:#000000;stroke-width:0"
           inkscape:connector-curvature="0"
           d="m 472.16,421.25 0.03,0.13 0.04,0.15 0.04,0.16 0.04,0.18 0.06,0.19 0.06,0.21 0.06,0.22 0.07,0.22 0.08,0.23 0.09,0.24 0.1,0.25 0.1,0.24 0.11,0.25 0.12,0.25 0.13,0.25 0.14,0.25 0.15,0.24 0.15,0.24 0.17,0.23 0.18,0.22 0.18,0.22 0.2,0.2 0.21,0.19 0.22,0.18 0.23,0.16 0.25,0.14 0.12,0.07 0.13,0.06 0.14,0.05 0.13,0.05 0.14,0.05 0.14,0.04 0.15,0.03 0.15,0.03 0.15,0.02 0.16,0.02 0.16,0.01 0.16,0 c 0.25,0 1.44,0 2.48,-0.64 -1.39,-0.25 -2.39,-1.5 -2.39,-2.69 0,-0.79 0.55,-1.75 1.89,-1.75 1.1,0 2.69,0.89 2.69,2.89 0,2.6 -2.94,3.28 -4.63,3.28 -2.89,0 -4.64,-2.64 -5.23,-3.78 -1.25,3.28 -3.94,3.78 -5.37,3.78 -5.19,0 -8.04,-6.42 -8.04,-7.67 0,-0.5 0.5,-0.5 0.61,-0.5 0.39,0 0.55,0.11 0.64,0.55 1.69,5.28 4.99,6.53 6.68,6.53 0.95,0 2.68,-0.44 2.68,-3.33 0,-1.54 -0.84,-4.89 -2.68,-11.86 -0.8,-3.09 -2.54,-5.18 -4.74,-5.18 -0.3,0 -1.44,0 -2.48,0.65 1.25,0.24 2.34,1.28 2.34,2.69 0,1.34 -1.09,1.73 -1.84,1.73 -1.5,0 -2.75,-1.29 -2.75,-2.89 0,-2.28 2.5,-3.28 4.68,-3.28 3.3,0 5.08,3.49 5.24,3.78 0.59,-1.84 2.39,-3.78 5.37,-3.78 5.14,0 7.99,6.42 7.99,7.67 0,0.5 -0.45,0.5 -0.61,0.5 -0.44,0 -0.55,-0.2 -0.64,-0.54 -1.64,-5.33 -5.03,-6.53 -6.63,-6.53 -1.95,0 -2.75,1.59 -2.75,3.29 0,1.1 0.3,2.19 0.86,4.38 z"
           id="path6050" /></g>    </g>
    <g
       id="g6156"
       transform="matrix(0.28749293,0,0,0.28749293,20.26636,131.82297)">
      <g
         word-spacing="normal"
         letter-spacing="normal"
         font-size-adjust="none"
         font-stretch="normal"
         font-weight="normal"
         font-variant="normal"
         font-style="normal"
         stroke-miterlimit="10.433"
         xml:space="preserve"
         transform="matrix(1.0629921,0,0,-1.0629921,-186.02362,789.27165)"
         id="g6158"
         style="font-style:normal;font-variant:normal;font-weight:normal;font-stretch:normal;letter-spacing:normal;word-spacing:normal;text-anchor:start;fill:none;stroke:#000000;stroke-linecap:butt;stroke-linejoin:miter;stroke-miterlimit:10.43299961;stroke-opacity:1;stroke-dasharray:none;stroke-dashoffset:0"><path
           id="path6160"
           d="m 472.16,421.25 0.03,0.13 0.04,0.15 0.04,0.16 0.04,0.18 0.06,0.19 0.06,0.21 0.06,0.22 0.07,0.22 0.08,0.23 0.09,0.24 0.1,0.25 0.1,0.24 0.11,0.25 0.12,0.25 0.13,0.25 0.14,0.25 0.15,0.24 0.15,0.24 0.17,0.23 0.18,0.22 0.18,0.22 0.2,0.2 0.21,0.19 0.22,0.18 0.23,0.16 0.25,0.14 0.12,0.07 0.13,0.06 0.14,0.05 0.13,0.05 0.14,0.05 0.14,0.04 0.15,0.03 0.15,0.03 0.15,0.02 0.16,0.02 0.16,0.01 0.16,0 c 0.25,0 1.44,0 2.48,-0.64 -1.39,-0.25 -2.39,-1.5 -2.39,-2.69 0,-0.79 0.55,-1.75 1.89,-1.75 1.1,0 2.69,0.89 2.69,2.89 0,2.6 -2.94,3.28 -4.63,3.28 -2.89,0 -4.64,-2.64 -5.23,-3.78 -1.25,3.28 -3.94,3.78 -5.37,3.78 -5.19,0 -8.04,-6.42 -8.04,-7.67 0,-0.5 0.5,-0.5 0.61,-0.5 0.39,0 0.55,0.11 0.64,0.55 1.69,5.28 4.99,6.53 6.68,6.53 0.95,0 2.68,-0.44 2.68,-3.33 0,-1.54 -0.84,-4.89 -2.68,-11.86 -0.8,-3.09 -2.54,-5.18 -4.74,-5.18 -0.3,0 -1.44,0 -2.48,0.65 1.25,0.24 2.34,1.28 2.34,2.69 0,1.34 -1.09,1.73 -1.84,1.73 -1.5,0 -2.75,-1.29 -2.75,-2.89 0,-2.28 2.5,-3.28 4.68,-3.28 3.3,0 5.08,3.49 5.24,3.78 0.59,-1.84 2.39,-3.78 5.37,-3.78 5.14,0 7.99,6.42 7.99,7.67 0,0.5 -0.45,0.5 -0.61,0.5 -0.44,0 -0.55,-0.2 -0.64,-0.54 -1.64,-5.33 -5.03,-6.53 -6.63,-6.53 -1.95,0 -2.75,1.59 -2.75,3.29 0,1.1 0.3,2.19 0.86,4.38 z"
           inkscape:connector-curvature="0"
           style="fill:#000000;stroke-width:0" /><path
           id="path6162"
           d="m 495.63,420.92 0,0.04 0,0.04 0,0.05 0,0.04 0,0.03 0,0.04 0,0.04 0,0.03 0,0.04 0,0.03 -0.01,0.03 0,0.03 0,0.03 -0.01,0.03 0,0.03 0,0.02 -0.01,0.03 0,0.02 -0.01,0.03 0,0.02 -0.01,0.04 -0.02,0.04 -0.02,0.03 -0.02,0.03 -0.02,0.03 -0.02,0.03 -0.03,0.02 -0.03,0.02 -0.03,0.02 -0.04,0.01 -0.04,0.01 -0.05,0.02 -0.02,0 -0.02,0 -0.03,0.01 -0.03,0 -0.02,0.01 -0.03,0 -0.03,0 -0.03,0 -0.03,0 -0.04,0.01 -0.03,0 -0.04,0 -0.03,0 -0.04,0 -0.04,0 -0.04,0 -0.04,0 -0.04,0 -0.05,0 -0.04,0 c -2.24,-2.2 -5.39,-2.23 -6.83,-2.23 v -1.25 c 0.84,0 3.14,0 5.04,0.97 v -17.77 c 0,-1.16 0,-1.61 -3.48,-1.61 h -1.31 v -1.25 c 0.62,0.03 4.9,0.14 6.2,0.14 1.08,0 5.47,-0.11 6.24,-0.14 v 1.25 h -1.33 c -3.49,0 -3.49,0.45 -3.49,1.61 z"
           inkscape:connector-curvature="0"
           style="fill:#000000;stroke-width:0" /></g>    </g>
    <g
       transform="matrix(0.28749293,0,0,0.28749293,127.84761,131.82297)"
       id="g6271">
      <g
         style="font-style:normal;font-variant:normal;font-weight:normal;font-stretch:normal;letter-spacing:normal;word-spacing:normal;text-anchor:start;fill:none;stroke:#000000;stroke-linecap:butt;stroke-linejoin:miter;stroke-miterlimit:10.43299961;stroke-opacity:1;stroke-dasharray:none;stroke-dashoffset:0"
         id="g6273"
         transform="matrix(1.0629921,0,0,-1.0629921,-186.02362,789.27165)"
         xml:space="preserve"
         stroke-miterlimit="10.433"
         font-style="normal"
         font-variant="normal"
         font-weight="normal"
         font-stretch="normal"
         font-size-adjust="none"
         letter-spacing="normal"
         word-spacing="normal"><path
           style="fill:#000000;stroke-width:0"
           inkscape:connector-curvature="0"
           d="m 472.16,421.25 0.03,0.13 0.04,0.15 0.04,0.16 0.04,0.18 0.06,0.19 0.06,0.21 0.06,0.22 0.07,0.22 0.08,0.23 0.09,0.24 0.1,0.25 0.1,0.24 0.11,0.25 0.12,0.25 0.13,0.25 0.14,0.25 0.15,0.24 0.15,0.24 0.17,0.23 0.18,0.22 0.18,0.22 0.2,0.2 0.21,0.19 0.22,0.18 0.23,0.16 0.25,0.14 0.12,0.07 0.13,0.06 0.14,0.05 0.13,0.05 0.14,0.05 0.14,0.04 0.15,0.03 0.15,0.03 0.15,0.02 0.16,0.02 0.16,0.01 0.16,0 c 0.25,0 1.44,0 2.48,-0.64 -1.39,-0.25 -2.39,-1.5 -2.39,-2.69 0,-0.79 0.55,-1.75 1.89,-1.75 1.1,0 2.69,0.89 2.69,2.89 0,2.6 -2.94,3.28 -4.63,3.28 -2.89,0 -4.64,-2.64 -5.23,-3.78 -1.25,3.28 -3.94,3.78 -5.37,3.78 -5.19,0 -8.04,-6.42 -8.04,-7.67 0,-0.5 0.5,-0.5 0.61,-0.5 0.39,0 0.55,0.11 0.64,0.55 1.69,5.28 4.99,6.53 6.68,6.53 0.95,0 2.68,-0.44 2.68,-3.33 0,-1.54 -0.84,-4.89 -2.68,-11.86 -0.8,-3.09 -2.54,-5.18 -4.74,-5.18 -0.3,0 -1.44,0 -2.48,0.65 1.25,0.24 2.34,1.28 2.34,2.69 0,1.34 -1.09,1.73 -1.84,1.73 -1.5,0 -2.75,-1.29 -2.75,-2.89 0,-2.28 2.5,-3.28 4.68,-3.28 3.3,0 5.08,3.49 5.24,3.78 0.59,-1.84 2.39,-3.78 5.37,-3.78 5.14,0 7.99,6.42 7.99,7.67 0,0.5 -0.45,0.5 -0.61,0.5 -0.44,0 -0.55,-0.2 -0.64,-0.54 -1.64,-5.33 -5.03,-6.53 -6.63,-6.53 -1.95,0 -2.75,1.59 -2.75,3.29 0,1.1 0.3,2.19 0.86,4.38 z"
           id="path6275" /><path
           style="fill:#000000;stroke-width:0"
           inkscape:connector-curvature="0"
           d="m 501.55,405.11 h -1.18 c -0.1,-0.77 -0.46,-2.83 -0.91,-3.18 -0.26,-0.2 -2.95,-0.2 -3.44,-0.2 h -6.42 c 3.66,3.23 4.88,4.2 6.97,5.84 2.58,2.07 4.98,4.22 4.98,7.54 0,4.21 -3.68,6.79 -8.15,6.79 -4.31,0 -7.25,-3.03 -7.25,-6.23 0,-1.78 1.5,-1.96 1.86,-1.96 0.83,0 1.84,0.6 1.84,1.85 0,0.62 -0.25,1.84 -2.06,1.84 1.08,2.47 3.45,3.24 5.09,3.24 3.49,0 5.3,-2.71 5.3,-5.53 0,-3.04 -2.16,-5.44 -3.28,-6.69 l -8.39,-8.3 c -0.36,-0.31 -0.36,-0.39 -0.36,-1.36 h 14.36 z"
           id="path6277" /></g>    </g>
    <g
       id="g6388"
       transform="matrix(0.28081814,0,0,0.28081814,201.06394,134.05294)">
      <g
         word-spacing="normal"
         letter-spacing="normal"
         font-size-adjust="none"
         font-stretch="normal"
         font-weight="normal"
         font-variant="normal"
         font-style="normal"
         stroke-miterlimit="10.433"
         xml:space="preserve"
         transform="matrix(1.0629921,0,0,-1.0629921,-186.02362,789.27165)"
         id="g6390"
         style="font-style:normal;font-variant:normal;font-weight:normal;font-stretch:normal;letter-spacing:normal;word-spacing:normal;text-anchor:start;fill:none;stroke:#000000;stroke-linecap:butt;stroke-linejoin:miter;stroke-miterlimit:10.43299961;stroke-opacity:1;stroke-dasharray:none;stroke-dashoffset:0"><path
           id="path6392"
           d="m 472.16,421.25 0.03,0.13 0.04,0.15 0.04,0.16 0.04,0.18 0.06,0.19 0.06,0.21 0.06,0.22 0.07,0.22 0.08,0.23 0.09,0.24 0.1,0.25 0.1,0.24 0.11,0.25 0.12,0.25 0.13,0.25 0.14,0.25 0.15,0.24 0.15,0.24 0.17,0.23 0.18,0.22 0.18,0.22 0.2,0.2 0.21,0.19 0.22,0.18 0.23,0.16 0.25,0.14 0.12,0.07 0.13,0.06 0.14,0.05 0.13,0.05 0.14,0.05 0.14,0.04 0.15,0.03 0.15,0.03 0.15,0.02 0.16,0.02 0.16,0.01 0.16,0 c 0.25,0 1.44,0 2.48,-0.64 -1.39,-0.25 -2.39,-1.5 -2.39,-2.69 0,-0.79 0.55,-1.75 1.89,-1.75 1.1,0 2.69,0.89 2.69,2.89 0,2.6 -2.94,3.28 -4.63,3.28 -2.89,0 -4.64,-2.64 -5.23,-3.78 -1.25,3.28 -3.94,3.78 -5.37,3.78 -5.19,0 -8.04,-6.42 -8.04,-7.67 0,-0.5 0.5,-0.5 0.61,-0.5 0.39,0 0.55,0.11 0.64,0.55 1.69,5.28 4.99,6.53 6.68,6.53 0.95,0 2.68,-0.44 2.68,-3.33 0,-1.54 -0.84,-4.89 -2.68,-11.86 -0.8,-3.09 -2.54,-5.18 -4.74,-5.18 -0.3,0 -1.44,0 -2.48,0.65 1.25,0.24 2.34,1.28 2.34,2.69 0,1.34 -1.09,1.73 -1.84,1.73 -1.5,0 -2.75,-1.29 -2.75,-2.89 0,-2.28 2.5,-3.28 4.68,-3.28 3.3,0 5.08,3.49 5.24,3.78 0.59,-1.84 2.39,-3.78 5.37,-3.78 5.14,0 7.99,6.42 7.99,7.67 0,0.5 -0.45,0.5 -0.61,0.5 -0.44,0 -0.55,-0.2 -0.64,-0.54 -1.64,-5.33 -5.03,-6.53 -6.63,-6.53 -1.95,0 -2.75,1.59 -2.75,3.29 0,1.1 0.3,2.19 0.86,4.38 z"
           inkscape:connector-curvature="0"
           style="fill:#000000;stroke-width:0" /><path
           id="path6394"
           d="m 493.48,410.4 0.25,0 0.25,-0.02 0.24,-0.03 0.24,-0.04 0.23,-0.05 0.23,-0.06 0.22,-0.07 0.21,-0.08 0.21,-0.1 0.2,-0.1 0.2,-0.12 0.19,-0.12 0.18,-0.14 0.18,-0.15 0.16,-0.16 0.16,-0.17 0.15,-0.18 0.15,-0.19 0.13,-0.2 0.13,-0.22 0.11,-0.22 0.11,-0.24 0.1,-0.24 0.09,-0.26 0.08,-0.27 0.07,-0.28 0.06,-0.29 0.05,-0.3 0.04,-0.31 0.03,-0.32 0.01,-0.33 0.01,-0.35 c 0,-4.33 -2.52,-5.61 -4.53,-5.61 -1.39,0 -4.47,0.38 -5.92,2.44 1.62,0.06 2.01,1.22 2.01,1.95 0,1.11 -0.84,1.91 -1.92,1.91 -0.97,0 -1.95,-0.59 -1.95,-2.02 0,-3.28 3.62,-5.4 7.84,-5.4 4.84,0 8.19,3.25 8.19,6.73 0,2.72 -2.22,5.44 -6.07,6.24 3.66,1.33 4.99,3.93 4.99,6.06 0,2.75 -3.17,4.81 -7.03,4.81 -3.88,0 -6.83,-1.89 -6.83,-4.67 0,-1.19 0.77,-1.84 1.81,-1.84 1.08,0 1.77,0.79 1.77,1.76 0,1.02 -0.69,1.75 -1.77,1.81 1.22,1.55 3.61,1.93 4.91,1.93 1.56,0 3.76,-0.77 3.76,-3.8 0,-1.47 -0.48,-3.06 -1.39,-4.14 -1.15,-1.33 -2.12,-1.41 -3.87,-1.5 -0.88,-0.08 -0.94,-0.08 -1.11,-0.11 -0.08,0 -0.36,-0.06 -0.36,-0.45 0,-0.49 0.31,-0.49 0.91,-0.49 z"
           inkscape:connector-curvature="0"
           style="fill:#000000;stroke-width:0" /></g>    </g>
    <g
       id="g6713"
       transform="matrix(0.20775243,0,0,0.20775243,92.539538,43.423016)"
       style="fill:#008000">
      <path
         style="font-style:normal;font-variant:normal;font-weight:normal;font-stretch:normal;letter-spacing:normal;word-spacing:normal;text-anchor:start;fill:#008000;stroke:#000000;stroke-width:0;stroke-linecap:butt;stroke-linejoin:miter;stroke-miterlimit:10.43299961;stroke-opacity:1;stroke-dasharray:none;stroke-dashoffset:0"
         inkscape:connector-curvature="0"
         d="m 407.5744,418.96839 h 4.5496 c 1.063,0 1.59449,0 1.59449,-1.063 0,-0.58464 -0.53149,-0.58464 -1.42441,-0.58464 h -4.40079 l 1.10552,-6.04843 c 0.22322,-1.10551 0.96732,-4.85787 1.28622,-5.49567 0.47834,-1.00984 1.37126,-1.80708 2.4874,-1.80708 0.20197,0 1.58386,0 2.5937,0.96732 -2.32795,0.19134 -2.85945,2.05158 -2.85945,2.84882 0,1.21181 0.94606,1.84961 1.96654,1.84961 1.37126,0 2.90196,-1.1693 2.90196,-3.17835 0,-2.43425 -2.44488,-3.64606 -4.60275,-3.64606 -1.80709,0 -5.14488,0.94606 -6.72874,6.18661 -0.30827,1.11614 -0.47835,1.64764 -1.74331,8.32323 h -3.64606 c -1.02047,0 -1.59449,0 -1.59449,0.99921 0,0.64843 0.47835,0.64843 1.47756,0.64843 h 3.49724 l -3.98622,20.90905 c -0.94606,5.13425 -1.83897,9.97087 -4.60275,9.97087 -0.2126,0 -1.52008,0 -2.54055,-0.96733 2.44488,-0.14881 2.91259,-2.0622 2.91259,-2.85944 0,-1.21182 -0.94606,-1.86024 -1.96653,-1.86024 -1.37126,0 -2.90197,1.16929 -2.90197,3.18898 0,2.3811 2.32795,3.65669 4.49646,3.65669 2.9126,0 5.03858,-3.1252 5.98464,-5.14488 1.69016,-3.3378 2.92323,-9.73701 2.97638,-10.11969 z"
         id="path6717" />
      <path
         style="font-style:normal;font-variant:normal;font-weight:normal;font-stretch:normal;letter-spacing:normal;word-spacing:normal;text-anchor:start;fill:#008000;stroke:#000000;stroke-width:0;stroke-linecap:butt;stroke-linejoin:miter;stroke-miterlimit:10.43299961;stroke-opacity:1;stroke-dasharray:none;stroke-dashoffset:0"
         inkscape:connector-curvature="0"
         d="m 437.30629,452.84594 0,-0.0213 -0.0106,-0.0319 0,-0.0106 0,-0.0213 0,-0.0106 -0.0106,-0.0213 0,-0.0106 -0.0106,-0.0213 -0.0106,-0.0213 -0.0106,-0.0213 -0.0106,-0.0213 -0.0106,-0.0319 -0.0213,-0.0213 -0.0213,-0.0319 -0.0213,-0.0319 -0.0213,-0.0319 -0.0319,-0.0319 -0.0319,-0.0425 -0.0213,-0.0213 -0.0106,-0.0213 -0.0213,-0.0213 -0.0213,-0.0213 -0.0213,-0.0213 -0.0213,-0.0319 -0.0213,-0.0213 -0.0213,-0.0213 -0.0213,-0.0319 -0.0319,-0.0213 -0.0213,-0.0319 -0.0319,-0.0319 -0.0213,-0.0319 -0.0319,-0.0319 -0.0319,-0.0319 -0.0319,-0.0319 -0.0319,-0.0319 -0.0319,-0.0319 -0.0425,-0.0425 -0.0319,-0.0319 -0.0319,-0.0425 -0.0425,-0.0319 -0.0425,-0.0425 -0.0425,-0.0425 c -6.61181,-6.67559 -8.30197,-16.67834 -8.30197,-24.77834 0,-9.21614 2.00906,-18.44292 8.51457,-25.0441 0.69095,-0.64842 0.69095,-0.75472 0.69095,-0.91417 0,-0.37205 -0.20197,-0.52087 -0.52087,-0.52087 -0.5315,0 -5.2937,3.59292 -8.4189,10.31103 -2.71063,5.83582 -3.33779,11.71417 -3.33779,16.16811 0,4.13504 0.58464,10.52362 3.48661,16.51889 3.16772,6.51615 7.73858,9.94961 8.27008,9.94961 0.3189,0 0.52087,-0.14882 0.52087,-0.5315 z"
         id="path6719" />
      <path
         style="font-style:normal;font-variant:normal;font-weight:normal;font-stretch:normal;letter-spacing:normal;word-spacing:normal;text-anchor:start;fill:#008000;stroke:#000000;stroke-width:0;stroke-linecap:butt;stroke-linejoin:miter;stroke-miterlimit:10.43299961;stroke-opacity:1;stroke-dasharray:none;stroke-dashoffset:0"
         inkscape:connector-curvature="0"
         d="m 465.57125,427.6424 0,-0.39331 -0.0106,-0.37204 -0.0213,-0.37205 -0.0213,-0.36142 -0.0638,-0.69094 -0.0957,-0.66969 -0.12756,-0.62716 -0.13819,-0.60591 -0.15945,-0.57401 -0.19134,-0.54213 -0.20197,-0.52087 -0.23385,-0.47834 -0.23386,-0.46772 -0.26575,-0.4252 -0.27638,-0.40393 -0.28701,-0.38268 -0.30826,-0.35079 -0.3189,-0.32952 -0.32953,-0.30827 -0.34016,-0.27638 -0.34015,-0.25512 -0.36142,-0.23386 -0.36142,-0.21259 -0.37205,-0.19134 -0.37204,-0.17008 -0.38268,-0.14882 -0.38268,-0.12756 -0.38268,-0.11693 -0.38267,-0.0957 -0.38268,-0.0638 -0.38268,-0.0638 -0.37204,-0.0425 -0.38268,-0.0213 -0.37205,0 -0.0425,1.15866 c 5.25118,0 5.25118,6.94134 5.25118,11.06575 0,1.95591 0,5.02795 0.0957,5.92087 h 0 c -4.64527,4.09252 -8.73779,4.66653 -10.84252,4.66653 -3.18897,0 -4.77283,-2.39173 -4.77283,-5.77204 0,-2.5937 1.38189,-8.3126 3.07205,-11.0126 2.47677,-3.86929 5.34685,-4.86851 7.19645,-4.86851 l 0.0425,-1.15866 c -7.23897,0 -14.23346,7.56851 -14.23346,15.03071 0,4.93228 3.17834,8.95039 8.57834,8.95039 3.3378,0 7.15394,-1.21181 11.17205,-4.45393 0.70158,2.8063 2.44488,4.45393 4.81535,4.45393 2.81693,0 4.45394,-2.91259 4.45394,-3.75236 0,-0.38267 -0.30827,-0.53149 -0.62716,-0.53149 -0.38268,0 -0.5315,0.14882 -0.70158,0.53149 -0.94606,2.58307 -2.85945,2.58307 -2.95512,2.58307 -1.64763,0 -1.64763,-4.13504 -1.64763,-5.38937 0,-1.11614 0,-1.23307 0.53149,-1.86023 4.98543,-6.2504 6.10158,-12.39449 6.10158,-12.44764 0,-0.11693 -0.0744,-0.5315 -0.64843,-0.5315 -0.53149,0 -0.53149,0.14882 -0.79724,1.11615 -0.94607,3.33779 -2.68937,7.3559 -5.1874,10.4811 z"
         id="path6721" />
      <path
         style="font-style:normal;font-variant:normal;font-weight:normal;font-stretch:normal;letter-spacing:normal;word-spacing:normal;text-anchor:start;fill:#008000;stroke:#000000;stroke-width:0;stroke-linecap:butt;stroke-linejoin:miter;stroke-miterlimit:10.43299961;stroke-opacity:1;stroke-dasharray:none;stroke-dashoffset:0"
         inkscape:connector-curvature="0"
         d="m 492.18857,424.14516 0.0319,-0.13819 0.0319,-0.15945 0.0425,-0.17008 0.0532,-0.19134 0.0531,-0.20197 0.0638,-0.22322 0.0744,-0.23386 0.0744,-0.23386 0.085,-0.24449 0.0957,-0.25512 0.0957,-0.26574 0.1063,-0.25512 0.12756,-0.26575 0.12756,-0.26575 0.12756,-0.26575 0.14882,-0.26575 0.15945,-0.25511 0.17008,-0.25512 0.17007,-0.24449 0.19134,-0.23386 0.20197,-0.23386 0.2126,-0.21259 0.2126,-0.20197 0.24449,-0.19134 0.24448,-0.17008 0.25512,-0.14882 0.13819,-0.0744 0.13819,-0.0638 0.13819,-0.0532 0.14882,-0.0531 0.14882,-0.0532 0.14882,-0.0425 0.14882,-0.0319 0.15944,-0.0319 0.17008,-0.0213 0.15945,-0.0213 0.17008,-0.0106 0.17008,0 c 0.26575,0 1.53071,0 2.64685,0.68032 -1.47756,0.26575 -2.54055,1.59449 -2.54055,2.85945 0,0.83976 0.57401,1.86023 2.00905,1.86023 1.15866,0 2.84882,-0.94606 2.84882,-3.07204 0,-2.76378 -3.11456,-3.48662 -4.91102,-3.48662 -3.07205,0 -4.93228,2.8063 -5.55945,4.01811 -1.32874,-3.48661 -4.18819,-4.01811 -5.7189,-4.01811 -5.51693,0 -8.53582,6.82441 -8.53582,8.15315 0,0.5315 0.53149,0.5315 0.64842,0.5315 0.41457,0 0.58465,-0.11693 0.68032,-0.58465 1.79645,-5.6126 5.2937,-6.94134 7.09015,-6.94134 1.00985,0 2.85945,0.46772 2.85945,3.53977 0,1.63701 -0.90354,5.19803 -2.85945,12.60708 -0.85039,3.28465 -2.68937,5.5063 -5.02795,5.5063 -0.3189,0 -1.53071,0 -2.64685,-0.69094 1.32874,-0.25512 2.4874,-1.36063 2.4874,-2.85945 0,-1.42441 -1.15866,-1.83898 -1.9559,-1.83898 -1.59449,0 -2.92323,1.37126 -2.92323,3.07205 0,2.42362 2.65748,3.48661 4.98543,3.48661 3.50788,0 5.4,-3.70984 5.55945,-4.01811 0.6378,1.95591 2.54055,4.01811 5.7189,4.01811 5.46378,0 8.48267,-6.8244 8.48267,-8.15314 0,-0.5315 -0.47834,-0.5315 -0.64842,-0.5315 -0.45709,0 -0.57402,0.2126 -0.68032,0.57401 -1.7433,5.66575 -5.34685,6.94134 -7.037,6.94134 -2.07284,0 -2.92323,-1.69015 -2.92323,-3.49724 0,-1.16929 0.3189,-2.32795 0.91417,-4.65591 z"
         id="path6723" />
      <path
         style="font-style:normal;font-variant:normal;font-weight:normal;font-stretch:normal;letter-spacing:normal;word-spacing:normal;text-anchor:start;fill:#008000;stroke:#000000;stroke-width:0;stroke-linecap:butt;stroke-linejoin:miter;stroke-miterlimit:10.43299961;stroke-opacity:1;stroke-dasharray:none;stroke-dashoffset:0"
         inkscape:connector-curvature="0"
         d="m 517.13699,424.49595 0,-0.0425 0,-0.0425 0,-0.0532 0,-0.0425 0,-0.0319 0,-0.0425 0,-0.0425 0,-0.0319 -0.0106,-0.0425 0,-0.0319 0,-0.0319 0,-0.0319 0,-0.0319 -0.0106,-0.0319 0,-0.0319 0,-0.0213 -0.0106,-0.0319 0,-0.0213 -0.0106,-0.0319 0,-0.0213 -0.0213,-0.0425 -0.0106,-0.0425 -0.0213,-0.0319 -0.0213,-0.0319 -0.0213,-0.0319 -0.0213,-0.0319 -0.0319,-0.0213 -0.0319,-0.0213 -0.0319,-0.0213 -0.0425,-0.0106 -0.0425,-0.0106 -0.0531,-0.0213 -0.0213,0 -0.0213,0 -0.0319,-0.0106 -0.0319,0 -0.0213,-0.0106 -0.0319,0 -0.0319,0 -0.0319,0 -0.0425,0 -0.0319,-0.0106 -0.0319,0 -0.0425,0 -0.0319,0 -0.0425,0 -0.0425,0 -0.0425,0 -0.0425,0 -0.0532,0 -0.0425,0 -0.0532,0 c -2.37047,2.33859 -5.72953,2.37048 -7.24961,2.37048 v 1.32874 c 0.89292,0 3.3378,0 5.35749,-1.03111 v 18.88937 c 0,1.23307 0,1.71142 -3.69922,1.71142 h -1.39252 v 1.32874 c 0.65906,-0.0319 5.20866,-0.14882 6.59055,-0.14882 1.14804,0 5.81457,0.11693 6.62244,0.14882 v -1.32874 h -1.41377 c -3.69922,0 -3.69922,-0.47835 -3.69922,-1.71142 z"
         id="path6725" />
      <path
         style="font-style:normal;font-variant:normal;font-weight:normal;font-stretch:normal;letter-spacing:normal;word-spacing:normal;text-anchor:start;fill:#008000;stroke:#000000;stroke-width:0;stroke-linecap:butt;stroke-linejoin:miter;stroke-miterlimit:10.43299961;stroke-opacity:1;stroke-dasharray:none;stroke-dashoffset:0"
         inkscape:connector-curvature="0"
         d="m 561.84644,427.97193 h 14.78622 c 0.73347,0 1.74331,0 1.74331,-1.06299 0,-1.06299 -1.00984,-1.06299 -1.74331,-1.06299 h -14.78622 v -14.83937 c 0,-0.72284 0,-1.74331 -1.06299,-1.74331 -1.04173,0 -1.04173,1.02047 -1.04173,1.74331 v 14.83937 h -14.82874 c -0.75473,0 -1.75394,0 -1.75394,1.06299 0,1.06299 0.99921,1.06299 1.75394,1.06299 h 14.82874 v 14.81811 c 0,0.74409 0,1.75394 1.04173,1.75394 1.06299,0 1.06299,-1.00985 1.06299,-1.75394 z"
         id="path6727" />
      <path
         style="font-style:normal;font-variant:normal;font-weight:normal;font-stretch:normal;letter-spacing:normal;word-spacing:normal;text-anchor:start;fill:#008000;stroke:#000000;stroke-width:0;stroke-linecap:butt;stroke-linejoin:miter;stroke-miterlimit:10.43299961;stroke-opacity:1;stroke-dasharray:none;stroke-dashoffset:0"
         inkscape:connector-curvature="0"
         d="m 623.70195,410.01799 -0.0106,-0.37204 -0.0213,-0.37205 -0.0425,-0.35079 -0.0638,-0.36142 -0.0744,-0.35078 -0.085,-0.34016 -0.1063,-0.34016 -0.11693,-0.32953 -0.13818,-0.31889 -0.14882,-0.30827 -0.15945,-0.30827 -0.18071,-0.28701 -0.19134,-0.287 -0.20197,-0.27638 -0.22323,-0.26575 -0.22322,-0.25512 -0.24449,-0.23386 -0.25512,-0.23386 -0.26575,-0.21259 -0.28701,-0.2126 -0.287,-0.18071 -0.29764,-0.18071 -0.3189,-0.15945 -0.3189,-0.14882 -0.32953,-0.12756 -0.35078,-0.11693 -0.35079,-0.0957 -0.36142,-0.085 -0.37204,-0.0638 -0.38268,-0.0532 -0.38268,-0.0213 -0.40394,-0.0106 c -3.07204,0 -4.5496,0.85039 -6.40984,2.22165 -2.90197,2.11535 -5.82519,7.26024 -6.82441,11.27835 l -8.41889,33.63307 c -0.0744,0.20197 0.19133,0.53149 0.62716,0.53149 0.41457,0 0.58465,-0.11693 0.62717,-0.26575 l 3.70984,-14.61614 c 1.00984,3.17835 3.33779,5.13426 7.20708,5.13426 l -0.17007,-1.15867 c -4.01811,0 -6.02717,-3.07204 -6.02717,-6.84567 0,-0.51023 0,-1.30748 0.26575,-2.32795 l 3.39094,-13.40433 c 1.15866,-4.5496 4.98544,-12.9685 11.3315,-12.9685 3.07205,0 4.93228,1.64764 4.93228,4.81535 h 0 c 0,3.72047 -2.00905,7.52599 -4.77283,9.17362 -1.42441,-0.53149 -2.4874,-0.63779 -4.08189,-0.63779 -1.11614,0 -4.07126,-0.0425 -4.07126,1.70079 -0.0531,1.47755 2.68937,1.30748 3.65669,1.30748 l 0.14882,-1.15867 c -0.73346,0 -1.79646,0.0638 -2.32795,-0.20196 0.11693,-0.5315 2.00905,-0.43583 2.5937,-0.43583 1.10551,0 1.59449,0 2.2748,0.26575 h 0 c -0.68031,0.26575 -1.26496,0.37204 -2.54055,0.37204 l -0.14882,1.15867 c 1.95591,0 2.75315,-0.0532 4.33701,-0.68032 2.00905,1.91339 2.2748,3.55039 2.33858,5.97402 0.0957,3.08267 -1.17992,7.04763 -2.65748,9.12047 -2.0622,2.85945 -5.6126,4.77283 -8.64212,4.77283 l 0.17007,1.15867 c 3.8693,0 7.83426,-1.86024 10.21536,-4.18819 2.54055,-2.43426 4.25197,-5.8252 4.25197,-9.74764 0,-3.80551 -1.95591,-6.55866 -3.86929,-7.8874 3.07204,-1.74331 6.08031,-5.02796 6.08031,-8.83347 z"
         id="path6729" />
      <path
         style="font-style:normal;font-variant:normal;font-weight:normal;font-stretch:normal;letter-spacing:normal;word-spacing:normal;text-anchor:start;fill:#008000;stroke:#000000;stroke-width:0;stroke-linecap:butt;stroke-linejoin:miter;stroke-miterlimit:10.43299961;stroke-opacity:1;stroke-dasharray:none;stroke-dashoffset:0"
         inkscape:connector-curvature="0"
         d="m 643.72872,424.14516 0.0319,-0.13819 0.0319,-0.15945 0.0425,-0.17008 0.0531,-0.19134 0.0532,-0.20197 0.0638,-0.22322 0.0744,-0.23386 0.0744,-0.23386 0.085,-0.24449 0.0957,-0.25512 0.0957,-0.26574 0.11693,-0.25512 0.11692,-0.26575 0.12756,-0.26575 0.13819,-0.26575 0.13819,-0.26575 0.15945,-0.25511 0.17008,-0.25512 0.18071,-0.24449 0.18071,-0.23386 0.20197,-0.23386 0.21259,-0.21259 0.22323,-0.20197 0.23386,-0.19134 0.24449,-0.17008 0.26575,-0.14882 0.12756,-0.0744 0.13818,-0.0638 0.13819,-0.0532 0.14882,-0.0531 0.14882,-0.0532 0.14882,-0.0425 0.15945,-0.0319 0.15945,-0.0319 0.15945,-0.0213 0.15945,-0.0213 0.17007,-0.0106 0.18071,0 c 0.26575,0 1.52008,0 2.63622,0.68032 -1.47756,0.26575 -2.54055,1.59449 -2.54055,2.85945 0,0.83976 0.57402,1.86023 2.00906,1.86023 1.15866,0 2.85945,-0.94606 2.85945,-3.07204 0,-2.76378 -3.1252,-3.48662 -4.92166,-3.48662 -3.07204,0 -4.93228,2.8063 -5.55945,4.01811 -1.32874,-3.48661 -4.18818,-4.01811 -5.71889,-4.01811 -5.5063,0 -8.53583,6.82441 -8.53583,8.15315 0,0.5315 0.5315,0.5315 0.64843,0.5315 0.41456,0 0.58464,-0.11693 0.68031,-0.58465 1.79646,-5.6126 5.2937,-6.94134 7.09016,-6.94134 1.02047,0 2.85945,0.46772 2.85945,3.53977 0,1.63701 -0.89292,5.19803 -2.85945,12.60708 -0.83977,3.28465 -2.68937,5.5063 -5.02796,5.5063 -0.31889,0 -1.5307,0 -2.64685,-0.69094 1.32874,-0.25512 2.49804,-1.36063 2.49804,-2.85945 0,-1.42441 -1.1693,-1.83898 -1.96654,-1.83898 -1.59449,0 -2.92323,1.37126 -2.92323,3.07205 0,2.42362 2.65748,3.48661 4.98544,3.48661 3.50787,0 5.39999,-3.70984 5.57007,-4.01811 0.62717,1.95591 2.54055,4.01811 5.70827,4.01811 5.46378,0 8.48268,-6.8244 8.48268,-8.15314 0,-0.5315 -0.47835,-0.5315 -0.6378,-0.5315 -0.46771,0 -0.58464,0.2126 -0.69094,0.57401 -1.73268,5.66575 -5.34685,6.94134 -7.03701,6.94134 -2.07283,0 -2.92323,-1.69015 -2.92323,-3.49724 0,-1.16929 0.3189,-2.32795 0.91418,-4.65591 z"
         id="path6731" />
      <path
         style="font-style:normal;font-variant:normal;font-weight:normal;font-stretch:normal;letter-spacing:normal;word-spacing:normal;text-anchor:start;fill:#008000;stroke:#000000;stroke-width:0;stroke-linecap:butt;stroke-linejoin:miter;stroke-miterlimit:10.43299961;stroke-opacity:1;stroke-dasharray:none;stroke-dashoffset:0"
         inkscape:connector-curvature="0"
         d="m 674.97006,441.30185 h -1.25433 c -0.1063,0.8185 -0.47835,3.00827 -0.96732,3.38032 -0.27638,0.21259 -3.13583,0.21259 -3.6567,0.21259 h -6.82441 c 3.89056,-3.43346 5.18741,-4.46456 7.40906,-6.20787 2.74252,-2.20039 5.2937,-4.48583 5.2937,-8.01496 0,-4.4752 -3.91181,-7.21772 -8.66339,-7.21772 -4.58149,0 -7.70669,3.22087 -7.70669,6.62244 0,1.89213 1.59449,2.08347 1.97717,2.08347 0.88228,0 1.9559,-0.6378 1.9559,-1.96654 0,-0.65905 -0.26575,-1.9559 -2.18976,-1.9559 1.14803,-2.62559 3.66732,-3.4441 5.41063,-3.4441 3.70984,0 5.63386,2.88071 5.63386,5.87835 0,3.2315 -2.29607,5.78268 -3.48662,7.11142 l -8.9185,8.82283 c -0.38268,0.32953 -0.38268,0.41457 -0.38268,1.44567 h 15.26457 z"
         id="path6733" />
      <path
         style="font-style:normal;font-variant:normal;font-weight:normal;font-stretch:normal;letter-spacing:normal;word-spacing:normal;text-anchor:start;fill:#008000;stroke:#000000;stroke-width:0;stroke-linecap:butt;stroke-linejoin:miter;stroke-miterlimit:10.43299961;stroke-opacity:1;stroke-dasharray:none;stroke-dashoffset:0"
         inkscape:connector-curvature="0"
         d="m 695.29447,426.90894 0,-0.39331 -0.0106,-0.41457 -0.0106,-0.41456 -0.0106,-0.43583 -0.0425,-0.89291 -0.0638,-0.93544 -0.085,-0.97795 -0.11693,-1.00984 -0.13819,-1.0311 -0.18071,-1.07363 -0.20196,-1.08425 -0.24449,-1.09488 -0.28701,-1.11614 -0.32953,-1.12677 -0.36142,-1.13741 -0.42519,-1.1374 -0.22323,-0.56338 -0.23386,-0.56339 -0.25512,-0.56338 -0.26575,-0.56339 c -3.17834,-6.50551 -7.72795,-9.94961 -8.25944,-9.94961 -0.3189,0 -0.5315,0.20197 -0.5315,0.52087 0,0.15945 0,0.26575 0.99921,1.22244 5.19803,5.22992 8.21693,13.65945 8.21693,24.73583 0,9.04606 -1.9559,18.3685 -8.53583,25.04409 -0.68031,0.62717 -0.68031,0.7441 -0.68031,0.89291 0,0.3189 0.2126,0.5315 0.5315,0.5315 0.53149,0 5.28307,-3.60354 8.41889,-10.32165 2.7,-5.81457 3.32717,-11.69292 3.32717,-16.14685 z"
         id="path6735" />
      <path
         style="font-style:normal;font-variant:normal;font-weight:normal;font-stretch:normal;letter-spacing:normal;word-spacing:normal;text-anchor:start;fill:#008000;stroke:#000000;stroke-width:0;stroke-linecap:butt;stroke-linejoin:miter;stroke-miterlimit:10.43299961;stroke-opacity:1;stroke-dasharray:none;stroke-dashoffset:0"
         inkscape:connector-curvature="0"
         d="m 751.06966,413.77035 0.0638,-0.0319 0.0532,-0.0319 0.0638,-0.0213 0.0532,-0.0319 0.0531,-0.0319 0.0531,-0.0319 0.0425,-0.0213 0.0531,-0.0319 0.0425,-0.0319 0.0425,-0.0319 0.0425,-0.0319 0.0425,-0.0213 0.0425,-0.0319 0.0319,-0.0319 0.0425,-0.0319 0.0319,-0.0425 0.0319,-0.0319 0.0213,-0.0319 0.0319,-0.0319 0.0213,-0.0425 0.0319,-0.0319 0.0213,-0.0425 0.0213,-0.0425 0.0106,-0.0425 0.0213,-0.0425 0.0106,-0.0425 0.0106,-0.0425 0.0106,-0.0425 0.0106,-0.0531 0,-0.0532 0,-0.0425 0.0106,-0.0638 c 0,-0.57401 -0.48898,-1.06299 -1.063,-1.06299 -0.15944,0 -0.26574,0 -0.95669,0.37205 l -29.33858,13.82953 c -0.58465,0.26574 -0.99921,0.53149 -0.99921,1.16929 0,0.62716 0.41456,0.89291 0.99921,1.15866 l 29.33858,13.8189 c 0.69095,0.38267 0.79725,0.38267 0.95669,0.38267 0.57402,0 1.063,-0.47834 1.063,-1.06299 0,-0.58464 -0.37205,-0.85039 -1.02048,-1.15866 l -27.80787,-13.13858 z"
         id="path6737" />
      <path
         style="font-style:normal;font-variant:normal;font-weight:normal;font-stretch:normal;letter-spacing:normal;word-spacing:normal;text-anchor:start;fill:#008000;stroke:#000000;stroke-width:0;stroke-linecap:butt;stroke-linejoin:miter;stroke-miterlimit:10.43299961;stroke-opacity:1;stroke-dasharray:none;stroke-dashoffset:0"
         inkscape:connector-curvature="0"
         d="m 412.33853,495.71446 0,-0.39331 -0.0106,-0.37204 -0.0213,-0.37205 -0.0213,-0.36142 -0.0744,-0.69094 -0.0957,-0.66969 -0.11693,-0.62716 -0.13819,-0.60591 -0.17008,-0.57401 -0.18071,-0.54213 -0.2126,-0.52087 -0.22322,-0.47834 -0.24449,-0.46772 -0.25512,-0.4252 -0.27638,-0.40393 -0.29764,-0.38268 -0.29763,-0.35079 -0.3189,-0.32952 -0.32953,-0.30827 -0.34016,-0.27638 -0.35078,-0.25512 -0.35079,-0.23386 -0.36142,-0.21259 -0.37205,-0.19134 -0.37204,-0.17008 -0.38268,-0.14882 -0.38268,-0.12756 -0.38267,-0.11693 -0.38268,-0.0957 -0.38268,-0.0638 -0.38268,-0.0638 -0.38267,-0.0425 -0.37205,-0.0213 -0.37205,0 -0.0425,1.15866 c 5.24055,0 5.24055,6.94134 5.24055,11.06575 0,1.95591 0,5.02795 0.1063,5.92087 h 0 c -4.6559,4.09252 -8.73779,4.66653 -10.85315,4.66653 -3.18897,0 -4.7622,-2.39173 -4.7622,-5.77204 0,-2.5937 1.38189,-8.3126 3.07205,-11.0126 2.47677,-3.86929 5.34685,-4.86851 7.19645,-4.86851 l 0.0425,-1.15866 c -7.23897,0 -14.23346,7.56851 -14.23346,15.03071 0,4.93228 3.17834,8.95039 8.56771,8.95039 3.3378,0 7.16457,-1.21181 11.18268,-4.45393 0.70158,2.8063 2.44488,4.45393 4.81536,4.45393 2.8063,0 4.45393,-2.91259 4.45393,-3.75236 0,-0.38267 -0.31889,-0.53149 -0.63779,-0.53149 -0.37205,0 -0.5315,0.14882 -0.69095,0.53149 -0.94606,2.58307 -2.85945,2.58307 -2.95512,2.58307 -1.64763,0 -1.64763,-4.13504 -1.64763,-5.38937 0,-1.11614 0,-1.23307 0.53149,-1.86023 4.98544,-6.2504 6.10158,-12.39449 6.10158,-12.44764 0,-0.11693 -0.0744,-0.5315 -0.64843,-0.5315 -0.53149,0 -0.53149,0.14882 -0.79724,1.11615 -0.95669,3.33779 -2.7,7.3559 -5.1874,10.4811 z"
         id="path6739" />
      <path
         style="font-style:normal;font-variant:normal;font-weight:normal;font-stretch:normal;letter-spacing:normal;word-spacing:normal;text-anchor:start;fill:#008000;stroke:#000000;stroke-width:0;stroke-linecap:butt;stroke-linejoin:miter;stroke-miterlimit:10.43299961;stroke-opacity:1;stroke-dasharray:none;stroke-dashoffset:0"
         inkscape:connector-curvature="0"
         d="m 440.68853,487.04045 h 4.5496 c 1.06299,0 1.59449,0 1.59449,-1.063 0,-0.58464 -0.5315,-0.58464 -1.42441,-0.58464 h -4.40079 l 1.11615,-6.04843 c 0.21259,-1.10551 0.95669,-4.85787 1.27559,-5.49567 0.47834,-1.00984 1.38189,-1.80708 2.4874,-1.80708 0.20197,0 1.58386,0 2.5937,0.96732 -2.32795,0.19134 -2.85945,2.05158 -2.85945,2.84882 0,1.21181 0.94606,1.84961 1.96653,1.84961 1.37126,0 2.90197,-1.1693 2.90197,-3.17835 0,-2.43425 -2.44488,-3.64606 -4.60275,-3.64606 -1.80709,0 -5.14488,0.94606 -6.71811,6.18661 -0.3189,1.11614 -0.48898,1.64764 -1.75394,8.32323 h -3.64606 c -1.02047,0 -1.59449,0 -1.59449,0.99921 0,0.64843 0.47835,0.64843 1.47756,0.64843 h 3.49724 l -3.98622,20.90905 c -0.94606,5.13425 -1.83897,9.97087 -4.59212,9.97087 -0.22323,0 -1.53071,0 -2.54055,-0.96733 2.43425,-0.14881 2.90196,-2.0622 2.90196,-2.85944 0,-1.21182 -0.94606,-1.86024 -1.9559,-1.86024 -1.38189,0 -2.9126,1.16929 -2.9126,3.18898 0,2.3811 2.32795,3.65669 4.50709,3.65669 2.90196,0 5.02795,-3.1252 5.97401,-5.14488 1.69016,-3.3378 2.92323,-9.73701 2.97638,-10.11969 z"
         id="path6741" />
      <path
         style="font-style:normal;font-variant:normal;font-weight:normal;font-stretch:normal;letter-spacing:normal;word-spacing:normal;text-anchor:start;fill:#008000;stroke:#000000;stroke-width:0;stroke-linecap:butt;stroke-linejoin:miter;stroke-miterlimit:10.43299961;stroke-opacity:1;stroke-dasharray:none;stroke-dashoffset:0"
         inkscape:connector-curvature="0"
         d="m 470.42042,520.918 0,-0.0213 0,-0.0319 -0.0106,-0.0106 0,-0.0213 0,-0.0106 -0.0106,-0.0213 0,-0.0106 -0.0106,-0.0213 -0.0106,-0.0213 -0.0106,-0.0213 -0.0106,-0.0213 -0.0106,-0.0319 -0.0213,-0.0213 -0.0213,-0.0319 -0.0213,-0.0319 -0.0213,-0.0319 -0.0319,-0.0319 -0.0319,-0.0425 -0.0106,-0.0213 -0.0213,-0.0213 -0.0213,-0.0213 -0.0213,-0.0213 -0.0213,-0.0213 -0.0213,-0.0319 -0.0213,-0.0213 -0.0213,-0.0213 -0.0213,-0.0319 -0.0213,-0.0213 -0.0319,-0.0319 -0.0319,-0.0319 -0.0213,-0.0319 -0.0319,-0.0319 -0.0319,-0.0319 -0.0319,-0.0319 -0.0319,-0.0319 -0.0319,-0.0319 -0.0319,-0.0425 -0.0425,-0.0319 -0.0319,-0.0425 -0.0425,-0.0319 -0.0425,-0.0425 -0.0425,-0.0425 c -6.60118,-6.67559 -8.30197,-16.67834 -8.30197,-24.77834 0,-9.21614 2.00906,-18.44292 8.5252,-25.0441 0.68032,-0.64842 0.68032,-0.75472 0.68032,-0.91417 0,-0.37205 -0.20197,-0.52087 -0.52087,-0.52087 -0.5315,0 -5.2937,3.59292 -8.4189,10.31103 -2.71063,5.83582 -3.33779,11.71417 -3.33779,16.16811 0,4.13504 0.58464,10.52362 3.48661,16.51889 3.17835,6.51615 7.73858,9.94961 8.27008,9.94961 0.3189,0 0.52087,-0.14882 0.52087,-0.5315 z"
         id="path6743" />
      <path
         style="font-style:normal;font-variant:normal;font-weight:normal;font-stretch:normal;letter-spacing:normal;word-spacing:normal;text-anchor:start;fill:#008000;stroke:#000000;stroke-width:0;stroke-linecap:butt;stroke-linejoin:miter;stroke-miterlimit:10.43299961;stroke-opacity:1;stroke-dasharray:none;stroke-dashoffset:0"
         inkscape:connector-curvature="0"
         d="m 491.11687,492.21722 0.0319,-0.13819 0.0425,-0.15945 0.0425,-0.17008 0.0425,-0.19134 0.0638,-0.20197 0.0638,-0.22322 0.0638,-0.23386 0.0744,-0.23386 0.085,-0.24449 0.0957,-0.25512 0.1063,-0.26574 0.1063,-0.25512 0.11692,-0.26575 0.12756,-0.26575 0.13819,-0.26575 0.14882,-0.26575 0.15945,-0.25511 0.15945,-0.25512 0.18071,-0.24449 0.19134,-0.23386 0.19133,-0.23386 0.2126,-0.21259 0.22323,-0.20197 0.23386,-0.19134 0.24449,-0.17008 0.26575,-0.14882 0.12756,-0.0744 0.13818,-0.0638 0.14882,-0.0532 0.13819,-0.0531 0.14882,-0.0532 0.14882,-0.0425 0.15945,-0.0319 0.15945,-0.0319 0.15945,-0.0213 0.17007,-0.0213 0.17008,-0.0106 0.17008,0 c 0.26575,0 1.52008,0 2.63622,0.68032 -1.47756,0.26575 -2.54055,1.59449 -2.54055,2.85945 0,0.83976 0.58465,1.86023 2.00906,1.86023 1.16929,0 2.85945,-0.94606 2.85945,-3.07204 0,-2.76378 -3.1252,-3.48662 -4.92166,-3.48662 -3.07205,0 -4.93228,2.8063 -5.55945,4.01811 -1.32874,-3.48661 -4.18819,-4.01811 -5.71889,-4.01811 -5.5063,0 -8.53583,6.82441 -8.53583,8.15315 0,0.5315 0.5315,0.5315 0.64842,0.5315 0.41457,0 0.58465,-0.11693 0.68032,-0.58465 1.79646,-5.6126 5.30433,-6.94134 7.10079,-6.94134 1.00984,0 2.84882,0.46772 2.84882,3.53977 0,1.63701 -0.89292,5.19803 -2.84882,12.60708 -0.8504,3.28465 -2.7,5.5063 -5.03859,5.5063 -0.31889,0 -1.5307,0 -2.63622,-0.69094 1.32874,-0.25512 2.48741,-1.36063 2.48741,-2.85945 0,-1.42441 -1.15867,-1.83898 -1.95591,-1.83898 -1.59449,0 -2.92323,1.37126 -2.92323,3.07205 0,2.42362 2.65748,3.48661 4.9748,3.48661 3.50788,0 5.4,-3.70984 5.57008,-4.01811 0.62717,1.95591 2.54055,4.01811 5.70827,4.01811 5.46378,0 8.49331,-6.8244 8.49331,-8.15314 0,-0.5315 -0.47835,-0.5315 -0.64843,-0.5315 -0.46771,0 -0.58464,0.2126 -0.68031,0.57401 -1.74331,5.66575 -5.34685,6.94134 -7.04764,6.94134 -2.07283,0 -2.92323,-1.69015 -2.92323,-3.49724 0,-1.16929 0.3189,-2.32795 0.91417,-4.65591 z"
         id="path6745" />
      <path
         style="font-style:normal;font-variant:normal;font-weight:normal;font-stretch:normal;letter-spacing:normal;word-spacing:normal;text-anchor:start;fill:#008000;stroke:#000000;stroke-width:0;stroke-linecap:butt;stroke-linejoin:miter;stroke-miterlimit:10.43299961;stroke-opacity:1;stroke-dasharray:none;stroke-dashoffset:0"
         inkscape:connector-curvature="0"
         d="m 516.07593,492.56801 0,-0.0425 0,-0.0425 0,-0.0532 0,-0.0425 0,-0.0319 0,-0.0425 0,-0.0425 0,-0.0319 -0.0106,-0.0425 0,-0.0319 0,-0.0319 0,-0.0319 0,-0.0319 -0.0106,-0.0319 0,-0.0319 -0.0106,-0.0213 0,-0.0319 0,-0.0213 -0.0106,-0.0319 0,-0.0213 -0.0213,-0.0425 -0.0106,-0.0425 -0.0213,-0.0319 -0.0213,-0.0319 -0.0213,-0.0319 -0.0213,-0.0319 -0.0319,-0.0213 -0.0319,-0.0213 -0.0425,-0.0213 -0.0319,-0.0106 -0.0425,-0.0106 -0.0531,-0.0213 -0.0213,0 -0.0319,0 -0.0213,-0.0106 -0.0319,0 -0.0213,-0.0106 -0.0319,0 -0.0319,0 -0.0319,0 -0.0425,0 -0.0319,-0.0106 -0.0319,0 -0.0425,0 -0.0425,0 -0.0319,0 -0.0425,0 -0.0425,0 -0.0425,0 -0.0532,0 -0.0425,0 -0.0531,0 c -2.37047,2.33859 -5.72952,2.37048 -7.26023,2.37048 v 1.32874 c 0.90354,0 3.34842,0 5.36811,-1.03111 v 18.88937 c 0,1.23307 0,1.71142 -3.69921,1.71142 h -1.40315 v 1.32874 c 0.66968,-0.0319 5.21929,-0.14882 6.60118,-0.14882 1.14803,0 5.81456,0.11693 6.62244,0.14882 v -1.32874 h -1.40315 c -3.70984,0 -3.70984,-0.47835 -3.70984,-1.71142 z"
         id="path6747" />
      <path
         style="font-style:normal;font-variant:normal;font-weight:normal;font-stretch:normal;letter-spacing:normal;word-spacing:normal;text-anchor:start;fill:#008000;stroke:#000000;stroke-width:0;stroke-linecap:butt;stroke-linejoin:miter;stroke-miterlimit:10.43299961;stroke-opacity:1;stroke-dasharray:none;stroke-dashoffset:0"
         inkscape:connector-curvature="0"
         d="m 542.69325,494.981 0,-0.39331 -0.0106,-0.41457 -0.0106,-0.41456 -0.0106,-0.43583 -0.0425,-0.89291 -0.0638,-0.93544 -0.085,-0.97795 -0.11693,-1.00984 -0.13819,-1.0311 -0.18071,-1.07363 -0.20197,-1.08425 -0.24448,-1.09488 -0.28701,-1.11614 -0.32953,-1.12677 -0.36142,-1.13741 -0.42519,-1.1374 -0.22323,-0.56338 -0.23386,-0.56339 -0.25512,-0.56338 -0.26575,-0.56339 c -3.17834,-6.50551 -7.72795,-9.94961 -8.25944,-9.94961 -0.30827,0 -0.5315,0.20197 -0.5315,0.52087 0,0.15945 0,0.26575 0.99921,1.22244 5.19803,5.22992 8.22756,13.65945 8.22756,24.73583 0,9.04606 -1.96653,18.3685 -8.54646,25.04409 -0.68031,0.62717 -0.68031,0.7441 -0.68031,0.89291 0,0.3189 0.22323,0.5315 0.5315,0.5315 0.53149,0 5.28307,-3.60354 8.42952,-10.32165 2.68937,-5.81457 3.31654,-11.69292 3.31654,-16.14685 z"
         id="path6749" />
      <path
         style="font-style:normal;font-variant:normal;font-weight:normal;font-stretch:normal;letter-spacing:normal;word-spacing:normal;text-anchor:start;fill:#008000;stroke:#000000;stroke-width:0;stroke-linecap:butt;stroke-linejoin:miter;stroke-miterlimit:10.43299961;stroke-opacity:1;stroke-dasharray:none;stroke-dashoffset:0"
         inkscape:connector-curvature="0"
         d="m 581.32238,496.04399 h 14.76496 c 0.7441,0 1.80709,0 1.80709,-1.06299 0,-1.06299 -1.06299,-1.06299 -1.80709,-1.06299 h -14.76496 v -14.83937 c 0,-0.72284 0,-1.74331 -1.06299,-1.74331 -1.04173,0 -1.04173,1.02047 -1.04173,1.74331 v 14.83937 h -14.82874 c -0.75473,0 -1.75394,0 -1.75394,1.06299 0,1.06299 0.99921,1.06299 1.75394,1.06299 h 14.82874 v 14.81811 c 0,0.74409 0,1.75394 1.04173,1.75394 1.06299,0 1.06299,-1.00985 1.06299,-1.75394 z"
         id="path6751" />
      <path
         style="font-style:normal;font-variant:normal;font-weight:normal;font-stretch:normal;letter-spacing:normal;word-spacing:normal;text-anchor:start;fill:#008000;stroke:#000000;stroke-width:0;stroke-linecap:butt;stroke-linejoin:miter;stroke-miterlimit:10.43299961;stroke-opacity:1;stroke-dasharray:none;stroke-dashoffset:0"
         inkscape:connector-curvature="0"
         d="m 643.07159,478.09005 0,-0.37204 -0.1063,-0.37205 0,-0.35079 0,-0.36142 -0.1063,-0.35078 -0.1063,-0.34016 -0.10629,-0.34016 -0.1063,-0.32953 -0.1063,-0.31889 -0.2126,-0.30827 -0.1063,-0.30827 -0.2126,-0.28701 -0.2126,-0.287 -0.2126,-0.27638 -0.21259,-0.26575 -0.2126,-0.25512 -0.2126,-0.23386 -0.3189,-0.23386 -0.2126,-0.21259 -0.3189,-0.2126 -0.31889,-0.18071 -0.2126,-0.18071 -0.3189,-0.15945 -0.3189,-0.14882 -0.31889,-0.12756 -0.4252,-0.11693 -0.3189,-0.0957 -0.3189,-0.085 -0.42519,-0.0638 -0.3189,-0.0532 -0.4252,-0.0213 -0.42519,-0.0106 c -3.08268,0 -4.57087,0.85039 -6.37796,2.22165 -2.97637,2.11535 -5.84645,7.26024 -6.80315,11.27835 l -8.50393,33.63307 c 0,0.20197 0.2126,0.53149 0.63779,0.53149 0.4252,0 0.6378,-0.11693 0.6378,-0.26575 l 3.72047,-14.61614 c 1.06299,3.17835 3.29528,5.13426 7.22835,5.13426 l -0.2126,-1.15867 c -3.93307,0 -5.95276,-3.07204 -5.95276,-6.84567 0,-0.51023 0,-1.30748 0.2126,-2.32795 l 3.40158,-13.40433 c 1.16929,-4.5496 4.99606,-12.9685 11.26771,-12.9685 3.08268,0 4.99606,1.64764 4.99606,4.81535 h 0 c 0,3.72047 -2.01968,7.52599 -4.78346,9.17362 -1.38189,-0.53149 -2.44488,-0.63779 -4.03937,-0.63779 -1.16929,0 -4.14567,-0.0425 -4.14567,1.70079 0,1.47755 2.76378,1.30748 3.72047,1.30748 l 0.1063,-1.15867 c -0.74409,0 -1.80708,0.0638 -2.33858,-0.20196 0.1063,-0.5315 2.01968,-0.43583 2.65748,-0.43583 1.06299,0 1.59449,0 2.23228,0.26575 h 0 c -0.63779,0.26575 -1.27559,0.37204 -2.55118,0.37204 l -0.1063,1.15867 c 1.91339,0 2.76378,-0.0532 4.25197,-0.68032 2.01969,1.91339 2.33858,3.55039 2.44488,5.97402 0.1063,3.08267 -1.27559,7.04763 -2.65748,9.12047 -2.12598,2.85945 -5.63386,4.77283 -8.71653,4.77283 l 0.2126,1.15867 c 3.82677,0 7.86614,-1.86024 10.20472,-4.18819 2.55118,-2.43426 4.25197,-5.8252 4.25197,-9.74764 0,-3.80551 -1.91339,-6.55866 -3.82677,-7.8874 2.97637,-1.74331 6.05905,-5.02796 6.05905,-8.83347 z"
         id="path6753" />
      <path
         style="font-style:normal;font-variant:normal;font-weight:normal;font-stretch:normal;letter-spacing:normal;word-spacing:normal;text-anchor:start;fill:#008000;stroke:#000000;stroke-width:0;stroke-linecap:butt;stroke-linejoin:miter;stroke-miterlimit:10.43299961;stroke-opacity:1;stroke-dasharray:none;stroke-dashoffset:0"
         inkscape:connector-curvature="0"
         d="m 664.86293,487.04045 h 4.46457 c 1.06299,0 1.59449,0 1.59449,-1.063 0,-0.58464 -0.5315,-0.58464 -1.38189,-0.58464 h -4.46457 l 1.16929,-6.04843 c 0.2126,-1.10551 0.95669,-4.85787 1.27559,-5.49567 0.5315,-1.00984 1.38189,-1.80708 2.55118,-1.80708 0.1063,0 1.48819,0 2.55118,0.96732 -2.33858,0.19134 -2.87008,2.05158 -2.87008,2.84882 0,1.21181 0.9567,1.84961 1.91339,1.84961 1.38189,0 2.97638,-1.1693 2.97638,-3.17835 0,-2.43425 -2.44488,-3.64606 -4.57087,-3.64606 -1.91338,0 -5.20866,0.94606 -6.80315,6.18661 -0.3189,1.11614 -0.42519,1.64764 -1.70079,8.32323 h -3.72047 c -0.95669,0 -1.59449,0 -1.59449,0.99921 0,0.64843 0.5315,0.64843 1.48819,0.64843 h 3.50788 l -3.93307,20.90905 c -0.9567,5.13425 -1.91339,9.97087 -4.57087,9.97087 -0.2126,0 -1.59449,0 -2.55118,-0.96733 2.44488,-0.14881 2.87008,-2.0622 2.87008,-2.85944 0,-1.21182 -0.9567,-1.86024 -2.01969,-1.86024 -1.38189,0 -2.87008,1.16929 -2.87008,3.18898 0,2.3811 2.33859,3.65669 4.57087,3.65669 2.87008,0 4.99606,-3.1252 5.95276,-5.14488 1.70078,-3.3378 2.87007,-9.73701 2.97637,-10.11969 z"
         id="path6755" />
      <path
         style="font-style:normal;font-variant:normal;font-weight:normal;font-stretch:normal;letter-spacing:normal;word-spacing:normal;text-anchor:start;fill:#008000;stroke:#000000;stroke-width:0;stroke-linecap:butt;stroke-linejoin:miter;stroke-miterlimit:10.43299961;stroke-opacity:1;stroke-dasharray:none;stroke-dashoffset:0"
         inkscape:connector-curvature="0"
         d="m 694.52041,520.918 0,-0.0213 0,-0.0319 0,-0.0106 0,-0.0213 0,-0.0106 0,-0.0213 0,-0.0106 0,-0.0213 0,-0.0213 0,-0.0213 0,-0.0213 -0.1063,-0.0319 0,-0.0213 0,-0.0319 0,-0.0319 0,-0.0319 -0.1063,-0.0319 0,-0.0425 0,-0.0213 0,-0.0213 0,-0.0213 -0.1063,-0.0213 0,-0.0213 0,-0.0319 0,-0.0213 0,-0.0213 -0.1063,-0.0319 0,-0.0213 0,-0.0319 0,-0.0319 -0.1063,-0.0319 0,-0.0319 0,-0.0319 0,-0.0319 -0.1063,-0.0319 0,-0.0319 0,-0.0425 -0.10629,-0.0319 0,-0.0425 -0.1063,-0.0319 0,-0.0425 0,-0.0425 c -6.59055,-6.67559 -8.29134,-16.67834 -8.29134,-24.77834 0,-9.21614 1.91338,-18.44292 8.50393,-25.0441 0.6378,-0.64842 0.6378,-0.75472 0.6378,-0.91417 0,-0.37205 -0.2126,-0.52087 -0.5315,-0.52087 -0.53149,0 -5.20866,3.59292 -8.39763,10.31103 -2.65748,5.83582 -3.29528,11.71417 -3.29528,16.16811 0,4.13504 0.5315,10.52362 3.40158,16.51889 3.18897,6.51615 7.75984,9.94961 8.29133,9.94961 0.3189,0 0.5315,-0.14882 0.5315,-0.5315 z"
         id="path6757" />
      <path
         style="font-style:normal;font-variant:normal;font-weight:normal;font-stretch:normal;letter-spacing:normal;word-spacing:normal;text-anchor:start;fill:#008000;stroke:#000000;stroke-width:0;stroke-linecap:butt;stroke-linejoin:miter;stroke-miterlimit:10.43299961;stroke-opacity:1;stroke-dasharray:none;stroke-dashoffset:0"
         inkscape:connector-curvature="0"
         d="m 715.24876,492.21722 0,-0.13819 0.1063,-0.15945 0,-0.17008 0,-0.19134 0.1063,-0.20197 0.1063,-0.22322 0,-0.23386 0.1063,-0.23386 0.1063,-0.24449 0.1063,-0.25512 0.1063,-0.26574 0.1063,-0.25512 0.1063,-0.26575 0.1063,-0.26575 0.1063,-0.26575 0.2126,-0.26575 0.1063,-0.25511 0.2126,-0.25512 0.1063,-0.24449 0.2126,-0.23386 0.2126,-0.23386 0.2126,-0.21259 0.2126,-0.20197 0.2126,-0.19134 0.3189,-0.17008 0.2126,-0.14882 0.1063,-0.0744 0.2126,-0.0638 0.1063,-0.0532 0.1063,-0.0531 0.2126,-0.0532 0.1063,-0.0425 0.2126,-0.0319 0.1063,-0.0319 0.2126,-0.0213 0.1063,-0.0213 0.2126,-0.0106 0.1063,0 c 0.3189,0 1.5944,0 2.6574,0.68032 -1.4882,0.26575 -2.5511,1.59449 -2.5511,2.85945 0,0.83976 0.6378,1.86023 2.0196,1.86023 1.1693,0 2.8701,-0.94606 2.8701,-3.07204 0,-2.76378 -3.0827,-3.48662 -4.8897,-3.48662 -3.0827,0 -4.9961,2.8063 -5.6339,4.01811 -1.2756,-3.48661 -4.1457,-4.01811 -5.6339,-4.01811 -5.52752,0 -8.6102,6.82441 -8.6102,8.15315 0,0.5315 0.5315,0.5315 0.6378,0.5315 0.4252,0 0.63779,-0.11693 0.74409,-0.58465 1.80709,-5.6126 5.31501,-6.94134 7.12201,-6.94134 0.9567,0 2.7638,0.46772 2.7638,3.53977 0,1.63701 -0.8504,5.19803 -2.7638,12.60708 -0.8504,3.28465 -2.7637,5.5063 -5.10232,5.5063 -0.3189,0 -1.48819,0 -2.65748,-0.69094 1.38189,-0.25512 2.55118,-1.36063 2.55118,-2.85945 0,-1.42441 -1.16929,-1.83898 -2.01969,-1.83898 -1.59448,0 -2.87007,1.37126 -2.87007,3.07205 0,2.42362 2.65748,3.48661 4.99606,3.48661 3.50792,0 5.42122,-3.70984 5.52752,-4.01811 0.6378,1.95591 2.5512,4.01811 5.7402,4.01811 5.4213,0 8.5039,-6.8244 8.5039,-8.15314 0,-0.5315 -0.5315,-0.5315 -0.6378,-0.5315 -0.5315,0 -0.6378,0.2126 -0.7441,0.57401 -1.7007,5.66575 -5.3149,6.94134 -7.0157,6.94134 -2.126,0 -2.9764,-1.69015 -2.9764,-3.49724 0,-1.16929 0.3189,-2.32795 0.9567,-4.65591 z"
         id="path6759" />
      <path
         style="font-style:normal;font-variant:normal;font-weight:normal;font-stretch:normal;letter-spacing:normal;word-spacing:normal;text-anchor:start;fill:#008000;stroke:#000000;stroke-width:0;stroke-linecap:butt;stroke-linejoin:miter;stroke-miterlimit:10.43299961;stroke-opacity:1;stroke-dasharray:none;stroke-dashoffset:0"
         inkscape:connector-curvature="0"
         d="m 746.50076,509.37391 h -1.2756 c -0.1063,0.8185 -0.5315,3.00827 -0.9567,3.38032 -0.3189,0.21259 -3.189,0.21259 -3.6142,0.21259 h -6.9094 c 3.933,-3.43346 5.2086,-4.46456 7.4409,-6.20787 2.7638,-2.20039 5.315,-4.48583 5.315,-8.01496 0,-4.4752 -3.9331,-7.21772 -8.7166,-7.21772 -4.5708,0 -7.6535,3.22087 -7.6535,6.62244 0,1.89213 1.5945,2.08347 1.9134,2.08347 0.9567,0 2.0197,-0.6378 2.0197,-1.96654 0,-0.65905 -0.3189,-1.9559 -2.2323,-1.9559 1.1693,-2.62559 3.7204,-3.4441 5.4212,-3.4441 3.7205,0 5.6339,2.88071 5.6339,5.87835 0,3.2315 -2.2323,5.78268 -3.5079,7.11142 l -8.9291,8.82283 c -0.3189,0.32953 -0.3189,0.41457 -0.3189,1.44567 h 15.2008 z"
         id="path6761" />
      <path
         style="font-style:normal;font-variant:normal;font-weight:normal;font-stretch:normal;letter-spacing:normal;word-spacing:normal;text-anchor:start;fill:#008000;stroke:#000000;stroke-width:0;stroke-linecap:butt;stroke-linejoin:miter;stroke-miterlimit:10.43299961;stroke-opacity:1;stroke-dasharray:none;stroke-dashoffset:0"
         inkscape:connector-curvature="0"
         d="m 766.91016,494.981 0,-0.39331 0,-0.41457 0,-0.41456 0,-0.43583 0,-0.89291 -0.1063,-0.93544 -0.1063,-0.97795 -0.1063,-1.00984 -0.1063,-1.0311 -0.2126,-1.07363 -0.2126,-1.08425 -0.2126,-1.09488 -0.3189,-1.11614 -0.3189,-1.12677 -0.3189,-1.13741 -0.4252,-1.1374 -0.2126,-0.56338 -0.3189,-0.56339 -0.2126,-0.56338 -0.3189,-0.56339 c -3.0826,-6.50551 -7.6535,-9.94961 -8.185,-9.94961 -0.3189,0 -0.5315,0.20197 -0.5315,0.52087 0,0.15945 0,0.26575 0.9567,1.22244 5.2087,5.22992 8.2913,13.65945 8.2913,24.73583 0,9.04606 -2.0197,18.3685 -8.6102,25.04409 -0.6378,0.62717 -0.6378,0.7441 -0.6378,0.89291 0,0.3189 0.2126,0.5315 0.5315,0.5315 0.5315,0 5.315,-3.60354 8.3976,-10.32165 2.6575,-5.81457 3.2953,-11.69292 3.2953,-16.14685 z"
         id="path6763" />
    </g>
  </g>
  <g
     inkscape:label="Layer2"
     id="layer2"
     inkscape:groupmode="layer" />
</svg>
